<svg xmlns="http://www.w3.org/2000/svg" width="338" height="270" fill="none" viewBox="0 0 338 270">
  <path fill="#F5F5F5" d="M49.498 243.547c65.997 34.478 173.007 34.478 239.004 0 65.997-34.478 65.997-90.378 0-124.864-65.997-34.485-172.977-34.477-239.004 0-66.028 34.478-65.967 90.386 0 124.864z"/>
  <path fill="#E0E0E0" d="M31.1 187.005L9.649 174.622v-46.016L31.1 140.997v46.008z"/>
  <path fill="#EBEBEB" d="M31.1 140.997l30.653-17.695v46.007L31.1 187.005v-46.008z"/>
  <path fill="#F5F5F5" d="M61.753 123.302L31.1 140.997 9.648 128.606l30.651-17.695 21.454 12.391z"/>
  <path fill="#E0E0E0" d="M34.172 142.763l24.517-14.157.566.325v17.046L34.73 160.133l-.566-.324.008-17.046z"/>
  <path fill="#F5F5F5" d="M34.73 143.095l24.525-14.164v17.046L34.73 160.133v-17.038z"/>
  <path fill="#E0E0E0" d="M44.344 140.431l4.173-2.407c.536-.317.973-.174.973.317a1.958 1.958 0 01-.973 1.448l-4.173 2.408c-.543.317-.98.173-.98-.317a1.942 1.942 0 01.98-1.449zM33.606 164.329l24.517-14.156v17.046l.566.325L34.164 181.7l-.558-.324v-17.047z"/>
  <path fill="#F5F5F5" d="M34.164 164.654l24.525-14.157v17.047L34.164 181.7v-17.046z"/>
  <path fill="#E0E0E0" d="M43.778 161.997l4.21-2.399c.544-.317.982-.174.982.317a1.951 1.951 0 01-.981 1.449l-4.173 2.407c-.544.317-.981.173-.981-.317a1.944 1.944 0 01.943-1.457zM31.1 138.341L9.649 125.95V79.942L31.1 92.325v46.016z"/>
  <path fill="#EBEBEB" d="M31.1 92.325L61.754 74.63v46.015L31.1 138.341V92.325z"/>
  <path fill="#F5F5F5" d="M61.753 74.63L31.1 92.325 9.648 79.942l30.651-17.695L61.753 74.63z"/>
  <path fill="#E0E0E0" d="M34.164 94.099L58.69 79.942l.566.325v17.046L34.73 111.47l-.566-.332V94.099z"/>
  <path fill="#E0E0E0" d="M44.344 91.76l4.165-2.408c.544-.31.981-.166.981.325a1.963 1.963 0 01-.98 1.448l-4.166 2.408c-.543.309-.98.173-.98-.317a1.968 1.968 0 01.98-1.457zM33.606 115.665l24.517-14.156v17.039l.566.324-24.525 14.156-.558-.324v-17.039z"/>
  <path fill="#F5F5F5" d="M34.164 115.99l24.525-14.157v17.039l-24.525 14.156V115.99z"/>
  <path fill="#E0E0E0" d="M43.778 113.326l4.21-2.407c.537-.31.982-.166.982.324a1.992 1.992 0 01-.981 1.449l-4.21 2.384c-.544.31-.982.166-.982-.317a1.963 1.963 0 01.981-1.433zM34.164 94.099L58.69 79.942v17.04l-24.525 14.155V94.099z"/>
  <path fill="#E0E0E0" d="M70.951 88.364l-13.424-7.75V95.63l13.424 7.743v-15.01z"/>
  <path fill="#EBEBEB" d="M43.363 113.567V92.325l5.26-3.048.867 1.282 15.326-8.851v19.469l-21.453 12.39z"/>
  <path fill="#F5F5F5" d="M43.363 113.567l1.532-18.585 21.453-12.383-1.532 18.578-21.453 12.39z"/>
  <path fill="#EBEBEB" d="M46.427 102.52L34.73 95.766v15.017l11.697 6.746V102.52z"/>
  <path fill="#F5F5F5" d="M46.427 101.177L70.95 87.02v17.039l-24.524 14.157v-17.039z"/>
  <path fill="#E0E0E0" d="M56.04 98.513l4.166-2.407c.543-.31.98-.166.98.324a1.969 1.969 0 01-.98 1.45l-4.166 2.406c-.543.31-.98.166-.98-.317a1.968 1.968 0 01.98-1.456zM46.427 101.177l-.815-.468v17.039l.815.468v-17.039z"/>
  <path fill="#EBEBEB" d="M45.612 100.709l24.517-14.164.822.475-24.524 14.157-.815-.468z"/>
  <path fill="#E0E0E0" d="M284.556 159.13l-21.461-12.391v-46.008l21.461 12.383v46.016z"/>
  <path fill="#EBEBEB" d="M284.556 113.114l30.651-17.695v46.016l-30.651 17.695v-46.016z"/>
  <path fill="#F5F5F5" d="M315.207 95.42l-30.651 17.694-21.461-12.383 30.659-17.702 21.453 12.39z"/>
  <path fill="#E0E0E0" d="M287.619 114.888l24.525-14.157.566.325-.008 17.039-24.517 14.156-.566-.324v-17.039z"/>
  <path fill="#F5F5F5" d="M288.185 115.212l24.525-14.156-.008 17.039-24.517 14.156v-17.039z"/>
  <path fill="#E0E0E0" d="M297.799 112.548l4.165-2.407c.543-.309.981-.166.981.317a1.98 1.98 0 01-.981 1.457l-4.165 2.407c-.544.309-.981.166-.981-.317a1.98 1.98 0 01.981-1.457zM287.053 136.454l24.525-14.164v17.047l.566.324-24.525 14.157-.566-.325v-17.039z"/>
  <path fill="#F5F5F5" d="M287.619 136.779l24.525-14.157v17.039l-24.525 14.157v-17.039z"/>
  <path fill="#E0E0E0" d="M297.233 134.115l4.173-2.407c.535-.31.973-.166.973.317a1.977 1.977 0 01-.973 1.456l-4.173 2.407c-.544.31-.981.166-.981-.324a1.966 1.966 0 01.981-1.449z"/>
  <g>
    <path fill="#BA68C8" d="M80.436 207.22s.083-11.967-7.463-20.94c-6.678-7.946-10.232-12.986-8.126-15.31 2.105-2.325 6.632-2.883 12.737 3.546s6.58 24.238 5.735 28.267l-2.883 4.437z"/>
    <path fill="#000" d="M80.436 207.22s.083-11.967-7.463-20.94c-6.678-7.946-10.232-12.986-8.126-15.31 2.105-2.325 6.632-2.883 12.737 3.546s6.58 24.238 5.735 28.267l-2.883 4.437z" opacity=".2"/>
    <path fill="#fff" d="M81.704 194.355a.38.38 0 01-.37-.295c-2.64-12.352-9.417-19.182-13.228-22.155a.377.377 0 01.186-.672.39.39 0 01.282.076c3.886 3.019 10.806 10.006 13.5 22.593a.367.367 0 01-.152.388.37.37 0 01-.135.057l-.083.008z"/>
    <path fill="#BA68C8" d="M80.15 211.665l-3.072 1.773a5.56 5.56 0 00-4.135-3.539c-3.358-.754-6.844-.626-9.198-3.539-2.355-2.913.513-6.082 0-8.225s-.845-2.762-5.056-4.905c-4.21-2.143-5.87-5.697-2.702-8.104 3.17-2.407 8.301-.642 11.41 1.509 2.762 1.886 5.388 2.385 8.474 2.769 3.087.385 8.112 2.098 7.342 9.267a56.488 56.488 0 01-3.063 12.994z"/>
    <path fill="#fff" d="M68.363 202.248a.39.39 0 01-.362-.264.387.387 0 01.249-.476c.271-.083 6.791-2.15 9.56.068a.377.377 0 01-.467.589c-2.445-1.962-8.799.045-8.867.068l-.113.015z"/>
    <path fill="#fff" d="M80.49 211.092a.369.369 0 01-.37-.332c-1.683-15.892-20.827-23.431-21.016-23.506a.374.374 0 01-.212-.2.376.376 0 01.19-.496.38.38 0 01.286-.013c.204.083 19.77 7.779 21.499 24.147a.378.378 0 01-.332.415l-.046-.015z"/>
    <path fill="#BA68C8" d="M268.181 201.229c.083-.264 3.32-16.926 0-28.743-3.019-10.836-6.958-14.835-12.572-15.718-5.614-.883-8.051 3.162-5.071 8.64 2.981 5.479 10.157 12.745 11.915 24.985a578.713 578.713 0 011.328 9.417l4.4 1.419z"/>
    <path fill="#000" d="M268.181 201.229c.083-.264 3.32-16.926 0-28.743-3.019-10.836-6.958-14.835-12.572-15.718-5.614-.883-8.051 3.162-5.071 8.64 2.981 5.479 10.157 12.745 11.915 24.985a578.713 578.713 0 011.328 9.417l4.4 1.419z" opacity=".2"/>
    <path fill="#fff" d="M266.287 191.661a.375.375 0 01-.261-.127.369.369 0 01-.094-.273c.755-13.492-3.652-25.536-11.553-31.444a.378.378 0 01-.075-.529.385.385 0 01.528-.075c8.097 6.037 12.639 18.352 11.847 32.093a.378.378 0 01-.392.355z"/>
    <path fill="#BA68C8" d="M276.866 209.907c-.43-3.102 1.351-7.75 5.584-8.852 4.233-1.101 6.12-3.531 4.596-6.187-1.525-2.656-1.17-5.094 2.671-6.196 3.841-1.101 7.206-3.018 4.995-7.078-1.607-2.935-1.962-4.837 1.977-10.617 3.268-4.799.597-7.614-3.493-7.086-4.09.529-6.618 5.403-9.176 6.218-2.558.815-3.147-3.531-6.52-1.584-3.373 1.947-3.169 6.934-3.275 10.413-.106 3.479-.332 4.264-3.381 3.841-3.048-.423-6.036.075-5.968 7.448.052 6.323 3.425 14.156 3.425 14.156l8.565 5.524z"/>
    <path fill="#fff" d="M271.516 205.191h-.038a.384.384 0 01-.339-.423c2.128-19.008 18.442-35.044 22.698-38.296a.377.377 0 01.532.072.377.377 0 01-.072.532c-4.203 3.207-20.306 19.031-22.404 37.775a.387.387 0 01-.377.34z"/>
    <path fill="#fff" d="M278.956 184.869a.38.38 0 01-.354-.241.391.391 0 01.226-.491c6.082-2.264 12.979-1.192 13.273-1.147a.377.377 0 01.31.43.39.39 0 01-.43.317c-.068 0-6.995-1.086-12.889 1.11a.445.445 0 01-.136.022zM273.538 196.294a.386.386 0 01-.279-.128 22.251 22.251 0 01-4.973-10.316.383.383 0 01.07-.281.37.37 0 01.247-.149.39.39 0 01.281.069.38.38 0 01.149.248 21.82 21.82 0 004.792 9.923.386.386 0 01-.287.634z"/>
  </g>
  <g>
    <path fill="#BA68C8" d="M80.15 94.876v116.797l119.543-69.016-.007-106.18-88.884 51.32-3.072-8.85-27.58 15.929z"/>
    <path fill="#000" d="M80.15 94.876v116.797l119.543-69.016-.007-106.18-88.884 51.32-3.072-8.85-27.58 15.929z" opacity=".7"/>
    <path fill="#E0E0E0" d="M80.15 211.673l6.127-106.18 119.544-69.016-6.128 106.18L80.15 211.673z"/>
    <path fill="#BA68C8" d="M80.15 211.673l9.19-104.407 119.544-69.023-9.191 104.414L80.15 211.673z"/>
    <path fill="#000" d="M80.15 211.673l9.19-104.407 119.544-69.023-9.191 104.414L80.15 211.673z" opacity=".7"/>
  </g>
  <g>
    <path fill="#BA68C8" d="M98.54 105.493v116.804l119.543-69.023V47.094l-88.892 51.32-3.064-8.85-27.588 15.929z"/>
    <path fill="#000" d="M98.54 105.493v116.804l119.543-69.023V47.094l-88.892 51.32-3.064-8.85-27.588 15.929z" opacity=".5"/>
    <path fill="#E0E0E0" d="M98.54 222.297l6.127-106.187L224.21 47.095l-6.127 106.179-119.544 69.023z"/>
    <path fill="#BA68C8" d="M98.54 222.297l9.19-104.413L227.274 48.86l-9.191 104.414-119.544 69.023z"/>
    <path fill="#000" d="M98.54 222.297l9.19-104.413L227.274 48.86l-9.191 104.414-119.544 69.023z" opacity=".5"/>
  </g>
  <g>
    <path fill="#E0E0E0" d="M199.663 259.461c-21.461-12.39-41.367-25.86-50.452-41.661l27.618-15.945 22.834 57.606z"/>
    <path fill="#BA68C8" d="M119.993 117.884V234.68l119.543-69.015V59.485l-88.892 51.32-3.063-8.851-27.588 15.93z"/>
    <path fill="#000" d="M119.993 117.884V234.68l119.543-69.015V59.485l-88.892 51.32-3.063-8.851-27.588 15.93z" opacity=".2"/>
    <path fill="#fff" d="M154.432 152.414c-.301 0-.347-.347-.347-.551V52.256a2.513 2.513 0 011.117-1.932L241.483.521a.798.798 0 01.392-.121c.302 0 .347.347.347.55v99.608a2.501 2.501 0 01-1.116 1.939l-86.281 49.804a.821.821 0 01-.393.113z"/>
    <path fill="#BA68C8" d="M241.83.747a.768.768 0 010 .166v99.607a2.178 2.178 0 01-.281.913 2.173 2.173 0 01-.647.702l-86.281 49.804-.151.068a.463.463 0 010-.166V52.233a2.174 2.174 0 01.928-1.607L241.679.823a.427.427 0 01.159-.068l-.008-.008zm.053-.747a1.175 1.175 0 00-.581.174l-86.281 49.803a2.905 2.905 0 00-1.305 2.264v99.607c0 .589.294.928.754.928.206-.005.406-.065.581-.173l86.281-49.804a2.868 2.868 0 001.306-2.264V.928c0-.588-.295-.935-.755-.928z"/>
    <path fill="#fff" d="M241.83.747a.768.768 0 010 .166v99.607a2.178 2.178 0 01-.281.913 2.173 2.173 0 01-.647.702l-86.281 49.804-.151.068a.463.463 0 010-.166V52.233a2.174 2.174 0 01.928-1.607L241.679.823a.427.427 0 01.159-.068l-.008-.008zm.053-.747a1.175 1.175 0 00-.581.174l-86.281 49.803a2.905 2.905 0 00-1.305 2.264v99.607c0 .589.294.928.754.928.206-.005.406-.065.581-.173l86.281-49.804a2.868 2.868 0 001.306-2.264V.928c0-.588-.295-.935-.755-.928z" opacity=".7"/>
    <path fill="#BA68C8" d="M162.907 56.037l30.651-17.696v35.391l-30.651 17.695v-35.39z"/>
    <path fill="#fff" d="M162.907 56.037l30.651-17.696v35.391l-30.651 17.695v-35.39z" opacity=".8"/>
    <path fill="#fff" d="M188.963 47.163v10.64l-.966.535v-3.252c0-1.796-1.456-2.407-3.267-1.366l-12.987 7.508c-1.804 1.042-3.267 3.343-3.267 5.14v3.252l-.959.573V59.576l21.446-12.413z"/>
    <path fill="#fff" d="M183.062 74.253c-1.57.905-2.845-.046-2.845-2.136V55.086l-3.946 2.143v17.167c0 2.083-1.276 4.528-2.845 5.41l-2.853 1.645v1.132l15.326-8.851v-1.124l-2.837 1.645z"/>
    <path fill="#455A64" d="M199.663 36.598c0 .981.883 1.26 1.962.642l29.822-17.243a3.945 3.945 0 001.962-2.905c0-.974-.883-1.26-1.962-.634l-29.799 17.205a3.927 3.927 0 00-1.985 2.935zM199.663 47.163c0 .98.883 1.267 1.962.64L231.424 30.6a3.937 3.937 0 001.962-2.905c0-.974-.883-1.26-1.962-.634l-29.799 17.205a3.935 3.935 0 00-1.962 2.898zM199.663 57.802c0 .981.883 1.268 1.962.642l29.799-17.205a3.934 3.934 0 001.962-2.898c0-.98-.883-1.267-1.962-.641l-29.799 17.205a3.935 3.935 0 00-1.962 2.897zM199.663 68.42c0 .98.883 1.267 1.962.641l29.799-17.205a3.935 3.935 0 001.962-2.898c0-.98-.883-1.267-1.962-.64l-29.799 17.204a3.935 3.935 0 00-1.962 2.898zM162.907 100.279c0 .981.875 1.267 1.962.641l66.578-38.484a3.928 3.928 0 001.962-2.898c0-.981-.883-1.26-1.962-.641L164.869 97.38a3.907 3.907 0 00-1.962 2.898zM162.907 110.896c0 .981.875 1.268 1.962.641l66.578-38.439a3.946 3.946 0 001.962-2.905c0-.974-.883-1.26-1.962-.634l-66.578 38.439a3.909 3.909 0 00-1.962 2.898zM162.907 121.521c0 .973.875 1.26 1.962.634l66.578-38.44a3.946 3.946 0 001.962-2.905c0-.973-.883-1.26-1.962-.634l-66.578 38.44a3.911 3.911 0 00-1.962 2.905z"/>
    <path fill="#BA68C8" d="M119.993 234.68l21.453-93.789 119.543-69.023-21.453 93.797-119.543 69.015z"/>
    <path fill="#BA68C8" d="M149.241 148.234V217.8l27.588-15.93v-69.558l-27.588 15.922z"/>
    <path fill="#000" d="M149.241 148.234V217.8l27.588-15.93v-69.558l-27.588 15.922z" opacity=".2"/>
    <path fill="#fff" d="M199.716 259.009c-2.347-1.751-24.97-19.039-36.47-43.767-12.239-26.29-12.224-56.957-12.224-68.495v-.362l82.009-47.344c0 11.644.001 42.356 12.293 68.737 11.236 24.147 32.991 41.216 36.439 43.827l-82.047 47.404z"/>
    <path fill="#BA68C8" d="M232.654 99.72c0 12.134.234 42.258 12.33 68.246 10.859 23.317 31.505 40.085 36.1 43.624l-81.345 46.966c-3.177-2.392-24.947-19.393-36.146-43.442-12.224-26.215-12.224-56.822-12.224-68.344v-.144l81.255-46.913.03.007zm.725-1.313l-82.765 47.789c0 10.859-.226 42.409 12.262 69.235 12.293 26.327 36.787 44.03 36.787 44.03l82.787-47.796s-24.524-17.703-36.779-44.031c-12.496-26.826-12.262-58.376-12.262-69.234l-.03.007z"/>
    <path fill="#fff" d="M232.654 99.72c0 12.134.234 42.258 12.33 68.246 10.859 23.317 31.505 40.085 36.1 43.624l-81.345 46.966c-3.177-2.392-24.947-19.393-36.146-43.442-12.224-26.215-12.224-56.822-12.224-68.344v-.144l81.255-46.913.03.007zm.725-1.313l-82.765 47.789c0 10.859-.226 42.409 12.262 69.235 12.293 26.327 36.787 44.03 36.787 44.03l82.787-47.796s-24.524-17.703-36.779-44.031c-12.496-26.826-12.262-58.376-12.262-69.234l-.03.007z" opacity=".7"/>
    <path fill="#455A64" d="M224.044 114.435l-26.169 15.092a3.71 3.71 0 00-1.902 2.86c.038.958.951 1.23 2.03.604l26.177-15.092a3.709 3.709 0 001.894-2.823c-.045-.996-.943-1.267-2.03-.641zM224.603 124.735l-26.17 15.092a3.487 3.487 0 00-1.826 2.823c.083.928 1.034 1.177 2.113.55l26.177-15.092a3.436 3.436 0 001.803-2.814c-.075-.936-1.011-1.162-2.097-.559zM225.652 134.749l-26.178 15.092c-1.079.626-1.863 1.871-1.735 2.769.128.898 1.117 1.132 2.203.506l26.177-15.092c1.079-.627 1.849-1.864 1.713-2.762-.136-.898-1.101-1.139-2.18-.513zM227.221 144.461l-26.177 15.092c-1.079.626-1.826 1.848-1.645 2.724.181.875 1.207 1.071 2.264.445l26.169-15.092c1.087-.626 1.811-1.841 1.63-2.717-.181-.875-1.124-1.079-2.241-.452zM229.349 153.848l-26.177 15.092c-1.079.626-1.781 1.818-1.509 2.656.271.838 1.305 1.026 2.384.4l26.177-15.092c1.087-.626 1.766-1.811 1.51-2.656-.257-.845-1.306-1.027-2.385-.4zM232.111 162.895l-63.794 36.832c-1.079.627-1.735 1.789-1.441 2.596.294.808 1.418.959 2.498.332l63.793-36.832c1.087-.626 1.713-1.781 1.419-2.596-.294-.814-1.434-.958-2.475-.332zM235.469 171.536l-63.786 36.832c-1.087.626-1.683 1.758-1.321 2.527.362.77 1.509.891 2.611.265l63.794-36.832c1.086-.627 1.667-1.759 1.305-2.528-.362-.77-1.517-.883-2.603-.264zM239.657 179.768L175.863 216.6c-1.087.627-1.622 1.728-1.192 2.46.43.732 1.66.808 2.747.181l63.748-36.832c1.079-.618 1.6-1.713 1.17-2.445-.43-.732-1.623-.822-2.679-.196zM244.539 187.556l-63.786 36.824c-1.087.627-1.57 1.706-1.079 2.392.49.687 1.781.755 2.867.121l63.787-36.832c1.086-.626 1.554-1.69 1.064-2.385-.491-.694-1.766-.747-2.853-.12zM250.108 194.958l-63.794 36.825c-1.079.626-1.509 1.675-.966 2.331.544.657 1.879.687 2.966.061l63.794-36.847c1.079-.627 1.509-1.66.951-2.317-.559-.656-1.864-.702-2.951-.053zM256.258 202.006l-63.771 36.825c-1.087.626-1.509 1.652-.875 2.263.633.612 1.977.627 3.056 0l63.793-36.832c1.087-.626 1.464-1.637.861-2.263-.604-.627-1.962-.612-3.064.007zM263.049 208.745l-63.793 36.824c-1.079.627-1.434 1.63-.755 2.226.679.596 2.068.574 3.154-.052l63.741-36.832c1.079-.627 1.419-1.608.755-2.211-.664-.604-2.045-.581-3.102.045z"/>
    <path fill="#BA68C8" d="M188.389 135.028l-30.093 17.356c.332 10.904 1.577 26.63 6.135 42.469l30.101-17.356c-4.565-15.839-5.811-31.573-6.143-42.469z"/>
    <path fill="#fff" d="M188.389 135.028l-30.093 17.356c.332 10.904 1.577 26.63 6.135 42.469l30.101-17.356c-4.565-15.839-5.811-31.573-6.143-42.469z" opacity=".8"/>
    <path fill="#BA68C8" d="M170.566 149.984a4.97 4.97 0 00-1.464-3.818l-10.806 6.233c.091 2.883.241 6.105.506 9.576a7.08 7.08 0 004.082-.755c4.248-1.947 7.682-6.995 7.682-11.236z"/>
    <path fill="#fff" d="M170.566 149.984a4.97 4.97 0 00-1.464-3.818l-10.806 6.233c.091 2.883.241 6.105.506 9.576a7.08 7.08 0 004.082-.755c4.248-1.947 7.682-6.995 7.682-11.236z" opacity=".6"/>
    <path fill="#BA68C8" d="M191.974 167.083c-2.007-2.527-6.09-10.338-7.833-13.741a.756.756 0 00-1.396.129 82.83 82.83 0 00-3.26 19.808 28.652 28.652 0 01-6.391-7.109.678.678 0 00-1.005-.11.663.663 0 00-.195.322c-3.29 12.669-1.638 25.135-1.638 25.135l24.276-14.02a139.227 139.227 0 01-2.558-10.414z"/>
    <path fill="#fff" d="M191.974 167.083c-2.007-2.527-6.09-10.338-7.833-13.741a.756.756 0 00-1.396.129 82.83 82.83 0 00-3.26 19.808 28.652 28.652 0 01-6.391-7.109.678.678 0 00-1.005-.11.663.663 0 00-.195.322c-3.29 12.669-1.638 25.135-1.638 25.135l24.276-14.02a139.227 139.227 0 01-2.558-10.414z" opacity=".6"/>
  </g>
</svg>
