<svg width="1163" height="712" viewBox="0 0 1163 712" fill="none" xmlns="http://www.w3.org/2000/svg">
<path d="M724.69 690.309C728.766 688.024 733.345 686.787 738.017 686.711C742.689 686.635 747.306 687.721 751.454 689.872C755.602 692.024 759.15 695.172 761.779 699.034C764.408 702.897 766.036 707.352 766.516 712C749.427 712 732.677 708.024 724.69 690.309Z" fill="#EBEBEB"/>
<path d="M744.588 672.797C750.335 674.683 756.46 675.111 762.412 674.041C768.365 672.971 773.958 670.437 778.687 666.667C783.416 662.898 787.134 658.011 789.505 652.447C791.876 646.884 792.825 640.817 792.268 634.795C770.56 639.059 750.189 648.331 744.588 672.797Z" fill="#EBEBEB"/>
<path d="M670.192 701.713C670.535 701.541 670.891 701.4 671.258 701.29L674.388 700.241C677.096 699.361 681.021 698.075 685.843 696.4C695.504 693.016 708.752 688.211 723.067 682.001C730.19 678.871 736.89 675.69 742.913 672.645C748.937 669.599 754.199 666.587 758.564 663.931C762.001 661.866 765.317 659.606 768.496 657.163C770.73 655.471 771.88 654.27 771.88 654.338C771.659 654.647 771.403 654.931 771.119 655.184C770.354 655.978 769.547 656.729 768.699 657.434C765.585 660.015 762.301 662.383 758.869 664.523C754.554 667.264 749.258 670.276 743.269 673.423C737.279 676.57 730.545 679.734 723.388 682.881C709.091 689.108 695.775 693.879 686.063 697.06C681.207 698.667 677.248 699.852 674.507 700.63L671.343 701.527C670.969 701.637 670.582 701.7 670.192 701.713V701.713Z" fill="#E0E0E0"/>
<path d="M746.686 700.258C746.686 700.393 744.622 699.006 741.221 697.161C736.779 694.778 732.086 692.894 727.229 691.544C722.357 690.222 717.35 689.456 712.306 689.26C708.448 689.108 706.028 689.26 706.028 689.125C706.579 688.963 707.147 688.872 707.72 688.854C709.254 688.691 710.797 688.617 712.339 688.634C722.607 688.679 732.681 691.434 741.543 696.62C742.878 697.394 744.166 698.248 745.401 699.175C745.88 699.471 746.313 699.836 746.686 700.258V700.258Z" fill="#E0E0E0"/>
<path d="M343.54 624.187C341.471 629.702 340.806 635.644 341.604 641.48C342.402 647.316 344.638 652.862 348.111 657.619C351.585 662.376 356.186 666.195 361.502 668.732C366.818 671.269 372.681 672.445 378.564 672.154C375.315 650.869 367.126 630.633 343.54 624.187" fill="#EBEBEB"/>
<path d="M340.207 613.73C340.342 613.73 340.917 616.065 342.152 619.771C343.757 624.601 345.766 629.287 348.159 633.78C350.583 638.255 353.373 642.522 356.5 646.538C358.92 649.617 360.561 651.411 360.459 651.512C359.984 651.191 359.552 650.81 359.174 650.378C358.378 649.6 357.296 648.433 356.027 646.994C349.372 639.115 344.443 629.927 341.56 620.024C341.019 618.129 340.63 616.64 340.443 615.49C340.27 614.92 340.19 614.326 340.207 613.73V613.73Z" fill="#E0E0E0"/>
<path d="M5.41552 197.234C2.20265 205.784 1.16822 215 2.4055 224.049C3.64278 233.099 7.11286 241.699 12.5029 249.073C17.8929 256.447 25.0335 262.364 33.2807 266.29C41.528 270.216 50.6227 272.028 59.7448 271.562C54.6689 238.569 42.0299 207.267 5.4832 197.234" fill="#EBEBEB"/>
<path d="M0.238037 181.058C0.581792 181.872 0.848043 182.716 1.03326 183.579C1.47317 185.271 2.16689 187.572 3.09747 190.466C5.55233 197.973 8.65466 205.254 12.3695 212.225C16.1128 219.191 20.461 225.815 25.3639 232.021C27.2589 234.389 28.7478 236.284 29.9491 237.553C30.5617 238.194 31.1272 238.878 31.6411 239.601C30.9437 239.058 30.298 238.452 29.7122 237.79C28.5109 236.572 26.8528 234.745 24.907 232.41C14.6896 220.16 7.07326 205.958 2.5222 190.669C1.65929 187.759 1.05018 185.356 0.711788 183.698C0.491738 182.83 0.333426 181.948 0.238037 181.058V181.058Z" fill="#E0E0E0"/>
<path d="M62.5872 534.004C57.9955 537.698 54.3947 542.476 52.1089 547.908C49.8231 553.339 48.9242 559.254 49.4931 565.12C50.0621 570.985 52.081 576.617 55.368 581.508C58.655 586.4 63.107 590.396 68.323 593.139C76.3599 573.157 79.6085 551.584 62.5872 534.004Z" fill="#EBEBEB"/>
<path d="M65.0238 523.311C65.1592 523.311 64.4655 525.697 63.6364 529.504C61.4458 539.47 61.0163 549.743 62.3674 559.858C62.875 563.732 63.3826 566.118 63.2303 566.152C62.9878 565.611 62.8117 565.043 62.7058 564.46C62.4182 563.394 62.0798 561.837 61.7414 559.909C60.0459 549.733 60.4838 539.315 63.0273 529.318C63.518 527.406 63.9917 525.934 64.3639 524.851C64.5242 524.314 64.7456 523.797 65.0238 523.311V523.311Z" fill="#E0E0E0"/>
<path d="M376.584 106.172C381.858 108.797 387.701 110.071 393.589 109.877C399.477 109.683 405.225 108.028 410.314 105.061C415.404 102.095 419.676 97.9088 422.746 92.8808C425.816 87.8527 427.588 82.1403 427.902 76.2575C406.38 77.2896 385.433 83.3638 376.584 106.172Z" fill="#EBEBEB"/>
<path d="M365.84 108.507C365.84 108.371 368.242 108.033 372.049 107.187C382.016 105.009 391.526 101.11 400.153 95.6644C403.537 93.5664 405.415 92.1282 405.5 92.2805C405.142 92.7287 404.72 93.122 404.248 93.4479C403.402 94.1586 402.116 95.1399 400.492 96.2228C391.968 102.026 382.327 105.985 372.185 107.847C370.239 108.202 368.665 108.405 367.566 108.507C366.993 108.584 366.413 108.584 365.84 108.507V108.507Z" fill="#E0E0E0"/>
<path d="M332.728 103.109C340.324 101.479 347.395 97.9851 353.305 92.9426C359.216 87.9 363.779 81.4669 366.585 74.2223C369.391 66.9778 370.351 59.1492 369.379 51.4412C368.407 43.7333 365.534 36.388 361.018 30.0666C339.699 48.8306 323.084 72.3659 332.728 103.109Z" fill="#EBEBEB"/>
<path d="M323.507 114.242C323.926 113.635 324.402 113.068 324.928 112.55C325.893 111.484 327.263 109.894 328.887 107.897C337.419 97.4745 344.025 85.6144 348.396 72.8735C349.242 70.4371 349.868 68.4405 350.274 67.0531C350.444 66.3197 350.687 65.6054 351.001 64.9212C350.95 65.6729 350.813 66.4165 350.595 67.1377C350.308 68.559 349.749 70.5217 348.903 73.0596C344.845 86.0197 338.171 98.0093 329.293 108.287C327.601 110.249 326.146 111.789 325.097 112.787C324.619 113.326 324.086 113.814 323.507 114.242V114.242Z" fill="#E0E0E0"/>
<path d="M471.521 682.712C473.125 685.873 475.49 688.586 478.402 690.607C481.314 692.629 484.683 693.895 488.206 694.293C491.728 694.69 495.294 694.206 498.584 692.885C501.873 691.564 504.783 689.446 507.052 686.722C496.291 679.48 483.973 674.878 471.521 682.712Z" fill="#EBEBEB"/>
<path d="M465.531 679.937C469.49 681.691 473.559 683.183 477.713 684.404C481.939 685.338 486.224 685.982 490.538 686.333C489.278 686.61 487.982 686.69 486.698 686.57C480.469 686.358 474.36 684.793 468.797 681.985C467.612 681.47 466.511 680.779 465.531 679.937V679.937Z" fill="#E0E0E0"/>
<path d="M628.367 75.2254C630.55 78.023 633.395 80.2333 636.646 81.6572C639.896 83.081 643.45 83.6736 646.987 83.3816C650.523 83.0895 653.932 81.9219 656.905 79.9841C659.878 78.0463 662.322 75.3992 664.017 72.2813C652.054 67.2054 639.094 65.1243 628.367 75.2254Z" fill="#EBEBEB"/>
<path d="M621.954 73.6688C630.36 75.8693 639.123 76.3584 647.723 75.107C646.535 75.6075 645.281 75.9324 644 76.0714C637.845 77.0739 631.546 76.7217 625.541 75.0393C624.283 74.7663 623.073 74.3042 621.954 73.6688V73.6688Z" fill="#E0E0E0"/>
<path d="M1034.85 127.271C1040.52 128.832 1046.5 128.96 1052.23 127.641C1057.97 126.322 1063.29 123.598 1067.71 119.714C1072.14 115.831 1075.53 110.909 1077.58 105.391C1079.63 99.8726 1080.28 93.9316 1079.46 88.1013C1058.55 93.1772 1039.16 103.211 1034.85 127.271Z" fill="#EBEBEB"/>
<path d="M1024.73 131.534C1024.73 131.399 1026.98 130.604 1030.57 129.047C1039.93 125.004 1048.52 119.359 1055.95 112.364C1058.8 109.674 1060.43 107.881 1060.55 107.982C1060.27 108.481 1059.93 108.942 1059.53 109.353C1058.84 110.215 1057.84 111.4 1056.39 112.736C1049.13 120.059 1040.42 125.787 1030.82 129.555C1028.99 130.265 1027.44 130.79 1026.42 131.077C1025.88 131.3 1025.31 131.453 1024.73 131.534V131.534Z" fill="#E0E0E0"/>
<path d="M1074.93 642.968C1084.91 640.656 1094.17 635.9 1101.86 629.127C1109.55 622.354 1115.43 613.776 1118.99 604.164C1122.54 594.552 1123.65 584.208 1122.21 574.062C1120.78 563.915 1116.84 554.284 1110.77 546.034C1082.97 571.228 1061.55 602.563 1074.93 642.968Z" fill="#EBEBEB"/>
<path d="M1062.93 657.857C1063.51 657.045 1064.14 656.276 1064.83 655.556C1066.1 654.135 1067.87 652.02 1069.99 649.363C1072.1 646.707 1074.54 643.441 1077.06 639.719C1079.58 635.997 1082.14 631.75 1084.62 627.181C1087.11 622.613 1089.14 618.112 1090.89 613.95C1092.63 609.788 1094 605.981 1095.03 602.732C1096.06 599.484 1096.84 596.844 1097.33 595C1097.54 594.029 1097.84 593.078 1098.21 592.158C1098.1 593.145 1097.92 594.123 1097.67 595.085C1097.28 596.963 1096.59 599.636 1095.62 602.918C1094.66 606.201 1093.32 610.059 1091.65 614.272C1089.97 618.485 1087.86 622.985 1085.4 627.604C1083.06 631.921 1080.5 636.116 1077.74 640.176C1075.15 643.898 1072.66 647.13 1070.48 649.752C1068.3 652.375 1066.42 654.439 1065.08 655.793C1064.42 656.537 1063.7 657.227 1062.93 657.857Z" fill="#E0E0E0"/>
<path d="M845.193 429.643C834.517 370.001 783.301 317.973 722.915 312.999C690.006 310.325 656.927 320.697 624.154 316.738C596.377 313.271 570.818 299.796 552.262 278.838C525.19 248.044 516.037 204.238 487.375 174.933C447.884 134.512 378.97 133.886 330.918 163.614C282.866 193.342 253.815 246.995 240.516 301.899L239.991 318.599C237.098 375.551 252.089 441.826 285.133 492.585C318.617 544.021 340.63 565.34 401.642 602.242C453.451 633.645 554.901 647.451 615.474 648.906C676.047 650.361 738.261 632.325 783.826 592.361C829.39 552.396 855.887 489.285 845.193 429.643Z" fill="#7E57C2"/>
<g opacity="0.8">
<path opacity="0.8" d="M845.193 429.643C834.517 370.001 783.301 317.973 722.915 312.999C690.006 310.325 656.927 320.697 624.154 316.738C596.377 313.271 570.818 299.796 552.262 278.838C525.19 248.044 516.037 204.238 487.375 174.933C447.884 134.512 378.97 133.886 330.918 163.614C282.866 193.342 253.815 246.995 240.516 301.899L239.991 318.599C237.098 375.551 252.089 441.826 285.133 492.585C318.617 544.021 340.63 565.34 401.642 602.242C453.451 633.645 554.901 647.451 615.474 648.906C676.047 650.361 738.261 632.325 783.826 592.361C829.39 552.396 855.887 489.285 845.193 429.643Z" fill="white"/>
</g>
<path d="M904.572 642.587C906.888 626.635 895.834 611.826 879.882 609.51C863.93 607.194 849.121 618.249 846.805 634.201C844.489 650.153 855.544 664.962 871.496 667.278C887.448 669.593 902.257 658.539 904.572 642.587Z" fill="#7E57C2"/>
<path opacity="0.8" d="M904.572 642.587C906.888 626.635 895.834 611.826 879.882 609.51C863.93 607.194 849.121 618.249 846.805 634.201C844.489 650.153 855.544 664.962 871.496 667.278C887.448 669.593 902.257 658.539 904.572 642.587Z" fill="white"/>
<path d="M670.819 413.823C671.371 472.095 658.67 516.65 632.715 547.489C606.76 578.328 571.229 593.951 526.121 594.357C480.776 594.797 444.731 579.862 417.987 549.554C391.242 519.245 377.582 474.96 377.007 416.7L376.026 314.234C375.462 256.188 388.163 211.632 414.129 180.568C440.095 149.503 475.745 133.779 521.079 133.395C566.198 132.956 602.141 147.997 628.908 178.52C655.675 209.044 669.33 253.323 669.871 311.357L670.819 413.823ZM594.967 300.596C594.595 263.903 588.205 236.809 575.797 219.314C563.389 201.819 545.342 193.179 521.654 193.393C498.045 193.618 480.229 202.603 468.205 220.346C456.18 238.089 450.309 265.302 450.591 301.984L451.776 426.496C452.125 463.381 458.594 490.628 471.182 508.236C483.771 525.843 501.858 534.534 525.444 534.309C549.03 534.083 566.79 525.099 578.724 507.356C590.658 489.613 596.451 462.197 596.101 425.109L594.967 300.596Z" fill="#7E57C2"/>
<g opacity="0.4">
<path opacity="0.4" d="M670.819 413.823C671.371 472.095 658.67 516.65 632.715 547.489C606.76 578.328 571.229 593.951 526.121 594.357C480.776 594.797 444.731 579.862 417.987 549.554C391.242 519.245 377.582 474.96 377.007 416.7L376.026 314.234C375.462 256.188 388.163 211.632 414.129 180.568C440.095 149.503 475.745 133.779 521.079 133.395C566.198 132.956 602.141 147.997 628.908 178.52C655.675 209.044 669.33 253.323 669.871 311.357L670.819 413.823ZM594.967 300.596C594.595 263.903 588.205 236.809 575.797 219.314C563.389 201.819 545.342 193.179 521.654 193.393C498.045 193.618 480.229 202.603 468.205 220.346C456.18 238.089 450.309 265.302 450.591 301.984L451.776 426.496C452.125 463.381 458.594 490.628 471.182 508.236C483.771 525.843 501.858 534.534 525.444 534.309C549.03 534.083 566.79 525.099 578.724 507.356C590.658 489.613 596.451 462.197 596.101 425.109L594.967 300.596Z" fill="black"/>
</g>
<path d="M713.896 413.417C714.46 471.678 701.759 516.233 675.793 547.083C649.827 577.934 614.295 593.556 569.199 593.951C523.854 594.391 487.809 579.451 461.064 549.131C434.32 518.81 420.677 474.514 420.136 416.243L419.154 313.777C418.59 255.731 431.291 211.176 457.257 180.111C483.224 149.046 518.874 133.316 564.207 132.922C609.326 132.504 645.27 147.546 672.037 178.047C698.804 208.547 712.407 252.849 712.847 310.951L713.896 413.417ZM638.045 300.19C637.684 263.508 631.266 236.437 618.79 218.975C606.315 201.514 588.267 192.874 564.647 193.054C541.038 193.291 523.222 202.276 511.198 220.008C499.173 237.739 493.33 264.958 493.669 301.662L494.87 426.158C495.231 463.054 501.7 490.306 514.277 507.914C526.854 525.522 544.941 534.213 568.539 533.987C592.125 533.75 609.885 524.766 621.819 507.034C633.753 489.302 639.54 461.881 639.179 424.77L638.045 300.19Z" fill="#7E57C2"/>
<path d="M419.374 319.868C419.459 320.088 409.459 324.064 397.04 328.734C384.621 333.404 374.452 336.923 374.452 336.771C374.452 336.619 384.367 332.575 396.786 327.905C409.206 323.235 419.29 319.631 419.374 319.868Z" fill="#7E57C2"/>
<path d="M421.828 360.357C421.912 360.577 411.913 364.553 399.477 369.223C387.041 373.893 376.923 377.48 376.838 377.26C376.753 377.04 386.753 373.064 399.172 368.394C411.591 363.724 421.828 360.12 421.828 360.357Z" fill="#7E57C2"/>
<path d="M424.349 400.846C424.433 401.066 414.434 405.042 401.998 409.712C389.562 414.382 379.528 417.969 379.359 417.749C379.19 417.529 389.274 413.553 401.693 408.883C414.112 404.213 424.264 400.609 424.349 400.846Z" fill="#7E57C2"/>
<path d="M426.904 441.335C426.988 441.555 416.989 445.531 404.553 450.201C392.117 454.871 381.982 458.458 381.897 458.238C381.812 458.018 391.829 454.042 404.248 449.372C416.667 444.702 426.751 441.098 426.904 441.335Z" fill="#7E57C2"/>
<path d="M429.323 481.824C428.835 482.137 428.313 482.392 427.766 482.585C426.751 483.025 425.262 483.634 423.435 484.362C419.746 485.834 414.654 487.746 409.002 489.928C403.351 492.111 398.207 493.921 394.468 495.241C392.607 495.901 391.084 496.426 390.035 496.764C389.495 496.991 388.925 497.139 388.343 497.204C388.828 496.886 389.351 496.63 389.9 496.442C390.915 496.003 392.387 495.393 394.231 494.75C397.903 493.278 403.013 491.367 408.664 489.184C414.315 487.001 419.459 485.174 423.198 483.871C425.059 483.211 426.582 482.687 427.631 482.348C428.165 482.088 428.735 481.911 429.323 481.824V481.824Z" fill="#7E57C2"/>
<path d="M440.879 518.861C439.247 519.74 437.55 520.492 435.803 521.111C432.589 522.397 428.139 524.123 423.215 525.984C418.291 527.846 413.791 529.47 410.542 530.603C408.808 531.308 407.02 531.874 405.196 532.295C406.825 531.411 408.522 530.659 410.271 530.045C413.469 528.742 417.919 527.016 422.86 525.172C427.8 523.328 432.267 521.687 435.533 520.553C437.264 519.839 439.053 519.273 440.879 518.861V518.861Z" fill="#7E57C2"/>
<path d="M465.633 552.836C464.177 553.646 462.654 554.331 461.082 554.883C458.222 556.034 454.314 557.574 449.881 559.232C445.448 560.89 441.421 562.328 438.578 563.326C437.033 563.952 435.436 564.444 433.807 564.798C435.259 563.98 436.782 563.294 438.358 562.751C441.201 561.6 445.126 560.061 449.559 558.403C453.992 556.744 458.019 555.306 460.862 554.291C462.406 553.665 464.002 553.178 465.633 552.836V552.836Z" fill="#7E57C2"/>
<path d="M506.765 575.119C505.305 575.919 503.783 576.598 502.213 577.15C499.354 578.317 495.445 579.857 491.012 581.498C486.58 583.139 482.553 584.594 479.71 585.61C478.166 586.236 476.569 586.723 474.939 587.065C476.395 586.255 477.918 585.57 479.49 585.017C482.35 583.867 486.258 582.327 490.691 580.669C495.124 579.011 499.151 577.573 501.993 576.574C503.534 575.939 505.132 575.451 506.765 575.119V575.119Z" fill="#7E57C2"/>
<path d="M630.82 488.71C630.922 488.93 618.08 494.92 602.141 502.094C586.203 509.268 573.191 514.885 573.09 514.665C572.988 514.445 585.831 508.456 601.854 501.282C617.877 494.108 630.719 488.49 630.82 488.71Z" fill="#7E57C2"/>
<path d="M639.246 454.025C639.348 454.245 628.739 459.219 615.559 465.141C602.378 471.063 591.617 475.699 591.516 475.479C591.414 475.259 602.006 470.268 615.204 464.346C628.401 458.424 639.145 453.805 639.246 454.025Z" fill="#7E57C2"/>
<path d="M643.121 415.058C643.223 415.278 632.614 420.253 619.433 426.175C606.253 432.097 595.492 436.733 595.39 436.513C595.289 436.293 605.881 431.301 619.078 425.38C632.275 419.458 643.019 414.754 643.121 415.058Z" fill="#7E57C2"/>
<path d="M646.995 376.075C647.097 376.295 636.505 381.287 623.308 387.209C610.11 393.13 599.366 397.75 599.265 397.53C599.163 397.31 609.772 392.335 622.953 386.413C636.133 380.491 646.86 375.838 646.995 376.075Z" fill="#7E57C2"/>
<path d="M650.887 337.109C650.972 337.329 640.38 342.32 627.199 348.242C614.019 354.164 603.258 358.783 603.156 358.563C603.055 358.343 613.664 353.369 626.844 347.43C640.025 341.491 650.786 336.923 650.887 337.109Z" fill="#7E57C2"/>
<path d="M643.121 302.407C643.223 302.627 632.614 307.618 619.433 313.54C606.253 319.462 595.492 324.081 595.39 323.861C595.289 323.641 605.881 318.65 619.078 312.728C632.275 306.806 643.019 302.187 643.121 302.407Z" fill="#7E57C2"/>
<path d="M643.121 265.048C643.223 265.268 632.614 270.259 619.433 276.181C606.253 282.103 595.492 286.722 595.39 286.502C595.289 286.282 605.881 281.291 619.078 275.369C632.275 269.447 643.019 264.828 643.121 265.048Z" fill="#7E57C2"/>
<path d="M639.246 229.872C639.348 230.092 628.739 235.066 615.559 240.988C602.378 246.91 591.617 251.546 591.516 251.326C591.414 251.106 602.006 246.115 615.204 240.193C628.401 234.271 639.145 229.652 639.246 229.872Z" fill="#7E57C2"/>
<path d="M605.83 205.355C601.184 207.929 596.4 210.245 591.499 212.292C586.714 214.602 581.805 216.647 576.796 218.417C581.435 215.831 586.22 213.515 591.127 211.48C595.912 209.17 600.82 207.125 605.83 205.355V205.355Z" fill="#7E57C2"/>
<path d="M587.963 190.347C583.312 192.907 578.528 195.217 573.631 197.267C568.847 199.577 563.938 201.622 558.928 203.392C563.575 200.83 568.359 198.526 573.259 196.489C578.044 194.173 582.952 192.123 587.963 190.347Z" fill="#7E57C2"/>
<path d="M421.286 270.784C421.371 271.004 411.371 274.98 398.952 279.65C386.533 284.32 376.381 287.923 376.296 287.687C376.212 287.45 386.211 283.491 398.647 278.821C411.083 274.151 421.201 270.564 421.286 270.784Z" fill="#7E57C2"/>
<path d="M433.671 220.295C433.773 220.515 422.91 224.796 409.459 229.872C396.008 234.948 384.993 238.839 384.909 238.619C384.824 238.399 395.67 234.102 409.138 229.043C422.606 223.984 433.671 220.058 433.671 220.295Z" fill="#7E57C2"/>
<path d="M466.276 170.314C466.36 170.551 452.604 175.915 435.549 182.327C418.494 188.74 404.603 193.748 404.518 193.528C404.434 193.308 418.19 187.911 435.245 181.498C452.3 175.086 466.191 170.094 466.276 170.314Z" fill="#7E57C2"/>
<path d="M706.604 489.201L705.893 488.964L703.863 488.169C702.966 487.847 701.799 487.593 700.479 487.221C698.898 486.913 697.298 486.716 695.691 486.629C688.466 486.172 677.637 488.795 667.164 496.645C661.494 500.941 656.414 505.964 652.055 511.586C647.199 517.524 642.444 524.242 637.047 531.009C631.555 538.269 624.981 544.643 617.555 549.909C609.425 555.392 600.239 559.115 590.585 560.839C580.931 562.578 571.018 562.249 561.5 559.875C552.715 557.571 544.18 554.403 536.019 550.416C528.151 546.779 520.791 543.073 513.786 540.011C507.272 537.133 500.51 534.851 493.584 533.192C487.874 531.843 482.024 531.173 476.157 531.196C471.728 531.23 467.322 531.826 463.044 532.972C460.354 533.762 457.738 534.786 455.227 536.035L453.298 537.05C453.085 537.182 452.858 537.29 452.622 537.371L453.248 536.982L455.143 535.882C457.631 534.554 460.244 533.471 462.943 532.651C467.24 531.438 471.676 530.784 476.14 530.705C482.054 530.629 487.955 531.259 493.72 532.583C500.678 534.222 507.474 536.487 514.023 539.351C521.096 542.397 528.456 546.119 536.307 549.706C544.437 553.651 552.938 556.779 561.686 559.046C571.099 561.396 580.903 561.719 590.45 559.993C599.984 558.287 609.059 554.617 617.098 549.215C624.469 544.01 630.997 537.704 636.455 530.519C641.852 523.751 646.606 517.085 651.53 511.129C655.927 505.491 661.047 500.457 666.758 496.155C677.384 488.304 688.364 485.732 695.674 486.308C697.3 486.414 698.917 486.635 700.513 486.967C701.866 487.39 703.034 487.661 703.897 488.016L705.91 488.896L706.604 489.201Z" fill="white"/>
<path d="M717.28 376.346C717.28 376.431 716.079 376.583 713.981 377.277C711.063 378.344 708.312 379.82 705.808 381.659C702.594 383.909 699.04 387.056 694.963 390.305C690.463 393.815 685.589 396.817 680.429 399.255C671.065 403.744 660.915 406.365 650.548 406.971C648.569 407.14 646.759 407.089 645.185 407.123C643.611 407.157 642.258 407.022 641.158 406.937L638.603 406.683C638.309 406.679 638.018 406.627 637.74 406.531C638.032 406.49 638.328 406.49 638.62 406.531L641.175 406.616H645.185C646.759 406.531 648.569 406.616 650.498 406.345C660.753 405.553 670.774 402.875 680.057 398.443C685.155 396.021 689.987 393.072 694.472 389.645C698.584 386.464 702.154 383.334 705.47 381.185C708.055 379.355 710.909 377.939 713.93 376.989C714.752 376.755 715.588 376.574 716.434 376.448C716.709 376.37 716.994 376.336 717.28 376.346V376.346Z" fill="white"/>
<path d="M496.274 415.549C495.966 415.535 495.66 415.49 495.361 415.414C494.752 415.278 493.855 415.143 492.721 414.822C489.544 413.881 486.497 412.545 483.652 410.845C479.48 408.284 475.519 405.393 471.809 402.199C467.562 398.68 463.027 394.67 457.833 391.083C452.983 387.656 447.538 385.16 441.776 383.723C433.859 381.774 425.583 381.809 417.682 383.825C415.432 384.4 414.214 384.84 414.197 384.755C414.458 384.584 414.743 384.453 415.043 384.366C415.618 384.146 416.464 383.808 417.598 383.486C420.767 382.559 424.03 381.991 427.327 381.794C432.238 381.431 437.176 381.837 441.962 382.996C447.835 384.42 453.385 386.94 458.324 390.423C463.586 394.061 468.12 398.105 472.333 401.641C475.989 404.845 479.88 407.769 483.974 410.389C486.759 412.106 489.727 413.508 492.823 414.568C493.99 414.834 495.142 415.161 496.274 415.549V415.549Z" fill="white"/>
<path d="M496.562 255.607C495.651 256.03 494.706 256.375 493.736 256.639C492.626 257.03 491.497 257.363 490.352 257.637C489.016 257.976 487.51 258.432 485.801 258.737C484.092 259.041 482.248 259.464 480.218 259.718C478.187 259.972 476.038 260.209 473.754 260.412C468.793 260.727 463.816 260.664 458.865 260.226C453.917 259.731 449.014 258.866 444.195 257.637C441.996 257.011 439.881 256.436 437.969 255.742C436.057 255.048 434.263 254.405 432.673 253.746C431.083 253.086 429.661 252.392 428.409 251.817C427.157 251.241 426.125 250.683 425.279 250.209C424.384 249.763 423.524 249.248 422.707 248.67C423.644 249.015 424.554 249.428 425.431 249.905C426.294 250.328 427.36 250.852 428.612 251.377C429.864 251.901 431.286 252.578 432.91 253.153C434.534 253.729 436.294 254.456 438.206 255.048C440.118 255.641 442.199 256.25 444.398 256.842C453.968 259.255 463.852 260.185 473.703 259.6C475.971 259.414 478.119 259.295 480.133 258.991C482.146 258.686 483.991 258.432 485.683 258.128C487.375 257.823 488.88 257.451 490.217 257.163C491.554 256.876 492.704 256.571 493.601 256.317C494.57 256.01 495.559 255.772 496.562 255.607V255.607Z" fill="white"/>
<path d="M707.67 255.184C707.42 255.092 707.182 254.973 706.959 254.828L704.996 253.695C703.978 253.075 702.928 252.51 701.849 252.003C700.459 251.257 699.03 250.585 697.569 249.989L695.031 248.923C694.134 248.568 693.186 248.297 692.205 247.959C690.276 247.248 688.127 246.758 685.877 246.166C676.04 243.927 665.836 243.841 655.963 245.912C653.815 246.367 651.691 246.931 649.601 247.604C648.62 247.925 647.655 248.179 646.759 248.517L644.204 249.533C642.734 250.108 641.294 250.757 639.889 251.478C638.799 251.974 637.743 252.539 636.725 253.17L634.729 254.27C634.272 254.507 634.018 254.625 634.001 254.592C634.194 254.406 634.41 254.247 634.644 254.118L636.539 252.866C637.541 252.199 638.587 251.6 639.669 251.072C641.059 250.292 642.494 249.597 643.967 248.991L646.522 247.908C647.419 247.553 648.4 247.282 649.381 246.944C651.485 246.234 653.625 245.641 655.794 245.167C665.775 242.978 676.123 243.071 686.063 245.438C688.331 246.047 690.496 246.572 692.442 247.316C693.423 247.671 694.388 247.959 695.268 248.348L697.823 249.465C699.279 250.109 700.702 250.826 702.086 251.614C703.152 252.167 704.181 252.788 705.166 253.475L707.061 254.761C707.484 254.981 707.771 255.15 707.67 255.184Z" fill="white"/>
<path d="M604.222 140.248C603.842 140.535 603.434 140.785 603.004 140.992L599.485 142.938C596.355 144.63 591.82 146.982 586.135 149.824C574.799 155.425 558.877 163.09 540.029 167.861C531.167 170.088 522.09 171.348 512.957 171.617C505.503 171.835 498.049 171.193 490.742 169.705C485.816 168.716 481 167.249 476.36 165.323C474.668 164.68 473.5 164.003 472.654 163.631C472.216 163.442 471.792 163.222 471.385 162.971C471.848 163.091 472.296 163.261 472.722 163.479C473.602 163.8 474.82 164.426 476.495 165.018C481.151 166.812 485.959 168.182 490.86 169.113C498.134 170.502 505.54 171.07 512.94 170.805C522 170.49 531.002 169.214 539.792 166.998C558.522 162.261 574.461 154.731 585.848 149.266L599.383 142.617L602.869 140.823C603.307 140.602 603.759 140.41 604.222 140.248Z" fill="white"/>
<path d="M321.054 235.861C320.771 236.27 320.441 236.645 320.072 236.978C319.115 238.029 318.092 239.018 317.01 239.939C313.063 243.385 308.634 246.235 303.863 248.399C296.747 251.597 289.058 253.323 281.258 253.475C276.648 253.56 272.046 253.042 267.57 251.935C262.792 250.711 258.158 248.981 253.747 246.775C244.644 242.342 236.556 237.113 228.655 233.476C221.729 230.08 214.192 228.113 206.49 227.689C201.301 227.423 196.123 228.392 191.381 230.515C190.102 231.114 188.874 231.816 187.709 232.613C187.311 232.907 186.893 233.173 186.457 233.408C186.818 233.071 187.203 232.76 187.608 232.477C188.744 231.614 189.956 230.855 191.228 230.21C195.975 227.943 201.2 226.863 206.456 227.063C214.267 227.434 221.919 229.397 228.943 232.833C236.929 236.471 245.05 241.682 254.068 246.081C258.437 248.244 263.018 249.945 267.739 251.157C272.137 252.253 276.659 252.776 281.191 252.713C294.18 252.535 306.717 247.92 316.722 239.635C318.16 238.484 319.176 237.469 319.886 236.809C320.25 236.463 320.64 236.146 321.054 235.861Z" fill="white"/>
<path d="M297.501 152.21C296.819 152.684 296.101 153.102 295.352 153.462C293.948 154.224 291.85 155.154 289.21 156.339C286.117 157.64 282.953 158.769 279.735 159.723C271.851 162.076 263.696 163.407 255.472 163.682C252.087 163.805 248.698 163.737 245.321 163.479C242.461 163.259 240.245 162.988 238.553 162.7C237.728 162.608 236.913 162.444 236.116 162.21C236.948 162.181 237.781 162.232 238.603 162.362C240.177 162.548 242.478 162.717 245.371 162.853C248.265 162.988 251.615 163.022 255.371 162.853C259.44 162.651 263.495 162.233 267.519 161.601C271.511 160.915 275.464 160.023 279.363 158.927C282.967 157.878 286.131 156.795 288.821 155.746C291.511 154.697 293.593 153.801 295.048 153.141C295.834 152.753 296.656 152.442 297.501 152.21V152.21Z" fill="white"/>
<path d="M177.371 340.121C176.813 339.604 176.304 339.038 175.848 338.429L171.855 333.658C167.398 328.471 162.665 323.529 157.677 318.853C154.968 316.284 151.99 314.015 148.794 312.085C146.179 310.521 143.319 309.411 140.334 308.802C137.564 308.308 134.728 308.308 131.958 308.802C131.958 308.802 132.145 308.701 132.517 308.582C133.067 308.4 133.634 308.27 134.209 308.193C136.287 307.844 138.408 307.844 140.486 308.193C143.569 308.73 146.532 309.813 149.234 311.391C152.518 313.328 155.567 315.638 158.319 318.278C163.344 322.965 168.037 327.997 172.363 333.336C174.055 335.383 175.307 337.092 176.153 338.277C176.623 338.846 177.032 339.465 177.371 340.121V340.121Z" fill="white"/>
<path d="M312.34 391.235C312.34 391.235 312.12 391.439 311.68 391.743C311.24 392.048 310.58 392.538 309.666 393.046C307.126 394.535 304.459 395.798 301.697 396.819C292.547 400.275 282.605 401.068 273.023 399.106C263.441 397.145 254.611 392.509 247.554 385.737C245.415 383.727 243.466 381.524 241.734 379.155C241.108 378.326 240.702 377.632 240.397 377.175C240.092 376.718 239.957 376.465 239.991 376.448C240.707 377.245 241.379 378.081 242.004 378.952C243.833 381.208 245.83 383.324 247.977 385.28C255.04 391.807 263.754 396.278 273.175 398.208C282.597 400.137 292.366 399.452 301.427 396.227C304.17 395.276 306.835 394.11 309.396 392.741C310.349 392.186 311.332 391.683 312.34 391.235Z" fill="white"/>
<path d="M361.627 498.371C361.627 498.371 361.458 498.117 361.153 497.576C360.849 497.035 360.375 496.256 359.8 495.241C358.102 492.232 356.167 489.364 354.013 486.663L351.712 483.956L350.477 482.484L349.039 481.079L345.993 478.068L342.44 475.124C336.765 470.615 330.504 466.898 323.828 464.075C315.769 460.667 307.185 458.669 298.449 458.17C288.393 457.631 278.338 459.246 268.958 462.907C259.06 466.799 249.5 472.67 239.382 478.355C234.258 481.316 228.951 483.949 223.494 486.24C217.839 488.621 211.875 490.188 205.779 490.893C199.68 491.507 193.521 491.135 187.54 489.793C181.75 488.519 176.116 486.619 170.739 484.125C160.664 479.251 151.078 473.426 142.11 466.731C133.43 460.556 125.191 454.583 117.052 449.812C109.57 445.229 101.459 441.764 92.9754 439.524C85.9458 437.794 78.6666 437.312 71.4704 438.103C66.0373 438.667 60.7486 440.197 55.8534 442.621C52.791 444.189 49.9469 446.152 47.3935 448.458L45.4309 450.285C45.0079 450.708 44.771 450.911 44.771 450.911C44.771 450.911 44.9571 450.674 45.3801 450.218L47.2244 448.238C49.762 445.865 52.6075 443.845 55.6842 442.232C60.6031 439.728 65.9339 438.135 71.4196 437.528C78.6758 436.676 86.0254 437.118 93.1276 438.831C101.679 441.058 109.863 444.512 117.424 449.084C125.664 453.855 133.887 459.811 142.584 466.004C151.519 472.648 161.065 478.426 171.094 483.262C176.408 485.754 181.98 487.655 187.709 488.93C193.608 490.249 199.68 490.614 205.695 490.013C211.695 489.317 217.568 487.779 223.139 485.445C228.561 483.163 233.838 480.553 238.942 477.628C249.094 471.96 258.637 466.071 268.619 462.163C271.082 461.196 273.602 460.382 276.165 459.727C277.434 459.405 278.687 459.016 279.939 458.762L283.729 458.136C288.6 457.41 293.532 457.184 298.449 457.459C307.289 457.986 315.973 460.036 324.116 463.517C330.797 466.408 337.057 470.187 342.728 474.751C343.946 475.783 345.13 476.799 346.281 477.746L349.31 480.809L350.731 482.23C351.154 482.737 351.577 483.228 351.966 483.719C352.778 484.683 353.539 485.597 354.25 486.477C356.387 489.206 358.284 492.116 359.918 495.173C360.471 496.211 360.894 497.006 361.187 497.559C361.509 498.084 361.627 498.371 361.627 498.371Z" fill="white"/>
<path d="M310.496 569.045C310.219 569.156 309.929 569.23 309.633 569.265L307.129 569.739C305.814 570.004 304.487 570.202 303.152 570.331C301.596 570.483 299.768 570.737 297.84 570.788L294.726 570.923C293.66 570.923 292.527 570.923 291.342 570.923C289.024 570.923 286.537 570.703 283.932 570.5C278.284 569.883 272.699 568.796 267.232 567.252C261.791 565.614 256.494 563.531 251.395 561.025C249.094 559.79 246.877 558.656 244.915 557.387C243.933 556.778 242.952 556.22 242.055 555.695L239.517 553.919C237.825 552.819 236.522 551.652 235.287 550.67C234.22 549.852 233.198 548.977 232.225 548.048C231.497 547.337 230.871 546.762 230.381 546.356C230.151 546.162 229.946 545.94 229.771 545.696C230.034 545.842 230.278 546.018 230.499 546.22L232.462 547.912C233.291 548.623 234.323 549.486 235.592 550.4C236.861 551.313 238.214 552.464 239.873 553.53L242.427 555.222C243.324 555.814 244.306 556.355 245.287 556.914C247.25 558.149 249.466 559.249 251.767 560.45C261.886 565.438 272.801 568.616 284.016 569.84C286.605 570.06 289.092 570.331 291.376 570.348C292.527 570.348 293.644 570.449 294.76 570.348H297.84C299.802 570.348 301.579 570.128 303.136 570.026C304.692 569.925 306.029 569.756 307.112 569.587L309.633 569.282C309.907 569.161 310.198 569.081 310.496 569.045Z" fill="white"/>
<path d="M1027.23 230.599C1027 231.035 1026.73 231.448 1026.42 231.835C1025.62 233.018 1024.75 234.149 1023.8 235.218C1020.38 239.2 1016.38 242.654 1011.95 245.472C1005.37 249.673 998.003 252.494 990.297 253.763C985.749 254.49 981.124 254.621 976.542 254.152C971.638 253.611 966.805 252.551 962.126 250.988C952.482 247.891 943.751 243.848 935.41 241.343C928.076 238.984 920.344 238.116 912.67 238.789C907.494 239.261 902.503 240.948 898.102 243.712C896.911 244.489 895.779 245.355 894.718 246.301C894.377 246.658 894.004 246.981 893.601 247.265C893.902 246.876 894.236 246.514 894.599 246.182C895.603 245.167 896.696 244.244 897.865 243.425C902.261 240.508 907.302 238.707 912.551 238.179C920.332 237.362 928.197 238.145 935.664 240.481C944.123 242.968 952.854 246.978 962.397 250.074C967.025 251.61 971.799 252.664 976.643 253.221C981.152 253.682 985.701 253.563 990.179 252.866C997.787 251.656 1005.08 248.934 1011.62 244.863C1016 242.109 1019.99 238.761 1023.46 234.914C1024.43 233.881 1025.34 232.796 1026.18 231.665C1026.51 231.286 1026.86 230.929 1027.23 230.599V230.599Z" fill="white"/>
<path d="M992.141 151.093C991.541 151.665 990.889 152.18 990.196 152.633C988.91 153.598 986.981 154.867 984.527 156.339C981.649 158.063 978.678 159.628 975.628 161.025C971.881 162.719 968.039 164.193 964.122 165.441C960.19 166.651 956.19 167.629 952.143 168.369C948.839 168.947 945.507 169.354 942.16 169.587C939.301 169.773 936.983 169.807 935.393 169.756C934.56 169.791 933.727 169.74 932.905 169.604C933.721 169.464 934.548 169.402 935.376 169.418C936.966 169.418 939.267 169.215 942.143 168.961C945.02 168.707 948.336 168.25 952.025 167.573C956.02 166.788 959.973 165.799 963.868 164.612C967.755 163.374 971.574 161.928 975.306 160.281C978.69 158.741 981.753 157.218 984.223 155.797C986.693 154.376 988.673 153.208 990.009 152.413C990.68 151.912 991.394 151.471 992.141 151.093V151.093Z" fill="white"/>
<path d="M899.641 354.029C899.034 353.584 898.468 353.085 897.949 352.54L893.313 348.395C888.176 343.883 882.799 339.653 877.206 335.722C874.161 333.534 870.888 331.685 867.443 330.206C864.636 329.028 861.65 328.335 858.611 328.159C855.798 328.041 852.986 328.419 850.303 329.275C850.303 329.275 850.472 329.14 850.828 328.971C851.341 328.727 851.873 328.523 852.418 328.362C854.433 327.74 856.537 327.459 858.645 327.533C861.769 327.631 864.852 328.284 867.747 329.461C871.266 330.915 874.605 332.772 877.696 334.994C883.336 338.933 888.695 343.258 893.736 347.938C895.665 349.731 897.12 351.322 898.186 352.303C898.735 352.821 899.223 353.4 899.641 354.029V354.029Z" fill="white"/>
<path d="M1040.45 385.669C1040.45 385.669 1040.28 385.889 1039.87 386.261C1039.47 386.633 1038.89 387.192 1038.06 387.818C1035.77 389.659 1033.32 391.284 1030.74 392.674C1022.16 397.357 1012.44 399.524 1002.69 398.925C992.944 398.326 983.562 394.986 975.628 389.29C973.234 387.599 971.002 385.69 968.961 383.588C968.217 382.86 967.709 382.234 967.269 381.896C967.068 381.696 966.897 381.468 966.762 381.219C966.762 381.219 967.608 381.997 969.114 383.419C971.226 385.401 973.488 387.217 975.881 388.85C983.783 394.331 993.035 397.543 1002.63 398.14C1012.23 398.736 1021.81 396.694 1030.33 392.234C1032.91 390.904 1035.39 389.377 1037.74 387.665C1038.6 386.95 1039.51 386.283 1040.45 385.669V385.669Z" fill="white"/>
<path d="M1104.34 484.785C1104.11 484.578 1103.89 484.358 1103.69 484.125C1103.29 483.634 1102.75 482.924 1102 482.01C1099.89 479.273 1097.57 476.705 1095.06 474.328L1092.39 471.96L1090.97 470.691L1089.28 469.489L1085.89 466.951L1081.95 464.532C1075.72 460.867 1069.01 458.066 1062.02 456.207C1053.55 453.946 1044.75 453.156 1036.01 453.872C1025.98 454.759 1016.26 457.776 1007.49 462.721C998.233 467.967 989.603 475.124 980.416 482.179C975.754 485.821 970.872 489.172 965.797 492.212C960.522 495.365 954.825 497.752 948.878 499.302C942.92 500.755 936.769 501.252 930.655 500.774C924.734 500.286 918.885 499.151 913.211 497.39C902.553 493.994 892.246 489.58 882.434 484.209C872.959 479.303 864.008 474.565 855.244 470.995C847.155 467.525 838.606 465.246 829.864 464.227C822.658 463.528 815.384 464.1 808.376 465.919C803.078 467.24 798.058 469.498 793.554 472.586C790.732 474.578 788.174 476.92 785.94 479.557L784.333 481.722C783.961 482.213 783.758 482.45 783.758 482.45C783.758 482.45 783.91 482.179 784.248 481.671L785.805 479.455C787.984 476.743 790.523 474.341 793.351 472.315C797.859 469.133 802.911 466.805 808.258 465.445C815.32 463.576 822.659 462.975 829.932 463.669C838.714 464.679 847.303 466.959 855.43 470.437C864.262 473.99 873.246 478.727 882.721 483.6C892.498 488.925 902.758 493.31 913.363 496.696C918.981 498.405 924.767 499.5 930.621 499.962C936.645 500.439 942.705 499.948 948.573 498.507C954.418 496.972 960.018 494.62 965.205 491.519C970.254 488.505 975.108 485.176 979.739 481.553C988.944 474.531 997.623 467.357 1006.96 462.078C1009.27 460.777 1011.65 459.618 1014.1 458.61C1015.3 458.102 1016.47 457.561 1017.69 457.121L1021.34 455.97C1026.07 454.566 1030.92 453.642 1035.83 453.213C1044.65 452.502 1053.54 453.315 1062.09 455.615C1069.12 457.508 1075.86 460.354 1082.12 464.075L1086.06 466.528L1089.45 469.134L1091.14 470.335L1092.56 471.638L1095.22 474.041C1097.68 476.459 1099.94 479.073 1101.98 481.858C1102.66 482.805 1103.2 483.55 1103.57 484.04L1104.34 484.785Z" fill="white"/>
<path d="M1063.63 561.956C1063.37 562.095 1063.1 562.208 1062.82 562.294L1060.41 563.123C1059.15 563.565 1057.86 563.944 1056.55 564.257C1055.02 564.629 1053.31 565.137 1051.34 565.458L1048.3 566.033C1047.23 566.219 1046.12 566.321 1044.91 566.473C1042.61 566.812 1040.13 566.93 1037.5 567.099C1031.85 567.271 1026.19 566.982 1020.58 566.236C1014.97 565.385 1009.43 564.06 1004.04 562.277C1001.57 561.397 999.214 560.585 997.099 559.604C996.033 559.13 994.984 558.724 994.019 558.25L991.261 556.846C989.468 555.983 987.962 555.019 986.609 554.223C985.443 553.562 984.313 552.839 983.225 552.058L981.143 550.586C980.89 550.43 980.656 550.242 980.45 550.027C980.732 550.125 981 550.262 981.245 550.433L983.411 551.77C984.324 552.362 985.475 553.073 986.795 553.8C988.114 554.528 989.671 555.492 991.464 556.288L994.239 557.624C995.204 558.098 996.253 558.487 997.319 558.944C999.434 559.875 1001.77 560.636 1004.22 561.516C1009.63 563.235 1015.17 564.514 1020.79 565.34C1026.36 566.094 1031.99 566.405 1037.62 566.27C1040.21 566.118 1042.7 566.05 1044.96 565.729C1046.1 565.593 1047.22 565.509 1048.35 565.34L1051.39 564.832C1053.34 564.561 1055.05 564.088 1056.59 563.766C1058.13 563.445 1059.41 563.089 1060.46 562.768L1062.92 562.108C1063.15 562.032 1063.39 561.981 1063.63 561.956Z" fill="white"/>
<path d="M711.291 314.149L699.447 312.288L626.066 288.6L583.157 276.198C577.129 274.024 570.715 273.126 564.321 273.563C557.928 274 551.695 275.762 546.018 278.736C525.715 289.057 469.778 341.136 469.778 341.136L510.064 382.674L491.097 466.731C512.331 527.101 553.903 534.021 553.903 534.021C574.223 534.888 594.502 531.535 613.461 524.174C652.055 509.505 692.543 474.971 697.619 460.133C700.665 451.233 703.186 432.52 705.183 411.387L766.297 386.481L782.861 301.882L711.291 314.149Z" fill="#455A64"/>
<path d="M622.022 463.821C622.022 463.821 621.836 464.024 621.43 464.346C621.024 464.667 620.432 465.158 619.603 465.699C617.292 467.255 614.832 468.575 612.259 469.642C603.696 473.29 594.21 474.184 585.115 472.202C576.021 470.219 567.768 465.457 561.5 458.576C559.592 456.527 557.891 454.294 556.424 451.91C555.9 451.081 555.578 450.387 555.324 449.93C555.191 449.706 555.084 449.467 555.003 449.219C555.618 450.019 556.183 450.855 556.695 451.724C558.242 454.009 559.986 456.154 561.906 458.136C568.169 464.783 576.293 469.382 585.215 471.333C594.136 473.283 603.439 472.493 611.904 469.066C614.471 468.06 616.945 466.832 619.298 465.395C621.091 464.329 621.971 463.72 622.022 463.821Z" fill="#263238"/>
<path d="M598.808 292.103C598.876 292.229 598.922 292.367 598.943 292.509C599.028 292.83 599.13 293.219 599.248 293.71C599.502 294.759 599.857 296.333 600.28 298.346C601.533 304.045 602.341 309.831 602.7 315.655C602.916 319.695 602.683 323.747 602.006 327.736C601.187 332.336 599.554 336.754 597.184 340.781C594.438 345.134 591.056 349.052 587.15 352.405C583.174 355.958 578.775 359.173 574.291 362.658C564.749 369.815 555.477 376.295 547.22 382.183C538.963 388.071 531.603 393.333 525.749 397.766L525.563 397.919L525.376 397.766C521.246 394.49 517.324 390.958 513.634 387.192C512.636 386.178 511.714 385.092 510.876 383.943C510.589 383.554 510.419 383.232 510.284 383.029C510.215 382.921 510.153 382.808 510.098 382.691C510.098 382.691 510.419 383.097 511.012 383.842C511.902 384.936 512.851 385.981 513.854 386.972C517.618 390.623 521.571 394.074 525.698 397.31H525.326C531.146 392.809 538.422 387.445 546.712 381.54C555.003 375.635 564.241 369.121 573.784 361.964C578.251 358.58 582.65 355.281 586.592 351.812C590.444 348.523 593.785 344.68 596.507 340.409C598.853 336.483 600.475 332.167 601.295 327.668C601.997 323.727 602.263 319.722 602.091 315.723C601.788 309.927 601.076 304.16 599.959 298.464C599.586 296.485 599.299 294.928 599.079 293.795C598.989 293.31 598.921 292.904 598.876 292.576C598.824 292.424 598.801 292.263 598.808 292.103V292.103Z" fill="#263238"/>
<path d="M917.458 330.155C934.631 315.418 940.451 288.905 930.993 268.347L906.798 265.86C912.887 262.505 917.821 257.388 920.952 251.181C924.083 244.973 925.265 237.964 924.344 231.073C917.649 238.001 908.957 242.662 899.483 244.407C890.009 246.151 880.226 244.891 871.504 240.802C860.201 235.218 851.031 224.813 838.612 222.63C827.343 220.651 816.261 226.014 805.466 229.77C794.671 233.526 781.609 235.709 772.675 228.552C765.603 222.884 763.403 212.952 763.86 203.883C764.317 194.814 766.939 185.982 767.498 176.93C767.902 168.023 766.357 159.136 762.97 150.889C759.583 142.642 754.436 135.234 747.888 129.182C745.698 121.976 741.789 115.41 736.498 110.05C731.207 104.689 724.692 100.696 717.514 98.4134C710.336 96.1307 702.711 95.6273 695.296 96.9464C687.881 98.2655 680.897 101.368 674.947 105.985C669.651 110.08 665.184 115.376 659.178 118.337C652.41 121.721 644.508 121.721 637.182 123.413C629.856 125.105 622.123 130.079 621.345 137.608L618.384 153.022C617.893 154.122 617.369 155.205 616.692 156.271C610.466 167.201 597.708 174.392 594.916 186.726C593.36 193.613 595.289 201.074 592.971 207.741C589.908 216.522 580.433 221.463 576.051 229.635C569.994 240.87 574.105 260.547 583.8 268.838C593.495 277.129 613.477 285.927 625.964 288.583C629.348 275.606 632.343 261.732 635.236 247.536C640.312 252.426 645.676 257.079 650.988 261.698C664.88 273.779 679.075 286.045 688.719 301.73C707.044 331.56 707.331 371.101 730.427 397.394C734.944 402.555 740.443 407.14 747.008 409.137C753.573 411.133 761.356 410.067 766.212 405.228C771.948 399.509 772.692 389.865 779.037 384.84C787.497 378.157 799.781 383.486 808.833 389.29C815.398 393.486 821.962 397.919 829.39 400.22C836.818 402.521 845.481 402.369 851.809 397.834C858.137 393.3 860.912 383.622 856.343 377.311C854.516 374.789 851.792 373.03 849.982 370.543C848.171 368.055 847.647 363.995 850.134 362.083C852.621 360.171 856.699 362.083 859.66 363.775C866.924 368.044 875.048 370.642 883.441 371.379C891.834 372.116 900.287 370.974 908.184 368.037C916.081 365.099 923.225 360.44 929.096 354.396C934.967 348.353 939.418 341.078 942.127 333.099C933.788 334.347 925.268 333.33 917.458 330.155V330.155Z" fill="#263238"/>
<path d="M902.349 197.42C903.123 197.983 903.853 198.605 904.531 199.281C906.573 201.181 908.288 203.405 909.607 205.863C910.523 207.654 911.151 209.578 911.468 211.565C911.857 214.138 911.496 216.77 910.428 219.144C909.36 221.517 907.629 223.533 905.445 224.948C904.16 225.781 902.701 226.307 901.181 226.488C899.57 226.659 897.942 226.426 896.444 225.811C890.166 223.239 887.002 215.981 880.217 212.749C873.602 209.247 865.142 209.01 857.021 210.871C848.899 212.732 840.964 217.148 832.961 221.649C824.958 226.149 816.447 230.972 806.65 232.647C801.841 233.578 796.895 233.544 792.099 232.545C789.744 232.008 787.469 231.166 785.332 230.041C783.256 228.904 781.344 227.493 779.647 225.845C776.421 222.565 773.94 218.63 772.371 214.306C770.835 210.202 769.823 205.922 769.359 201.565C768.463 193.105 769.173 184.984 769.258 177.488C769.596 170.533 768.906 163.566 767.21 156.812C766.404 153.896 765.322 151.064 763.979 148.352C762.803 145.914 761.428 143.577 759.867 141.365C757.393 137.807 754.489 134.567 751.221 131.72C749.141 129.933 746.929 128.304 744.606 126.847L742.761 125.748L742.152 125.359C742.382 125.444 742.603 125.551 742.812 125.68L744.707 126.695C750.859 130.336 756.165 135.245 760.273 141.094C763.659 145.812 766.206 151.077 767.803 156.66C769.568 163.46 770.303 170.487 769.985 177.505C769.985 185.051 769.258 193.105 770.171 201.48C770.632 205.761 771.627 209.967 773.132 214.001C774.67 218.207 777.093 222.032 780.239 225.219C781.871 226.818 783.716 228.184 785.721 229.28C787.784 230.352 789.972 231.165 792.235 231.699C796.921 232.658 801.75 232.687 806.447 231.784C816.058 230.092 824.484 225.371 832.487 220.887C840.49 216.404 848.391 211.988 856.784 210.076C860.844 209.119 865.023 208.765 869.186 209.027C871.18 209.166 873.156 209.489 875.091 209.991C876.967 210.498 878.782 211.207 880.505 212.106C887.527 215.49 890.657 222.833 896.63 225.219C897.992 225.799 899.477 226.035 900.953 225.905C902.428 225.775 903.849 225.284 905.089 224.474C907.364 223.04 909.137 220.936 910.165 218.451C911.056 216.314 911.349 213.974 911.011 211.683C910.752 209.738 910.18 207.847 909.319 206.083C908.068 203.643 906.448 201.411 904.514 199.467C903.854 198.79 903.33 198.3 902.975 197.978C902.619 197.657 902.349 197.42 902.349 197.42Z" fill="#263238"/>
<path d="M625.795 295.081C625.795 295.081 625.795 294.827 625.66 294.319C625.571 293.569 625.418 292.827 625.203 292.103C624.424 289.3 623.005 286.717 621.058 284.556C617.915 281.189 614.091 278.53 609.84 276.756C604.933 274.506 598.842 273.373 592.176 272.154C585.509 270.936 577.946 269.481 571.144 264.946C567.368 262.395 564.195 259.048 561.85 255.14C559.505 251.232 558.044 246.858 557.57 242.325C557.096 237.792 557.62 233.211 559.106 228.902C560.592 224.593 563.003 220.662 566.17 217.385C573.175 210.194 583.09 206.624 591.177 200.313C593.16 198.723 594.944 196.899 596.49 194.882C597.945 192.824 599.043 190.536 599.739 188.114C601.092 183.309 600.974 178.284 601.431 173.394C601.615 170.943 602.069 168.52 602.784 166.169C603.535 163.84 604.75 161.688 606.354 159.841C609.681 156.506 613.869 154.163 618.452 153.073C622.8 151.804 627.132 151.009 631.209 149.892C635.197 148.874 638.973 147.155 642.36 144.816C645.484 142.604 648.291 139.974 650.701 136.999C652.96 134.334 655.067 131.543 657.012 128.641C660.751 122.99 663.949 117.694 667.35 113.413C670.165 109.718 673.486 106.438 677.214 103.667C679.584 101.928 682.218 100.58 685.014 99.6744C685.976 99.3365 686.968 99.0873 687.975 98.9299C687.975 98.9299 686.943 99.1668 685.065 99.8436C682.318 100.81 679.738 102.197 677.417 103.955C673.751 106.742 670.494 110.028 667.739 113.718C664.355 117.948 661.242 123.227 657.587 128.946C655.664 131.951 653.562 134.838 651.293 137.592C648.849 140.625 646.003 143.312 642.833 145.578C639.382 147.922 635.545 149.64 631.497 150.654C627.369 151.804 623.037 152.599 618.756 153.868C614.323 154.906 610.268 157.162 607.048 160.382C605.527 162.143 604.376 164.191 603.664 166.406C602.971 168.697 602.534 171.057 602.361 173.444C601.904 178.284 602.04 183.343 600.669 188.334C599.945 190.833 598.8 193.19 597.285 195.305C595.691 197.381 593.85 199.256 591.803 200.888C587.66 203.94 583.313 206.704 578.792 209.162C574.483 211.541 570.502 214.47 566.948 217.876C563.862 221.067 561.51 224.895 560.059 229.091C558.607 233.287 558.09 237.75 558.545 242.166C558.999 246.583 560.414 250.847 562.69 254.659C564.966 258.471 568.048 261.74 571.72 264.236C578.318 268.686 585.831 270.107 592.446 271.444C599.062 272.78 605.238 273.88 610.178 276.198C614.475 278.026 618.325 280.762 621.464 284.218C623.411 286.437 624.803 289.087 625.524 291.95C625.719 292.687 625.844 293.441 625.897 294.201C625.795 294.827 625.795 295.081 625.795 295.081Z" fill="#263238"/>
<path d="M760.882 143.192C760.438 143.148 760.004 143.034 759.596 142.854C758.44 142.476 757.31 142.024 756.212 141.5C748.887 138.05 742.635 132.676 738.125 125.951C737.448 124.94 736.832 123.889 736.281 122.804C736.039 122.424 735.862 122.006 735.756 121.569C735.875 121.569 736.839 123.125 738.633 125.579C743.33 131.997 749.437 137.253 756.483 140.942C759.173 142.346 760.95 143.057 760.882 143.192Z" fill="#455A64"/>
<path d="M817.141 258.602C817.141 258.602 816.075 258.331 814.163 257.925C811.456 257.352 808.705 257.013 805.94 256.91C801.842 256.798 797.741 256.917 793.656 257.265C789.02 257.586 783.91 258.06 778.513 257.942C773.402 257.942 768.335 256.989 763.573 255.133C759.706 253.518 756.274 251.014 753.556 247.824C751.733 245.669 750.42 243.13 749.715 240.396C749.531 239.658 749.412 238.905 749.36 238.146C749.323 237.882 749.323 237.614 749.36 237.35C749.462 237.35 749.512 238.433 750.054 240.311C750.878 242.935 752.244 245.356 754.064 247.418C756.763 250.472 760.134 252.858 763.911 254.389C768.589 256.154 773.547 257.06 778.547 257.062C783.876 257.18 788.969 256.74 793.622 256.453C797.737 256.132 801.868 256.076 805.991 256.284C808.784 256.446 811.556 256.883 814.264 257.586C814.997 257.781 815.72 258.013 816.43 258.28C816.682 258.349 816.922 258.457 817.141 258.602V258.602Z" fill="#455A64"/>
<path d="M916.849 335.536C916.849 335.536 916.697 335.536 916.358 335.756C915.876 335.975 915.371 336.14 914.852 336.246C912.843 336.675 910.758 336.582 908.795 335.976C905.709 334.984 902.917 333.24 900.674 330.9C897.825 327.696 895.609 323.981 894.143 319.953C892.298 315.621 890.759 310.647 887.73 306.045C886.202 303.661 884.402 301.464 882.366 299.497C880.172 297.44 877.767 295.62 875.193 294.065C864.567 287.653 850.608 285.03 836.277 285.876C821.946 286.722 808.461 289.429 795.991 290.292C784.934 291.477 773.75 290.324 763.167 286.908C756.006 284.581 749.535 280.511 744.335 275.064C743.529 274.216 742.778 273.317 742.085 272.374C741.544 271.709 741.058 271.002 740.63 270.259C740.291 269.701 740.021 269.244 739.801 268.906C739.696 268.76 739.61 268.6 739.547 268.432C739.547 268.432 739.682 268.567 739.885 268.855L740.765 270.158C741.229 270.871 741.738 271.555 742.288 272.205C742.997 273.128 743.766 274.004 744.589 274.828C749.824 280.104 756.264 284.029 763.353 286.265C773.874 289.563 784.963 290.646 795.923 289.446C808.326 288.533 821.794 285.69 836.226 284.946C850.659 284.201 864.736 286.756 875.531 293.321C878.15 294.915 880.595 296.781 882.823 298.887C884.896 300.925 886.724 303.196 888.271 305.655C891.334 310.376 892.84 315.401 894.65 319.716C896.043 323.697 898.179 327.377 900.944 330.561C903.11 332.874 905.812 334.618 908.812 335.637C910.718 336.279 912.756 336.424 914.734 336.06C916.172 335.823 916.832 335.468 916.849 335.536Z" fill="#455A64"/>
<path d="M650.735 143.175C647.567 143.096 644.486 144.208 642.099 146.292C639.711 148.375 638.193 151.278 637.842 154.427V154.427L624.154 296.908C621.785 316.941 647.994 359.9 669.465 362.269C691.139 364.655 693.271 354.147 696.08 335.197C700.783 303.49 702.357 291.544 702.34 291.73C702.323 291.917 730.258 290.8 740.613 255.894C745.688 238.535 748.7 209.348 750.341 185.39C751.813 163.817 741.103 135.713 719.48 135.155L650.735 143.175Z" fill="#FFBE9D"/>
<path d="M740.9 204.255C740.76 205.462 740.147 206.564 739.195 207.319C738.243 208.074 737.031 208.42 735.824 208.282C735.236 208.252 734.66 208.105 734.13 207.849C733.6 207.594 733.127 207.235 732.737 206.793C732.348 206.352 732.051 205.837 731.863 205.279C731.676 204.721 731.601 204.132 731.645 203.545C731.794 202.34 732.408 201.243 733.357 200.486C734.306 199.73 735.514 199.377 736.721 199.501C737.31 199.531 737.888 199.678 738.419 199.935C738.95 200.192 739.425 200.553 739.814 200.996C740.204 201.439 740.501 201.956 740.687 202.516C740.874 203.075 740.946 203.667 740.9 204.255V204.255Z" fill="#263238"/>
<path d="M742.846 195.034C742.305 195.677 738.65 193.342 733.693 193.697C728.735 194.053 725.233 196.777 724.708 196.218C724.437 195.965 724.928 194.848 726.4 193.579C728.44 191.947 730.933 190.984 733.54 190.821C736.113 190.629 738.68 191.263 740.867 192.631C742.508 193.697 743.1 194.797 742.846 195.034Z" fill="#263238"/>
<path d="M697.366 206.827C696.773 207.419 693.356 204.729 688.398 204.611C683.441 204.492 679.735 206.861 679.211 206.303C678.957 206.015 679.566 204.949 681.19 203.849C683.376 202.414 685.955 201.699 688.567 201.802C691.144 201.867 693.632 202.75 695.674 204.323C697.163 205.474 697.619 206.641 697.366 206.827Z" fill="#263238"/>
<path d="M706.604 233.036C706.604 232.748 709.751 232.63 714.793 232.647C716.062 232.647 717.28 232.647 717.619 231.75C717.892 230.469 717.768 229.135 717.263 227.926C716.485 224.723 715.667 221.339 714.81 217.774C711.426 203.477 709.176 191.785 709.734 191.65C710.293 191.515 713.507 203.02 716.874 217.317C717.687 220.837 718.448 224.187 719.175 227.469C719.782 229.107 719.782 230.907 719.175 232.545C718.936 232.963 718.604 233.32 718.205 233.59C717.806 233.859 717.351 234.034 716.874 234.102C716.15 234.195 715.416 234.195 714.692 234.102C709.683 233.713 706.587 233.307 706.604 233.036Z" fill="#263238"/>
<path d="M702.34 291.697C685.512 289.735 669.56 283.133 656.268 272.628C656.268 272.628 665.083 298.718 701.206 300.089L702.34 291.697Z" fill="#EB996E"/>
<path d="M698.059 198.35C697.281 199.552 692.594 197.792 686.774 197.149C680.953 196.506 675.996 196.98 675.522 195.626C675.319 194.983 676.402 193.934 678.551 193.105C681.371 192.087 684.394 191.762 687.366 192.158C690.352 192.484 693.217 193.517 695.724 195.169C697.619 196.489 698.415 197.775 698.059 198.35Z" fill="#263238"/>
<path d="M742.102 188.385C741.29 189.552 737.821 188.571 733.642 188.723C729.463 188.875 726.096 189.857 725.182 188.723C724.81 188.165 725.3 187.031 726.755 185.88C728.723 184.453 731.092 183.683 733.523 183.681C735.922 183.609 738.285 184.276 740.291 185.593C741.932 186.676 742.457 187.826 742.102 188.385Z" fill="#263238"/>
<path d="M694.625 242.02C696.896 240.469 699.681 239.863 702.391 240.328C703.773 240.519 705.046 241.183 705.995 242.206C707.02 243.72 707.47 245.55 707.264 247.367C707.272 248.463 707.106 249.554 706.773 250.599C706.426 251.643 705.685 252.511 704.709 253.018C703.623 253.41 702.444 253.469 701.325 253.187C699.464 252.949 697.678 252.302 696.097 251.292C695.309 250.787 694.641 250.117 694.138 249.329C693.636 248.54 693.311 247.651 693.186 246.724C693.082 245.792 693.28 244.85 693.753 244.04C694.225 243.229 694.946 242.592 695.809 242.223" fill="#EB996E"/>
<path d="M707.975 252.883C707.619 253.018 706.96 251.935 705.775 250.463C704.303 248.53 702.457 246.914 700.346 245.711C698.236 244.507 695.904 243.741 693.491 243.458C691.613 243.188 690.361 243.171 690.277 242.799C690.192 242.426 691.376 241.8 693.525 241.58C696.36 241.359 699.196 241.995 701.664 243.408C704.138 244.805 706.128 246.924 707.366 249.482C708.279 251.428 708.296 252.781 707.975 252.883Z" fill="#263238"/>
<path d="M622.242 287.111C634.001 284.759 643.07 274.658 647.114 263.424C651.158 252.189 650.938 239.821 649.872 227.892C649.902 227.12 649.775 226.35 649.499 225.629C649.223 224.908 648.803 224.25 648.264 223.696C646.488 222.326 643.933 223.442 642.004 224.61C634.591 229.118 627.485 234.114 620.736 239.567C614.442 244.643 608.215 250.48 605.796 258.179C602.09 270.022 609.924 284.15 621.92 287.264" fill="#263238"/>
<path d="M892.535 284.353L837.089 195.22L821.76 163.851C821.76 163.851 816.87 157.371 811.794 151.838C803.469 142.752 795.229 149.808 795.229 149.808C794.768 148.735 793.984 147.833 792.987 147.226C791.989 146.62 790.827 146.339 789.663 146.424C788.167 146.423 786.693 146.776 785.36 147.456C784.028 148.135 782.876 149.121 781.998 150.332C781.998 150.332 779.731 147.811 773.437 147.422C772.007 147.405 770.61 147.856 769.461 148.708C767.396 146.897 763.606 144.292 759.969 145.611C757.126 146.644 739.885 159.756 735.638 166.355C733.54 169.621 737.432 173.851 742.677 171.871C744.834 171.174 746.938 170.32 748.971 169.316C750.563 168.421 752.002 167.279 753.235 165.932C753.235 165.932 748.886 173.546 753.235 174.883C754.659 175.168 756.128 175.139 757.54 174.797C758.951 174.455 760.271 173.809 761.407 172.903C763.099 171.516 764.96 169.705 766.77 167.929L766.567 168.233C764.165 171.786 770.425 177.048 773.454 174.916C774.862 173.923 776.212 172.85 777.498 171.702C784.536 176.778 774.773 183.359 770.645 183.021C764.292 182.539 757.912 182.539 751.56 183.021C747.973 183.309 744.792 184.172 742.829 186.151C740.494 188.554 742.947 193.596 746.213 194.103C752.287 195.051 760.036 196.388 768.09 198.469C777.565 200.905 802.386 208.976 802.386 208.976L804.806 210.939L838.527 293.186L780.797 305.419L767.904 378.58L872.13 350.29C895.581 337.938 906.764 306.687 892.535 284.353Z" fill="#FFBE9D"/>
<path d="M802.404 208.824C801.954 208.759 801.513 208.651 801.084 208.502L797.345 207.436L783.623 203.359L774.165 200.499C770.781 199.45 767.143 198.367 763.285 197.386C759.267 196.302 755.188 195.46 751.069 194.865C748.808 194.826 746.568 194.42 744.437 193.664C743.868 193.406 743.361 193.031 742.948 192.564C742.722 192.294 742.55 191.984 742.44 191.65L742.322 190.753C742.142 189.556 742.217 188.333 742.541 187.166C742.956 185.967 743.817 184.974 744.944 184.392C745.971 183.859 747.048 183.428 748.159 183.106C750.357 182.476 752.641 182.196 754.927 182.277C759.326 182.277 763.471 182.953 767.43 182.784C769.354 182.739 771.271 182.552 773.166 182.226C775.01 181.887 776.77 181.414 778.496 180.974C781.684 179.976 785.023 179.547 788.36 179.705C791.1 179.967 793.782 180.652 796.312 181.735C798.217 182.528 800.07 183.438 801.862 184.459C803.334 185.288 804.451 185.982 805.246 186.439C805.637 186.664 806.01 186.919 806.363 187.2C805.938 187.038 805.53 186.834 805.145 186.591L801.761 184.764C799.955 183.803 798.096 182.944 796.194 182.192C793.699 181.176 791.063 180.548 788.377 180.331C785.115 180.212 781.857 180.665 778.75 181.667C777.058 182.124 775.264 182.632 773.386 182.987C771.447 183.339 769.485 183.543 767.515 183.596C763.488 183.782 759.292 183.19 754.994 183.139C752.823 183.074 750.655 183.342 748.565 183.935C746.501 184.612 744.149 185.339 743.489 187.437C743.214 188.486 743.151 189.579 743.303 190.652L743.421 191.43C743.482 191.639 743.592 191.831 743.743 191.989C744.083 192.361 744.491 192.665 744.944 192.885C746.989 193.581 749.129 193.957 751.289 194.002C755.444 194.619 759.558 195.489 763.607 196.608C767.481 197.606 771.102 198.723 774.486 199.805L783.927 202.766L797.565 207.115L801.253 208.333C801.651 208.461 802.036 208.626 802.404 208.824Z" fill="#EB996E"/>
<path d="M759.647 145.73C759.748 145.865 757.041 147.422 753.048 150.451C750.719 152.227 748.503 154.148 746.416 156.203C744.047 158.504 741.56 161.279 738.616 163.733C737.142 164.74 736.046 166.211 735.502 167.912C735.294 168.661 735.39 169.462 735.771 170.141C736.151 170.819 736.785 171.32 737.533 171.533C738.99 171.94 740.528 171.969 742 171.617C743.33 171.37 744.633 170.996 745.891 170.5C748.364 169.45 750.672 168.048 752.744 166.338C752.328 166.95 751.814 167.487 751.221 167.929C749.691 169.223 747.981 170.289 746.145 171.093C744.863 171.638 743.532 172.057 742.169 172.345C740.571 172.759 738.894 172.759 737.296 172.345C736.343 172.08 735.534 171.449 735.043 170.591C734.552 169.732 734.419 168.715 734.673 167.759C735.251 165.87 736.441 164.227 738.057 163.09C740.951 160.619 743.438 158.014 745.874 155.645C747.988 153.597 750.25 151.708 752.642 149.994C754.706 148.522 756.449 147.473 757.718 146.762C758.327 146.357 758.973 146.012 759.647 145.73V145.73Z" fill="#EB996E"/>
<path d="M780.814 152.701C780.211 153.515 779.555 154.29 778.851 155.019L773.285 161.144L764.943 170.162C763.276 171.991 761.293 173.504 759.089 174.629C757.88 175.237 756.55 175.567 755.197 175.593C754.478 175.605 753.763 175.474 753.095 175.207C752.427 174.94 751.819 174.542 751.306 174.037C750.779 173.45 750.458 172.707 750.392 171.922C750.335 171.192 750.409 170.459 750.612 169.756C750.998 168.429 751.605 167.176 752.406 166.051V166.051C755.401 162.887 758.175 159.909 760.663 157.168C763.15 154.427 765.637 152.278 767.633 150.4C768.491 149.502 769.464 148.723 770.527 148.082C771.386 147.701 772.312 147.494 773.251 147.473C774.757 147.371 775.637 147.473 775.552 147.676C774.796 147.585 774.03 147.619 773.285 147.777C772.4 147.853 771.536 148.082 770.73 148.454C769.734 149.13 768.819 149.919 768.006 150.806C766.077 152.735 763.691 154.968 761.238 157.675C758.784 160.382 756.027 163.462 753.049 166.66C752.307 167.69 751.736 168.832 751.357 170.044C751.182 170.648 751.113 171.277 751.154 171.905C751.222 172.5 751.47 173.061 751.864 173.512C752.738 174.347 753.905 174.803 755.113 174.781C756.33 174.758 757.527 174.463 758.615 173.918C760.73 172.848 762.638 171.41 764.25 169.671L772.709 160.788L778.479 154.867L780.086 153.276C780.538 152.87 780.78 152.678 780.814 152.701Z" fill="#EB996E"/>
<path d="M806.735 160.856C806.735 160.856 806.735 161.381 806.058 161.854C805.665 162.161 805.211 162.383 804.727 162.505C804.242 162.626 803.738 162.646 803.246 162.561C802.754 162.477 802.285 162.291 801.869 162.014C801.453 161.738 801.099 161.378 800.83 160.958C800.441 160.315 800.441 159.824 800.542 159.807C800.644 159.79 800.881 160.129 801.321 160.569C801.88 161.141 802.6 161.53 803.385 161.685C804.181 161.803 804.995 161.679 805.72 161.33C806.295 161.059 806.633 160.772 806.735 160.856Z" fill="#EB996E"/>
<path d="M808.765 168.622C808.579 168.775 807.31 167.506 806.193 165.594C805.38 164.519 804.893 163.232 804.789 161.888C805.009 161.804 805.855 163.326 806.955 165.154C807.727 166.214 808.337 167.383 808.765 168.622V168.622Z" fill="#EB996E"/>
<path d="M812.504 198.875C811.763 197.807 811.219 196.615 810.897 195.356C809.932 192.367 809.464 189.241 809.509 186.1C809.572 182.961 810.143 179.852 811.201 176.896C811.552 175.642 812.125 174.461 812.893 173.411C811.468 177.506 810.642 181.786 810.44 186.117C810.505 190.448 811.2 194.745 812.504 198.875V198.875Z" fill="#EB996E"/>
<path d="M858.053 316.112C857.883 316.112 857.714 314.318 856.834 311.56C856.308 309.953 855.64 308.396 854.838 306.907C852.841 303.274 850.068 300.126 846.716 297.686C845.349 296.692 843.894 295.825 842.368 295.097C839.762 293.862 837.986 293.405 838.02 293.304C838.449 293.287 838.878 293.344 839.288 293.473C840.446 293.72 841.578 294.071 842.672 294.522C844.278 295.196 845.809 296.035 847.241 297.026C850.766 299.461 853.637 302.727 855.599 306.535C856.398 308.081 857.028 309.71 857.477 311.391C857.788 312.498 857.997 313.631 858.103 314.775C858.158 315.221 858.141 315.672 858.053 316.112Z" fill="#EB996E"/>
<path d="M664.524 479.049C659.753 478.215 654.841 478.84 650.43 480.842C642.901 477.458 633.612 483.262 633.612 483.262C630.888 481.959 614.476 492.686 614.476 492.686L594.037 502.331L484.853 421.2L515.8 389.053L472.434 343.928L421.675 396.21C415.457 402.939 411.856 411.672 411.523 420.828C411.035 430.575 413.407 440.252 418.346 448.669C423.285 457.085 430.576 463.875 439.322 468.203L567.913 534.19C577.79 533.641 587.589 532.116 597.167 529.639C608.266 526.746 627.233 518.32 627.233 518.32C627.233 518.32 627.233 518.895 630.617 525.477C636.725 537.321 645.676 524.529 645.676 524.529C646.565 526.609 647.738 528.557 649.161 530.316C656.893 537.811 662.257 527.744 662.257 527.744C662.257 527.744 664.575 531.788 671.478 528.776C678.382 525.764 670.48 504.987 670.48 504.987C670.48 504.987 672.798 509.504 677.248 503.786C681.698 498.067 671.918 480.606 664.524 479.049Z" fill="#FFBE9D"/>
<path d="M649.077 481.908C649.5 481.613 649.987 481.421 650.498 481.35C651.87 481.05 653.294 481.097 654.643 481.485C656.63 482.05 658.486 482.999 660.108 484.277C661.085 485.003 661.996 485.813 662.832 486.697C663.675 487.736 664.391 488.872 664.964 490.081C666.969 494.116 668.638 498.309 669.956 502.618C670.463 504.31 670.802 505.613 671.022 506.56C671.179 507.041 671.253 507.544 671.242 508.049C671.123 508.049 670.514 506.036 669.363 502.804C667.871 498.596 666.137 494.478 664.169 490.47C663.636 489.348 662.965 488.296 662.173 487.34C661.384 486.49 660.53 485.704 659.618 484.988C658.104 483.752 656.386 482.79 654.542 482.145C652.767 481.621 650.89 481.539 649.077 481.908V481.908Z" fill="#EB996E"/>
<path d="M662.223 527.795C661.833 527.206 661.51 526.576 661.259 525.917L658.873 520.739C656.86 516.357 653.916 510.367 651.107 503.549C649.976 500.306 648.483 497.202 646.657 494.294C645.08 492.012 642.909 490.204 640.38 489.065C638.698 488.252 636.825 487.918 634.965 488.101C633.646 488.27 632.969 488.626 632.935 488.541C632.901 488.456 633.087 488.423 633.409 488.253C633.879 488.018 634.38 487.853 634.898 487.763C636.84 487.431 638.836 487.684 640.634 488.49C643.319 489.611 645.634 491.463 647.317 493.837C649.218 496.768 650.763 499.914 651.919 503.21C654.711 509.978 657.57 516.036 659.448 520.485C660.379 522.702 661.14 524.529 661.58 525.781C661.867 526.427 662.083 527.102 662.223 527.795V527.795Z" fill="#EB996E"/>
<path d="M612.107 501.688C612.637 501.31 613.204 500.986 613.799 500.723L618.672 498.371C619.721 497.881 620.821 497.339 622.056 496.798C623.446 496.244 624.947 496.024 626.438 496.155C628.098 496.288 629.69 496.873 631.04 497.847C632.402 498.96 633.549 500.314 634.424 501.84C635.355 503.363 636.116 504.936 636.793 506.391C637.47 507.846 638.265 509.251 639.01 510.57C640.482 513.193 641.869 515.545 642.884 517.609C643.72 519.221 644.443 520.889 645.05 522.6C645.321 523.209 645.503 523.852 645.591 524.512C645.456 524.512 644.542 521.89 642.343 517.897C641.243 515.9 639.822 513.599 638.299 510.976C637.538 509.657 636.776 508.252 636.032 506.78C635.287 505.308 634.577 503.769 633.68 502.297C632.86 500.869 631.801 499.593 630.55 498.524C629.343 497.601 627.912 497.017 626.404 496.832C625.035 496.684 623.651 496.858 622.361 497.339C621.142 497.83 619.975 498.371 618.977 498.794L613.985 501.045C613.388 501.334 612.757 501.55 612.107 501.688Z" fill="#EB996E"/>
<path d="M614.476 492.703C614.024 493.079 613.523 493.392 612.987 493.634C612.006 494.192 610.567 494.97 608.774 495.918C605.204 497.813 600.229 500.385 594.714 503.16C589.198 505.934 584.19 508.405 580.535 510.164L576.203 512.195C575.67 512.478 575.101 512.689 574.511 512.821C574.973 512.445 575.479 512.127 576.017 511.873C576.999 511.332 578.437 510.554 580.23 509.606C583.8 507.711 588.775 505.156 594.291 502.364C599.807 499.573 604.815 497.119 608.452 495.377C610.28 494.497 611.836 493.803 612.801 493.329C613.326 493.04 613.89 492.83 614.476 492.703V492.703Z" fill="#EB996E"/>
<path d="M486.309 421.403C482.043 420.759 477.715 420.617 473.416 420.98C469.148 421.623 464.969 422.759 460.963 424.364C461.981 423.554 463.124 422.914 464.347 422.469C467.205 421.242 470.225 420.432 473.315 420.067C476.412 419.702 479.546 419.781 482.62 420.304C483.901 420.468 485.147 420.84 486.309 421.403Z" fill="#EB996E"/>
<path d="M727.432 128.32C700.39 127.933 673.399 130.773 647.03 136.779C640.922 138.184 634.458 139.977 630.33 144.681C625.948 149.655 625.254 156.745 624.611 163.293C623.912 171.335 623.212 179.372 622.513 187.403C621.353 189.393 620.07 191.309 618.672 193.139C612.31 201.447 604.206 208.367 598.368 217.097C592.531 225.828 589.384 237.401 594.088 246.741C596.947 252.392 602.226 256.385 606.084 261.393C612.632 269.853 614.764 280.868 618.588 290.901C622.411 300.935 629.315 311.205 639.856 313.168C644.932 314.132 650.109 313.066 655.168 313.811C662.731 314.91 669.093 319.868 675.099 324.589C681.106 329.309 687.637 334.114 695.251 334.876C702.865 335.637 711.578 330.477 711.731 322.829C708.907 324.42 705.704 325.214 702.464 325.124C699.225 325.035 696.07 324.066 693.339 322.321C688.906 319.394 686.047 314.657 682.24 310.968C672.883 301.899 657.824 299.023 651.31 287.737C646.234 278.821 648.214 267.637 650.549 257.603C652.562 248.907 654.627 239.482 652.106 231.124C652.306 229.779 652.413 228.423 652.427 227.063C652.427 218.163 648.958 208.621 653.104 200.753C658.586 190.33 674.389 189.011 679.922 178.639C683.153 172.598 682.02 164.883 685.539 159.012C688.838 153.496 695.454 150.958 701.748 149.588C708.042 148.217 714.658 147.591 720.208 144.343C725.757 141.094 729.953 134.225 727.432 128.32Z" fill="#263238"/>
<path d="M747.939 309.851C747.875 310.004 747.79 310.147 747.685 310.274L746.856 311.442C745.719 312.905 744.412 314.228 742.964 315.384C740.637 317.19 738.024 318.591 735.232 319.53C731.541 320.811 727.613 321.267 723.727 320.866C718.979 320.405 714.471 318.557 710.766 315.553C706.739 312.457 703.152 308.346 698.601 305.08C696.32 303.38 693.661 302.26 690.851 301.815C687.887 301.571 684.91 302.114 682.222 303.388C679.36 304.739 676.359 305.772 673.272 306.468C669.959 306.945 666.58 306.352 663.628 304.776C660.74 303.255 658.014 301.446 655.489 299.378C652.964 297.481 650.578 295.406 648.349 293.169C646.145 290.999 644.417 288.394 643.273 285.521C642.252 282.702 642.053 279.651 642.698 276.723C643.317 274.008 644.172 271.353 645.253 268.787C646.234 266.3 647.08 263.847 647.825 261.444C649.185 257.011 650.231 252.488 650.955 247.908C652.001 241.234 652.37 234.471 652.055 227.723C651.953 225.337 651.801 223.476 651.665 222.224C651.665 221.632 651.665 221.175 651.547 220.803C651.521 220.64 651.521 220.475 651.547 220.312C651.606 220.464 651.64 220.624 651.648 220.786L651.851 222.207C652.038 223.459 652.258 225.303 652.41 227.706C652.856 234.484 652.584 241.29 651.598 248.01C650.907 252.65 649.889 257.235 648.552 261.732C647.808 264.134 646.962 266.622 645.997 269.143C644.939 271.638 644.096 274.219 643.476 276.858C642.863 279.642 643.063 282.543 644.051 285.216C645.162 287.977 646.833 290.477 648.958 292.559C651.161 294.762 653.519 296.803 656.014 298.668C658.491 300.696 661.167 302.47 664 303.963C666.78 305.491 669.977 306.084 673.12 305.655C676.142 304.965 679.08 303.949 681.884 302.627C684.711 301.317 687.832 300.769 690.936 301.036C693.878 301.489 696.665 302.651 699.058 304.42C703.694 307.804 707.247 311.933 711.206 314.995C714.786 317.95 719.16 319.78 723.777 320.257C730.506 320.994 737.268 319.183 742.727 315.181C744.671 313.619 746.42 311.829 747.939 309.851V309.851Z" fill="#263238"/>
<path d="M578.894 256.047C578.406 255.448 577.954 254.821 577.54 254.169C576.388 252.271 575.575 250.187 575.137 248.01C574.47 244.55 574.528 240.99 575.307 237.553C576.323 232.993 578.32 228.709 581.161 224.999C584.657 220.585 588.771 216.698 593.377 213.46C598.233 209.839 603.749 206.472 609.248 202.563C615.113 198.638 620.215 193.678 624.306 187.928C626.323 184.788 627.862 181.367 628.875 177.776C629.957 174.155 630.702 170.365 631.582 166.541C632.345 162.729 633.478 159 634.966 155.408C636.454 151.879 638.728 148.737 641.615 146.221C644.436 143.845 647.696 142.046 651.209 140.925C654.546 139.845 657.999 139.163 661.496 138.894C667.931 138.568 674.382 138.772 680.784 139.503C686.326 140.096 691.912 140.17 697.467 139.723C702.037 139.283 706.479 137.962 710.546 135.832C713.619 134.234 716.34 132.036 718.549 129.369C719.944 127.676 721.042 125.76 721.798 123.7C722.272 122.279 722.458 121.501 722.492 121.518C722.369 122.279 722.194 123.031 721.967 123.768C721.264 125.876 720.199 127.846 718.82 129.588C716.624 132.363 713.89 134.664 710.783 136.356C706.674 138.563 702.174 139.948 697.535 140.434C691.938 140.925 686.306 140.886 680.717 140.316C674.357 139.624 667.952 139.448 661.564 139.791C658.111 140.06 654.702 140.742 651.412 141.821C648.01 142.894 644.849 144.618 642.106 146.897C639.321 149.34 637.129 152.383 635.693 155.797C634.206 159.337 633.073 163.015 632.309 166.778C631.429 170.585 630.617 174.392 629.568 178.064C628.537 181.721 626.957 185.201 624.882 188.385C620.749 194.21 615.589 199.233 609.654 203.206C604.104 207.132 598.588 210.465 593.749 214.035C589.176 217.21 585.084 221.028 581.601 225.371C578.766 228.979 576.761 233.167 575.73 237.638C574.909 241.008 574.8 244.511 575.408 247.925C575.996 250.844 577.183 253.61 578.894 256.047V256.047Z" fill="#455A64"/>
<path d="M583.851 264.93C581.963 263.437 580.224 261.765 578.657 259.938C576.726 257.849 575.195 255.423 574.139 252.781C573.475 251.1 573.208 249.287 573.361 247.485C573.57 245.459 574.363 243.536 575.645 241.953C578.386 238.569 582.92 236.775 587.675 235.777C590.061 235.286 592.565 234.897 595.052 234.271C597.621 233.732 600.066 232.716 602.26 231.276C604.474 229.65 606.271 227.522 607.505 225.067C608.792 222.463 609.878 219.765 610.753 216.996C611.654 214.09 612.786 211.261 614.137 208.536C615.586 205.67 617.777 203.245 620.482 201.514C623.232 199.945 626.204 198.804 629.297 198.13C632.292 197.352 635.253 196.726 638.045 195.779C643.416 193.905 648.098 190.456 651.479 185.88C654.609 181.74 657.42 177.368 659.888 172.802C662.063 168.821 664.606 165.054 667.485 161.55C669.888 158.643 672.837 156.235 676.165 154.461C678.681 153.123 681.434 152.29 684.27 152.007C686.064 151.836 687.874 151.985 689.616 152.447C690.197 152.601 690.763 152.805 691.308 153.056C691.308 153.056 690.682 152.887 689.498 152.616C687.77 152.246 685.993 152.155 684.236 152.346C681.466 152.686 678.785 153.547 676.334 154.884C673.086 156.668 670.214 159.064 667.875 161.939C665.06 165.452 662.568 169.212 660.43 173.174C657.995 177.773 655.213 182.18 652.105 186.354C650.364 188.6 648.359 190.629 646.133 192.395C643.805 194.187 641.191 195.571 638.4 196.489C635.558 197.471 632.563 198.097 629.602 198.875C626.591 199.556 623.704 200.698 621.041 202.259C618.449 203.928 616.356 206.266 614.983 209.027C613.635 211.713 612.503 214.502 611.599 217.368C610.686 220.176 609.555 222.909 608.215 225.54C606.904 228.104 605.016 230.328 602.7 232.038C600.409 233.511 597.869 234.555 595.204 235.117C592.666 235.726 590.128 236.098 587.793 236.589C583.107 237.536 578.691 239.279 576.102 242.426C574.874 243.912 574.104 245.722 573.885 247.638C573.72 249.359 573.952 251.095 574.562 252.713C575.578 255.314 577.038 257.719 578.877 259.82C580.366 261.512 581.635 262.848 582.497 263.711L583.496 264.676C583.75 264.794 583.868 264.913 583.851 264.93Z" fill="#455A64"/>
<path d="M792.133 155.628C791.898 156.099 791.602 156.537 791.253 156.931C790.644 157.743 789.747 158.893 788.58 160.315C786.279 163.09 782.963 166.812 779.071 170.72C777.142 172.615 775.332 174.747 772.844 175.526C771.688 175.924 770.431 175.924 769.274 175.526C768.283 175.113 767.468 174.364 766.973 173.411C766.307 172.083 766.087 170.576 766.347 169.113C766.376 168.585 766.508 168.067 766.736 167.59C766.792 168.108 766.792 168.629 766.736 169.147C766.613 170.52 766.902 171.898 767.566 173.106C768.021 173.886 768.733 174.484 769.579 174.798C770.571 175.144 771.65 175.144 772.641 174.798C774.807 174.104 776.55 172.074 778.496 170.145C782.37 166.27 785.737 162.616 788.174 159.993C789.394 158.451 790.717 156.993 792.133 155.628V155.628Z" fill="#EB996E"/>
<path d="M805.06 155.628C804.782 156.116 804.435 156.561 804.028 156.948C803.334 157.76 802.336 158.91 801.016 160.332L796.465 165.255L793.758 168.132C792.822 169.214 791.791 170.21 790.678 171.11C789.491 172.055 788.059 172.642 786.55 172.802C785.818 172.878 785.078 172.762 784.405 172.465C783.731 172.169 783.147 171.701 782.709 171.11C782.301 170.536 782.083 169.85 782.083 169.147C782.122 168.505 782.319 167.883 782.658 167.336C783.284 166.321 783.927 165.543 784.486 164.765C785.602 163.225 786.533 161.99 787.193 161.144C787.498 160.676 787.868 160.254 788.293 159.892C788.081 160.408 787.808 160.896 787.48 161.347C786.905 162.244 786.059 163.529 784.993 165.12C784.469 165.915 783.826 166.812 783.301 167.692C782.993 168.121 782.827 168.636 782.827 169.164C782.827 169.692 782.993 170.207 783.301 170.636C783.664 171.106 784.145 171.472 784.694 171.698C785.243 171.924 785.843 172.001 786.431 171.922C787.765 171.779 789.032 171.263 790.086 170.433C791.193 169.595 792.219 168.655 793.148 167.624L795.906 164.782L800.593 159.976C801.93 158.623 803.03 157.54 803.808 156.795C804.169 156.35 804.591 155.957 805.06 155.628V155.628Z" fill="#EB996E"/>
<path d="M981.719 673.626C983.171 670.464 985.372 667.702 988.13 665.58C990.887 663.458 994.12 662.038 997.549 661.443C1000.98 660.849 1004.5 661.097 1007.81 662.168C1011.12 663.238 1014.12 665.097 1016.56 667.586C1012.99 673.34 1007.45 677.598 1000.97 679.565C997.551 680.77 993.833 680.844 990.366 679.774C986.899 678.705 983.867 676.55 981.719 673.626Z" fill="#7E57C2"/>
<path d="M969.706 676.401C971.259 675.705 972.889 675.194 974.562 674.878C977.624 674.134 981.888 673.305 986.608 672.526C991.329 671.748 995.627 671.156 998.757 670.834C1000.43 670.556 1002.13 670.425 1003.83 670.445C1002.21 670.923 1000.54 671.263 998.858 671.46L986.761 673.44C982.057 674.218 977.793 674.963 974.714 675.538C973.062 675.92 971.39 676.208 969.706 676.401V676.401Z" fill="#263238"/>
<path d="M376.956 566.507C380.564 569.478 383.376 573.3 385.14 577.628C386.904 581.957 387.564 586.656 387.06 591.302C386.557 595.949 384.906 600.397 382.256 604.247C379.606 608.098 376.041 611.228 371.88 613.358C365.671 597.436 363.285 580.297 376.956 566.507Z" fill="#7E57C2"/>
<path d="M400.492 578.723C400.825 584.758 402.653 590.616 405.811 595.769C408.97 600.923 413.36 605.21 418.587 608.245C423.814 611.281 429.714 612.969 435.755 613.159C441.796 613.348 447.79 612.033 453.197 609.331C441.353 590.719 425.33 575.035 400.492 578.689" fill="#7E57C2"/>
<path d="M346.568 519.876C346.867 520.125 347.134 520.409 347.364 520.722L349.479 523.243C351.272 525.46 353.895 528.658 357.211 532.532C363.81 540.315 373.132 550.907 384.113 561.956C389.612 567.472 395.01 572.564 400.018 577.065C405.026 581.566 409.764 585.406 413.824 588.486C417.014 590.93 420.342 593.19 423.79 595.254C426.243 596.709 427.699 597.318 427.665 597.403C427.287 597.316 426.923 597.18 426.582 596.997C425.565 596.581 424.576 596.1 423.621 595.558C420.093 593.594 416.702 591.395 413.469 588.977C409.341 585.931 404.603 582.09 399.51 577.657C394.417 573.224 389.02 568.081 383.504 562.565C372.506 551.499 363.2 540.823 356.754 532.921C353.489 528.979 350.951 525.714 349.225 523.446L347.228 520.807C346.98 520.518 346.759 520.206 346.568 519.876Z" fill="#263238"/>
<path d="M375.653 590.567C375.501 590.567 376.06 588.198 376.55 584.357C377.806 574.313 376.741 564.114 373.437 554.545C372.168 550.89 371.136 548.708 371.271 548.64C371.623 549.084 371.913 549.573 372.134 550.095C372.84 551.471 373.473 552.882 374.029 554.325C375.854 559.101 377.048 564.095 377.582 569.18C378.109 574.253 377.967 579.373 377.159 584.408C376.908 585.966 376.57 587.508 376.144 589.027C376.041 589.558 375.876 590.075 375.653 590.567V590.567Z" fill="#263238"/>
<path d="M1122.3 248.162C1120.21 245.385 1118.82 242.14 1118.26 238.707C1117.7 235.273 1117.98 231.755 1119.09 228.456C1120.19 225.156 1122.08 222.175 1124.59 219.768C1127.1 217.362 1130.16 215.603 1133.51 214.644C1136.88 220.502 1138.01 227.39 1136.67 234.017C1136.11 237.604 1134.41 240.916 1131.82 243.463C1129.24 246.01 1125.9 247.657 1122.3 248.162Z" fill="#7E57C2"/>
<path d="M1119.09 260.057C1119.21 258.36 1119.53 256.684 1120.05 255.065C1120.85 252.02 1122.14 247.874 1123.69 243.34C1125.25 238.805 1126.77 234.745 1127.92 231.818C1128.46 230.206 1129.16 228.648 1129.99 227.165C1129.63 228.827 1129.14 230.457 1128.51 232.038C1127.4 235.269 1126.03 239.228 1124.52 243.628C1123.02 248.027 1121.59 252.257 1120.65 255.235C1120.21 256.867 1119.69 258.477 1119.09 260.057V260.057Z" fill="#263238"/>
<path d="M1047.86 374.045C1046.11 367.548 1045.96 360.722 1047.44 354.157C1048.92 347.593 1051.97 341.486 1056.34 336.366C1060.71 331.245 1066.25 327.265 1072.5 324.768C1078.75 322.271 1085.51 321.332 1092.2 322.034C1094.56 334.825 1090.51 347.955 1083.83 359.071C1075.86 372.184 1060.02 377.683 1047.86 374.045Z" fill="#7E57C2"/>
<path d="M997.792 424.127C998.004 423.8 998.248 423.494 998.52 423.214L1000.7 420.727C1002.65 418.595 1005.49 415.549 1009.03 411.827C1016.13 404.382 1026.05 394.213 1037.08 383.063C1048.11 371.913 1058.15 361.846 1065.45 354.621L1074.15 346.077L1076.55 343.792C1077.1 343.285 1077.4 343.014 1077.43 343.048C1077.21 343.364 1076.95 343.659 1076.67 343.928L1074.39 346.33L1065.93 355.044L1037.71 383.672L1009.48 412.267L1001.02 420.963L998.723 423.332C998.445 423.632 998.132 423.899 997.792 424.127V424.127Z" fill="#263238"/>
<g opacity="0.3">
<path opacity="0.3" d="M1047.86 374.045C1046.11 367.548 1045.96 360.722 1047.44 354.157C1048.92 347.593 1051.97 341.486 1056.34 336.366C1060.71 331.245 1066.25 327.265 1072.5 324.768C1078.75 322.271 1085.51 321.332 1092.2 322.034C1094.56 334.825 1090.51 347.955 1083.83 359.071C1075.86 372.184 1060.02 377.683 1047.86 374.045Z" fill="black"/>
</g>
<path d="M1024.66 379.07C1020.98 377.193 1017.8 374.442 1015.42 371.059C1013.04 367.676 1011.53 363.763 1011.01 359.659C1010.48 355.556 1010.97 351.387 1012.43 347.516C1013.89 343.645 1016.27 340.188 1019.37 337.448C1026.13 341.678 1030.46 348.902 1032.71 356.55C1035.39 365.585 1031.36 375.162 1024.66 379.07Z" fill="#7E57C2"/>
<g opacity="0.3">
<path opacity="0.3" d="M1024.66 379.07C1020.98 377.193 1017.8 374.442 1015.42 371.059C1013.04 367.676 1011.53 363.763 1011.01 359.659C1010.48 355.556 1010.97 351.387 1012.43 347.516C1013.89 343.645 1016.27 340.188 1019.37 337.448C1026.13 341.678 1030.46 348.902 1032.71 356.55C1035.39 365.585 1031.36 375.162 1024.66 379.07Z" fill="black"/>
</g>
<path d="M1027.3 393.486C1027.07 392.99 1026.9 392.467 1026.79 391.929C1026.5 390.931 1026.18 389.459 1025.83 387.615C1025.12 383.96 1024.37 378.85 1023.7 373.216C1023.02 367.582 1022.55 362.438 1022.26 358.716C1022.01 356.718 1021.93 354.703 1022.02 352.692C1022.44 354.661 1022.73 356.657 1022.88 358.665C1023.34 362.59 1023.93 367.582 1024.58 373.114C1025.22 378.647 1025.9 383.842 1026.44 387.513C1026.98 391.185 1027.44 393.452 1027.3 393.486Z" fill="#263238"/>
<path d="M707.771 575.17C710.357 569.035 714.432 563.641 719.627 559.477C724.821 555.313 730.972 552.51 737.523 551.32C744.073 550.131 750.817 550.594 757.144 552.666C763.471 554.739 769.181 558.356 773.758 563.191C754.572 578.063 732.187 588.215 707.907 575.17" fill="#7E57C2"/>
<g opacity="0.3">
<path opacity="0.3" d="M707.771 575.17C710.357 569.035 714.432 563.641 719.627 559.477C724.821 555.313 730.972 552.51 737.523 551.32C744.073 550.131 750.817 550.594 757.144 552.666C763.471 554.739 769.181 558.356 773.758 563.191C754.572 578.063 732.187 588.215 707.907 575.17" fill="black"/>
</g>
<path d="M696.993 581.126C697.45 580.67 697.961 580.272 698.516 579.941C699.531 579.214 701.037 578.249 702.966 577.133C713.021 571.32 724.166 567.639 735.706 566.321C737.905 566.084 739.699 565.966 740.934 565.949C741.574 565.861 742.223 565.861 742.863 565.949C742.863 566.084 740.138 566.253 735.773 566.896C730.094 567.727 724.496 569.041 719.04 570.822C713.599 572.621 708.323 574.885 703.27 577.59C699.311 579.755 697.078 581.244 696.993 581.126Z" fill="#263238"/>
<path d="M261.817 354.706C266.464 352.538 271.576 351.56 276.694 351.859C281.812 352.158 286.776 353.724 291.138 356.417C295.501 359.11 299.126 362.846 301.687 367.287C304.247 371.729 305.664 376.737 305.809 381.862C287.112 380.475 269.025 374.739 261.817 354.706Z" fill="#7E57C2"/>
<g opacity="0.3">
<path opacity="0.3" d="M261.817 354.706C266.464 352.538 271.576 351.56 276.694 351.859C281.812 352.158 286.776 353.724 291.138 356.417C295.501 359.11 299.126 362.846 301.687 367.287C304.247 371.729 305.664 376.737 305.809 381.862C287.112 380.475 269.025 374.739 261.817 354.706Z" fill="black"/>
</g>
<path d="M252.528 352.523C253.021 352.442 253.524 352.442 254.017 352.523C255.364 352.668 256.703 352.882 258.027 353.166C262.409 354.081 266.685 355.447 270.785 357.244C274.882 359.058 278.782 361.286 282.426 363.893C283.813 364.908 284.896 365.771 285.607 366.414C286.006 366.716 286.365 367.068 286.672 367.463C286.571 367.582 284.98 366.279 282.07 364.418C274.674 359.537 266.496 355.961 257.892 353.843C254.593 353.014 252.512 352.658 252.528 352.523Z" fill="#263238"/>
<path d="M868.103 554.443C867.552 549.89 868.141 545.27 869.819 541.001C871.497 536.732 874.209 532.947 877.713 529.987C881.217 527.027 885.402 524.984 889.891 524.044C894.381 523.103 899.034 523.293 903.431 524.597C897.053 540.112 887.138 553.902 868.103 554.443Z" fill="#7E57C2"/>
<path d="M863.653 561.736C864.169 560.154 864.88 558.642 865.768 557.235C869.76 550.255 875.187 544.2 881.689 539.469C882.993 538.436 884.42 537.566 885.936 536.881C884.695 537.976 883.396 539.004 882.045 539.96C875.833 544.887 870.501 550.831 866.275 557.54C865.482 558.987 864.607 560.388 863.653 561.736V561.736Z" fill="#263238"/>
<path d="M1001.24 466.545C999.847 462.177 999.558 457.529 1000.4 453.021C1001.25 448.513 1003.2 444.286 1006.09 440.721C1008.97 437.155 1012.7 434.362 1016.93 432.594C1021.16 430.826 1025.77 430.137 1030.33 430.591C1026.95 447.037 1019.84 462.434 1001.24 466.545Z" fill="#7E57C2"/>
<g opacity="0.3">
<path opacity="0.3" d="M1001.24 466.545C999.847 462.177 999.558 457.529 1000.4 453.021C1001.25 448.513 1003.2 444.286 1006.09 440.721C1008.97 437.155 1012.7 434.362 1016.93 432.594C1021.16 430.826 1025.77 430.137 1030.33 430.591C1026.95 447.037 1019.84 462.434 1001.24 466.545Z" fill="black"/>
</g>
<path d="M771 124.749L784.536 100.233C775.849 86.4308 772.638 69.8785 775.535 53.8294C778.432 37.7802 787.226 23.395 800.191 13.5011C813.155 3.60722 829.352 -1.0797 845.596 0.361582C861.841 1.80286 876.959 9.26809 887.979 21.29C898.999 33.3118 905.124 49.0208 905.15 65.3293C905.176 81.6377 899.101 97.3661 888.119 109.423C877.138 121.48 862.043 128.993 845.803 130.486C829.563 131.979 813.352 127.343 800.356 117.491V117.491L771 124.749Z" fill="white"/>
<path d="M771 124.749L800.39 117.305L800.272 117.66L799.24 116.357L800.593 117.356C804.753 120.473 809.261 123.096 814.027 125.172C819.703 127.614 825.696 129.237 831.827 129.995C835.222 130.418 838.647 130.543 842.063 130.367C843.755 130.248 845.617 130.181 847.427 130.011L852.858 129.115C869.061 125.74 883.369 116.32 892.873 102.771C898.153 95.2787 901.775 86.7479 903.499 77.7464C905.232 68.2186 904.839 58.4258 902.348 49.0674C899.814 39.2966 894.995 30.2674 888.288 22.7234L885.632 19.8639C884.752 18.8995 883.72 18.1719 882.772 17.2244C881.839 16.3297 880.856 15.488 879.828 14.7034L876.715 12.4192C875.721 11.6646 874.675 10.9805 873.585 10.3719L870.201 8.37541L866.817 6.68344C865.721 6.11187 864.591 5.60895 863.433 5.17758C854.231 1.62849 844.347 0.200006 834.517 0.998399C825.217 1.70389 816.187 4.45393 808.072 9.0522C793.479 17.3392 782.617 30.9023 777.718 46.9524C775.778 53.7952 774.877 60.8903 775.044 68.0006C775.434 79.3925 778.819 90.4806 784.858 100.148V100.25V100.368L771.068 124.766L784.486 100.148V100.368C778.338 90.6913 774.864 79.5581 774.418 68.1021C774.214 60.9266 775.098 53.7615 777.041 46.8509C781.939 30.6026 792.874 16.8469 807.598 8.40925C815.817 3.74858 824.961 0.952814 834.382 0.220092C844.343 -0.591609 854.358 0.848292 863.687 4.43311C864.885 4.86693 866.055 5.37552 867.189 5.95589L870.675 7.64786L874.059 9.62747C875.193 10.2587 876.284 10.9653 877.324 11.7424L880.353 14.0097C881.436 14.7542 882.332 15.7017 883.348 16.5646C884.363 17.4275 885.344 18.2565 886.241 19.2379L888.999 22.2158C895.809 29.8519 900.694 39.0064 903.245 48.9151C905.723 58.3987 906.081 68.3117 904.294 77.9494C902.555 87.0848 898.874 95.7399 893.5 103.329C883.875 117.028 869.378 126.531 852.977 129.893L847.461 130.79C845.65 130.959 843.84 131.01 842.063 131.128C838.612 131.297 835.152 131.155 831.725 130.705C825.536 129.928 819.49 128.264 813.774 125.765C808.961 123.657 804.416 120.981 800.238 117.795L800.542 117.491L800.762 117.762H800.424L771 124.749Z" fill="#263238"/>
<path d="M821.743 54.3633L830.203 54.2787C830.187 53.3129 830.365 52.3539 830.728 51.4587C831.091 50.5635 831.63 49.7505 832.314 49.0684C832.998 48.3862 833.812 47.8487 834.708 47.4881C835.604 47.1275 836.563 46.951 837.529 46.9694C838.956 46.8909 840.371 47.266 841.571 48.041C842.772 48.8161 843.696 49.9513 844.212 51.2839C844.672 52.3892 844.865 53.5877 844.773 54.7815C844.682 55.9753 844.31 57.1306 843.688 58.1533C842.267 60.539 839.136 62.7216 833.401 61.7741L833.587 80.9104H842.047L841.894 69.5911C845.329 68.5448 848.325 66.4011 850.425 63.4887C852.524 60.5762 853.611 57.0557 853.518 53.4665C853.4 41.0644 842.25 38.2388 837.478 38.3403C833.84 38.4249 821.438 39.4232 821.743 54.3633Z" fill="#7E57C2"/>
<path d="M842.149 84.7793L833.639 84.861L833.715 92.8129L842.226 92.7312L842.149 84.7793Z" fill="#7E57C2"/>
</svg>
