<svg width="48" height="48" viewBox="0 0 48 48" fill="none" xmlns="http://www.w3.org/2000/svg">
<circle cx="24" cy="24" r="23.5" fill="#821284"/>
<path d="M28.1602 30.4532L30.4336 28.0883L40.096 38.1426L37.8225 40.5075L28.1602 30.4532Z" fill="#DBDBDB"/>
<path d="M20.7841 33.8077C27.888 33.8077 33.6469 27.8152 33.6469 20.4231C33.6469 13.031 27.888 7.03847 20.7841 7.03847C13.6802 7.03847 7.92139 13.031 7.92139 20.4231C7.92139 27.8152 13.6802 33.8077 20.7841 33.8077Z" fill="#DBDBDB"/>
<path d="M30.793 33.2556L33.0657 30.8898L40.0566 38.1644L37.7831 40.5301L30.793 33.2556Z" fill="#263238"/>
<path d="M20.7842 31.2981C26.5562 31.2981 31.2352 26.4292 31.2352 20.4231C31.2352 14.417 26.5562 9.54808 20.7842 9.54808C15.0123 9.54808 10.3333 14.417 10.3333 20.4231C10.3333 26.4292 15.0123 31.2981 20.7842 31.2981Z" fill="white"/>
<path d="M26.3313 15.5711C24.9646 13.8981 22.9548 12.8942 20.7842 12.8942C18.6137 12.8942 16.6038 13.8981 15.2372 15.5711C14.9156 15.9058 14.996 16.4913 15.3176 16.7423C15.6391 17.0769 16.2019 16.9933 16.4431 16.6586C17.5686 15.3202 19.096 14.5673 20.7842 14.5673C22.4725 14.5673 23.9999 15.3202 25.1254 16.6586C25.2862 16.826 25.5274 16.9933 25.7686 16.9933C25.9293 16.9933 26.1705 16.9096 26.2509 16.826C26.5725 16.4913 26.5725 15.9058 26.3313 15.5711V15.5711Z" fill="#DBDBDB"/>
</svg>
