<?xml version="1.0" ?><svg id="katman_1" style="enable-background:new 0 0 512 512;" version="1.1" viewBox="0 0 512 512" xml:space="preserve" xmlns="http://www.w3.org/2000/svg" xmlns:xlink="http://www.w3.org/1999/xlink"><style type="text/css">
	.st0{fill:#821284;}
	.st1{fill:#821284;}
	.st2{fill:#FFFFFF;}
</style><g><g><circle class="st0" cx="256" cy="256" r="250"/></g><path class="st1" d="M497.7,320.2c-0.2-0.4-0.5-0.8-1-1.2c-48.1-48-96.1-96-144.1-144c-16.5-16.5-32.7-33.1-49.4-49.3   c-17.7-17.2-38.9-23-62.9-17.1c-29.3,7.3-49.5,34.3-49.2,63.8c0.2,17.9,0,35.8,0,53.8c0,0.9,0,1.9,0,3.2c-1.1,0-1.8,0-2.5,0   c-6.3,0-12.6-0.1-19,0c-6.1,0.1-11.4,2.2-15.7,6.6c-4.4,4.5-6.2,9.9-6.2,16.1c0,30.2,0,60.5,0,90.7c0,13.8,0,27.7,0,41.5   c0,6.4,2.2,11.8,6.8,16.3c34.8,34.7,69.5,69.4,104.2,104.2c0.5,0.5,0.9,0.8,1.4,1.1C374.2,504.1,469.7,425.9,497.7,320.2z"/><g><path class="st2" d="M256,268.1c-16.4,0-29.8,13.4-29.8,29.8c0,8.1,3.4,16,9.3,21.6v26.9c0,11.3,9.2,20.5,20.5,20.5    s20.5-9.2,20.5-20.5v-26.9c5.9-5.6,9.3-13.5,9.3-21.6C285.8,281.5,272.4,268.1,256,268.1z M266.5,309.1c-2.8,2.7-4.5,6.4-4.5,10.3    v27c0,3.3-2.7,6.1-6.1,6.1c-3.3,0-6.1-2.7-6.1-6.1v-27c0-3.8-1.6-7.6-4.5-10.3c-3.1-2.9-4.8-6.9-4.8-11.2    c0-8.5,6.9-15.4,15.4-15.4c8.5,0,15.4,6.9,15.4,15.4C271.4,302.2,269.6,306.1,266.5,309.1z"/><path class="st2" d="M343.3,229H204.8v-57.3c0-28.3,23-51.2,51.2-51.2s51.2,23,51.2,51.2v25.9c0,4,3.2,7.2,7.2,7.2    s7.2-3.2,7.2-7.2v-25.9c0-36.2-29.5-65.7-65.7-65.7s-65.7,29.5-65.7,65.7V229h-21.6c-11.9,0-21.6,9.7-21.6,21.6v133.8    c0,11.9,9.7,21.6,21.6,21.6h174.6c11.9,0,21.6-9.7,21.6-21.6V250.6C364.9,238.7,355.2,229,343.3,229z M350.5,384.4    c0,4-3.2,7.2-7.2,7.2H168.7c-4,0-7.2-3.2-7.2-7.2V250.6c0-4,3.2-7.2,7.2-7.2h174.6c4,0,7.2,3.2,7.2,7.2V384.4z"/></g></g></svg>