<svg width="48" height="48" viewBox="0 0 48 48" fill="none" xmlns="http://www.w3.org/2000/svg">
<circle cx="24" cy="24" r="23.5" fill="#821284"/>
<g clip-path="url(#clip0_63_1055)">
<path d="M22.4314 17.8462H25.5686V19.3846H22.4314V17.8462ZM22.4314 11.6923H25.5686V13.2308H22.4314V11.6923ZM22.4314 20.9231H25.5686V22.4615H22.4314V20.9231Z" fill="white"/>
<path d="M38.1176 24V19.3846C33.3356 19.3836 28.7023 21.0155 25.0133 24H22.9867C19.2977 21.0155 14.6644 19.3836 9.88235 19.3846V24C9.46632 24 9.06734 24.1621 8.77316 24.4506C8.47899 24.7391 8.31372 25.1304 8.31372 25.5385V28.6154C8.31372 29.0234 8.47899 29.4147 8.77316 29.7032C9.06734 29.9918 9.46632 30.1538 9.88235 30.1538V36.3077C15.1248 36.303 20.1725 38.2557 24 41.7692C27.8315 38.262 32.8766 36.3102 38.1176 36.3077V30.1538C38.5337 30.1538 38.9327 29.9918 39.2268 29.7032C39.521 29.4147 39.6863 29.0234 39.6863 28.6154V25.5385C39.6863 25.1304 39.521 24.7391 39.2268 24.4506C38.9327 24.1621 38.5337 24 38.1176 24Z" fill="white"/>
<path d="M19.2942 13.2308C20.1605 13.2308 20.8628 12.542 20.8628 11.6923C20.8628 10.8426 20.1605 10.1538 19.2942 10.1538C18.4279 10.1538 17.7256 10.8426 17.7256 11.6923C17.7256 12.542 18.4279 13.2308 19.2942 13.2308Z" fill="white"/>
<path d="M28.7058 13.2308C29.5722 13.2308 30.2745 12.542 30.2745 11.6923C30.2745 10.8426 29.5722 10.1538 28.7058 10.1538C27.8395 10.1538 27.1372 10.8426 27.1372 11.6923C27.1372 12.542 27.8395 13.2308 28.7058 13.2308Z" fill="white"/>
<path d="M30.2744 17.8462H17.7254C16.4777 17.8449 15.2815 17.3583 14.3992 16.493C13.517 15.6277 13.0208 14.4545 13.0195 13.2308V10.1538C13.0208 8.93015 13.517 7.75691 14.3992 6.89163C15.2815 6.02634 16.4777 5.53968 17.7254 5.53846H30.2744C31.5221 5.53968 32.7184 6.02634 33.6006 6.89163C34.4829 7.75691 34.9791 8.93015 34.9803 10.1538V13.2308C34.9791 14.4545 34.4829 15.6277 33.6006 16.493C32.7184 17.3583 31.5221 17.8449 30.2744 17.8462ZM17.7254 8.61539C17.3095 8.61579 16.9108 8.77801 16.6167 9.06644C16.3226 9.35487 16.1572 9.74595 16.1568 10.1538V13.2308C16.1572 13.6387 16.3226 14.0297 16.6167 14.3182C16.9108 14.6066 17.3095 14.7688 17.7254 14.7692H30.2744C30.6903 14.7688 31.0891 14.6066 31.3832 14.3182C31.6773 14.0297 31.8427 13.6387 31.8431 13.2308V10.1538C31.8427 9.74595 31.6773 9.35487 31.3832 9.06644C31.0891 8.77801 30.6903 8.61579 30.2744 8.61539H17.7254Z" fill="white"/>
</g>
<defs>
<clipPath id="clip0_63_1055">
<rect width="37.6471" height="36.9231" fill="white" transform="translate(5.17651 5.53846)"/>
</clipPath>
</defs>
</svg>
