<svg width="836" height="810" viewBox="0 0 836 810" fill="none" xmlns="http://www.w3.org/2000/svg">
<path d="M417.621 810C648.266 810 835.242 702.049 835.242 568.886C835.242 435.722 648.266 327.771 417.621 327.771C186.975 327.771 0 435.722 0 568.886C0 702.049 186.975 810 417.621 810Z" fill="#F0F0F0"/>
<path d="M657.459 652.548C630.074 636.737 630.074 611.107 657.459 595.296C684.844 579.485 729.246 579.485 756.631 595.296C784.016 611.107 784.016 636.737 756.631 652.548C729.246 668.359 684.844 668.359 657.459 652.548Z" fill="#E0E0E0"/>
<path d="M100.466 654.746L28.431 613.163C24.372 610.823 24.372 607.012 28.431 604.673L447.434 362.761C449.712 361.607 452.229 361.005 454.781 361.005C457.334 361.005 459.851 361.607 462.129 362.761L534.181 404.344C538.24 406.683 538.24 410.494 534.181 412.834L115.178 654.746C112.897 655.9 110.377 656.501 107.822 656.501C105.266 656.501 102.746 655.9 100.466 654.746V654.746Z" fill="#E0E0E0"/>
<path d="M359.394 580.62L421.325 544.815C427.706 541.128 430.897 536.307 430.897 531.468C430.897 526.629 430.897 522.854 430.897 522.854L366.661 486.623C364.867 485.463 363.373 483.895 362.301 482.046C361.229 480.198 360.609 478.122 360.493 475.988V399.611L252.37 462.11V538.452C252.494 540.583 253.117 542.656 254.189 544.503C255.26 546.35 256.75 547.92 258.538 549.087L313.202 580.566C325.929 587.993 346.632 587.993 359.394 580.62Z" fill="#BA68C8"/>
<g opacity="0.6">
<path opacity="0.6" d="M359.394 580.62L421.325 544.815C427.706 541.128 430.897 536.307 430.897 531.468C430.897 526.629 430.897 522.854 430.897 522.854L366.661 486.623C364.867 485.463 363.373 483.895 362.301 482.046C361.229 480.198 360.609 478.122 360.493 475.988V399.611L252.37 462.11V538.452C252.494 540.583 253.117 542.656 254.189 544.503C255.26 546.35 256.75 547.92 258.538 549.087L313.202 580.566C325.929 587.993 346.632 587.993 359.394 580.62Z" fill="black"/>
</g>
<path opacity="0.3" d="M278.302 551.976V560.555L258.485 549.122C256.697 547.957 255.208 546.387 254.14 544.539C253.071 542.691 252.453 540.618 252.334 538.487V462.11L272.931 450.216C273.356 455.445 273.817 460.851 274.26 466.169L259.779 474.499V534.144C259.894 536.278 260.513 538.355 261.585 540.203C262.657 542.052 264.152 543.62 265.947 544.779L278.302 551.976Z" fill="black"/>
<path d="M259.779 534.162C259.901 536.294 260.523 538.368 261.594 540.216C262.666 542.063 264.157 543.633 265.947 544.797L313.131 571.987C325.894 579.343 346.596 579.361 359.376 571.987L421.414 536.183C434.194 528.809 434.194 516.862 421.414 509.489L374.194 482.299C372.408 481.131 370.921 479.56 369.853 477.713C368.785 475.866 368.165 473.794 368.044 471.664V412.001L259.921 474.499L259.779 534.162Z" fill="#BA68C8"/>
<path opacity="0.3" d="M259.779 534.162C259.901 536.294 260.523 538.368 261.594 540.216C262.666 542.063 264.157 543.633 265.947 544.797L313.131 571.987C325.894 579.343 346.596 579.361 359.376 571.987L421.414 536.183C434.194 528.809 434.194 516.862 421.414 509.489L374.194 482.299C372.408 481.131 370.921 479.56 369.853 477.713C368.785 475.866 368.165 473.794 368.044 471.664V412.001L259.921 474.499L259.779 534.162Z" fill="black"/>
<path opacity="0.5" d="M386.691 489.584L374.123 482.334C372.337 481.166 370.85 479.596 369.782 477.749C368.714 475.902 368.094 473.829 367.973 471.699V412.001L259.85 474.499V534.162C259.972 536.294 260.593 538.368 261.665 540.216C262.737 542.063 264.228 543.633 266.018 544.797L278.426 551.887L386.691 489.584Z" fill="black"/>
<path d="M430.915 522.871V531.486C430.915 536.325 427.706 541.128 421.343 544.833L359.305 580.62C352.516 584.244 344.933 586.126 337.238 586.097V577.518C344.933 577.547 352.516 575.665 359.305 572.041L421.343 536.218C427.706 532.549 430.915 527.71 430.915 522.871Z" fill="#BA68C8"/>
<path opacity="0.5" d="M430.915 522.871V531.486C430.915 536.325 427.706 541.128 421.343 544.833L359.305 580.62C352.516 584.244 344.933 586.126 337.238 586.097V577.518C344.933 577.547 352.516 575.665 359.305 572.041L421.343 536.218C427.706 532.549 430.915 527.71 430.915 522.871Z" fill="black"/>
<path d="M86.073 608.306C88.4105 609.435 90.9804 609.999 93.5758 609.953C96.1712 609.907 98.7195 609.252 101.015 608.04L519.327 366.536C521.57 365.073 523.437 363.102 524.777 360.783C526.116 358.465 526.891 355.863 527.038 353.189V14.7816C526.958 12.1802 526.264 9.63456 525.014 7.35209C523.763 5.06962 521.991 3.11493 519.841 1.6473C517.507 0.517072 514.938 -0.0463031 512.345 0.0029758C509.752 0.0522547 507.207 0.712796 504.917 1.9309L86.6048 243.506C84.3696 244.978 82.5141 246.958 81.1895 249.284C79.8649 251.609 79.1089 254.215 78.983 256.889V595.243C79.0621 597.823 79.7446 600.348 80.9758 602.617C82.2071 604.885 83.9528 606.834 86.073 608.306Z" fill="#BA68C8"/>
<path d="M101.068 608.023L519.381 366.518C521.626 365.058 523.496 363.088 524.836 360.769C526.176 358.449 526.948 355.846 527.091 353.171V14.7816C527.091 9.87175 523.635 7.86881 519.381 10.3326L101.068 251.837C98.8245 253.299 96.9569 255.269 95.6172 257.588C94.2775 259.907 93.5035 262.51 93.3581 265.184V603.574C93.3581 608.483 96.8145 610.486 101.068 608.023Z" fill="#BA68C8"/>
<path opacity="0.5" d="M101.068 608.023L519.381 366.518C521.626 365.058 523.496 363.088 524.836 360.769C526.176 358.449 526.948 355.846 527.091 353.171V14.7816C527.091 9.87175 523.635 7.86881 519.381 10.3326L101.068 251.837C98.8245 253.299 96.9569 255.269 95.6172 257.588C94.2775 259.907 93.5035 262.51 93.3581 265.184V603.574C93.3581 608.483 96.8145 610.486 101.068 608.023Z" fill="black"/>
<path d="M99.9341 616.814C97.7405 617.772 95.3654 618.242 92.9724 618.193C90.5795 618.144 88.2256 617.577 86.073 616.531C83.9481 615.055 82.1995 613.101 80.968 610.826C79.7365 608.55 79.0566 606.018 78.983 603.432V572.626L93.429 580.992V611.798C93.3403 616.283 96.1941 618.321 99.9341 616.814Z" fill="#BA68C8"/>
<path opacity="0.5" d="M99.9341 616.814C97.7405 617.772 95.3654 618.242 92.9724 618.193C90.5795 618.144 88.2256 617.577 86.073 616.531C83.9481 615.055 82.1995 613.101 80.968 610.826C79.7365 608.55 79.0566 606.018 78.983 603.432V572.626L93.429 580.992V611.798C93.3403 616.283 96.1941 618.321 99.9341 616.814Z" fill="black"/>
<path d="M93.3403 580.992V611.798C93.3403 616.708 96.8853 618.693 101.051 616.247L519.363 374.743C521.597 373.287 523.458 371.327 524.797 369.022C526.136 366.716 526.916 364.128 527.073 361.467V330.519L93.3403 580.992Z" fill="#BA68C8"/>
<path opacity="0.3" d="M93.3581 580.921V611.798C93.3581 616.708 96.9031 618.693 101.068 616.247L519.381 374.743C521.611 373.285 523.469 371.324 524.805 369.019C526.141 366.713 526.917 364.127 527.073 361.467V330.519L93.3581 580.921Z" fill="black"/>
<path d="M107.804 542.262V269.987C107.887 268.383 108.347 266.821 109.148 265.429C109.949 264.037 111.067 262.853 112.413 261.976L507.93 33.5525C510.483 32.0813 512.556 33.2689 512.556 36.2112V308.628C512.47 310.233 512.007 311.796 511.203 313.188C510.399 314.58 509.278 315.763 507.93 316.64L112.43 545.01C109.878 546.481 107.804 545.276 107.804 542.262Z" fill="#BA68C8"/>
<path d="M107.804 542.262V269.987C107.887 268.383 108.347 266.821 109.148 265.429C109.949 264.037 111.067 262.853 112.413 261.976L507.93 33.5525C510.483 32.0813 512.556 33.2689 512.556 36.2112V308.628C512.47 310.233 512.007 311.796 511.203 313.188C510.399 314.58 509.278 315.763 507.93 316.64L112.43 545.01C109.878 546.481 107.804 545.276 107.804 542.262Z" fill="#263238"/>
<path d="M310.207 465.566C308.101 466.935 306.349 468.782 305.092 470.957C303.836 473.132 303.11 475.572 302.975 478.08C302.975 482.689 306.219 484.567 310.207 482.263C312.315 480.892 314.068 479.042 315.325 476.864C316.582 474.686 317.306 472.242 317.439 469.731C317.439 465.123 314.195 463.262 310.207 465.566Z" fill="#BA68C8"/>
<path opacity="0.7" d="M95.6269 257.562C94.2532 259.871 93.4679 262.482 93.3403 265.166V580.992L78.983 572.626V256.889C79.076 254.196 79.8571 251.572 81.2518 249.267L95.6269 257.562Z" fill="black"/>
<path opacity="0.3" d="M527.002 13.5054C526.453 9.53497 523.245 8.18786 519.363 10.3326L101.051 251.837C98.7827 253.255 96.9107 255.225 95.6091 257.562L81.1455 249.214C82.4557 246.877 84.3332 244.908 86.6048 243.488L504.917 2.00181C507.21 0.783531 509.758 0.122959 512.354 0.0736843C514.95 0.0244098 517.521 0.587821 519.859 1.71821C521.824 3.05708 523.479 4.80229 524.711 6.83583C525.943 8.86937 526.725 11.1438 527.002 13.5054Z" fill="black"/>
<path d="M549.566 55.1593C548.945 54.8475 548.25 54.7108 547.557 54.7639C546.864 54.817 546.198 55.0579 545.631 55.4607L150.929 283.476C149.372 284.506 148.079 285.889 147.155 287.512C146.231 289.135 145.702 290.952 145.612 292.817V563.426C145.556 564.34 145.738 565.252 146.138 566.075C146.539 566.898 147.145 567.603 147.898 568.123C148.767 568.602 153.411 571.296 154.793 572.041C155.282 572.29 155.829 572.405 156.377 572.373C156.925 572.342 157.455 572.166 157.913 571.863L552.526 343.848C554.084 342.818 555.377 341.435 556.301 339.812C557.224 338.189 557.753 336.372 557.844 334.507V62.4975C557.923 61.8102 557.809 61.1143 557.515 60.4881C557.221 59.8619 556.758 59.3302 556.178 58.9525C555.292 58.3676 550.559 55.7443 549.566 55.1593Z" fill="#BA68C8"/>
<path d="M157.824 287.305L552.544 59.3779C555.522 57.6054 557.862 59.0589 557.862 62.4975V334.507C557.771 336.372 557.242 338.189 556.318 339.812C555.395 341.435 554.102 342.818 552.544 343.848L157.824 571.863C154.846 573.636 152.507 570.782 152.507 567.344V296.646C152.6 294.781 153.13 292.965 154.054 291.343C154.977 289.72 156.269 288.337 157.824 287.305V287.305Z" fill="#FAFAFA"/>
<path d="M554.955 60.406C556.001 60.406 556.16 61.7176 556.16 62.4975V334.507C556.065 336.069 555.606 337.587 554.822 338.94C554.037 340.294 552.948 341.446 551.64 342.306L156.973 570.321C156.708 570.493 156.403 570.591 156.087 570.605C155.095 570.605 154.315 569.081 154.315 567.344V296.646C154.4 295.085 154.844 293.564 155.613 292.202C156.381 290.84 157.454 289.674 158.746 288.794L553.43 60.9023C553.887 60.6076 554.412 60.4366 554.955 60.406V60.406ZM554.955 58.6335C554.101 58.6698 553.27 58.9262 552.544 59.3779L157.824 287.305C156.269 288.337 154.977 289.72 154.054 291.343C153.13 292.965 152.6 294.781 152.507 296.646V567.344C152.507 570.073 154.031 572.377 156.052 572.377C156.678 572.366 157.289 572.188 157.824 571.863L552.526 343.848C554.084 342.818 555.377 341.435 556.301 339.812C557.224 338.189 557.753 336.372 557.844 334.507V62.4975C557.844 60.0515 556.639 58.6335 554.866 58.6335H554.955Z" fill="#E0E0E0"/>
<path d="M147.792 568.123C148.377 568.425 152.578 570.818 154.421 571.881C153.759 571.332 153.235 570.636 152.89 569.848C152.545 569.06 152.39 568.202 152.436 567.343V314.318L145.523 310.277V563.426C145.466 564.338 145.644 565.249 146.042 566.072C146.439 566.895 147.042 567.601 147.792 568.123V568.123Z" fill="#F0F0F0"/>
<path d="M557.933 62.4443C557.933 59.0411 555.504 57.6586 552.615 59.3779L157.824 287.305C156.269 288.337 154.977 289.72 154.054 291.343C153.13 292.965 152.6 294.781 152.507 296.646V314.371L557.933 80.1694V62.4443Z" fill="#BA68C8"/>
<g opacity="0.4">
<path opacity="0.4" d="M552.544 59.3779L157.824 287.287C156.24 288.286 154.935 289.67 154.031 291.311L147.171 287.323C148.074 285.74 149.368 284.415 150.929 283.476L545.631 55.4607C546.196 55.0551 546.861 54.8111 547.555 54.7549C548.248 54.6987 548.943 54.8324 549.566 55.1416C550.524 55.7443 555.008 58.279 556.16 58.8994C555.564 58.6783 554.923 58.6064 554.293 58.6898C553.663 58.7732 553.062 59.0095 552.544 59.3779V59.3779Z" fill="white"/>
</g>
<path opacity="0.15" d="M145.523 310.294V292.729C145.596 290.814 146.164 288.952 147.171 287.323L154.049 291.293C153.055 292.894 152.499 294.727 152.436 296.611V314.336L145.523 310.294Z" fill="black"/>
<path d="M474.696 266.496L238.296 402.979C237.147 403.725 236.189 404.732 235.502 405.917C234.816 407.103 234.418 408.435 234.343 409.803V477.584C234.418 478.952 234.816 480.283 235.502 481.469C236.189 482.655 237.147 483.662 238.296 484.408L245.191 488.378C246.417 488.998 247.771 489.321 249.144 489.321C250.517 489.321 251.871 488.998 253.097 488.378L489.461 351.895C490.611 351.145 491.568 350.135 492.254 348.946C492.941 347.758 493.338 346.424 493.413 345.053V277.255C493.338 275.886 492.941 274.555 492.254 273.369C491.567 272.183 490.61 271.176 489.461 270.431L482.548 266.46C481.328 265.85 479.981 265.536 478.618 265.542C477.254 265.548 475.91 265.875 474.696 266.496Z" fill="#BA68C8"/>
<path opacity="0.5" d="M493.413 276.652C493.13 274.614 491.481 273.869 489.496 275.021L253.097 411.505C251.931 412.229 250.972 413.243 250.314 414.447L235.513 405.903C236.177 404.718 237.127 403.718 238.278 402.996L474.696 266.513C475.917 265.892 477.269 265.568 478.639 265.568C480.01 265.568 481.361 265.892 482.583 266.513L489.496 270.484C490.55 271.174 491.445 272.082 492.12 273.145C492.795 274.209 493.236 275.405 493.413 276.652Z" fill="white"/>
<path d="M252.423 488.715C251.265 489.171 250.025 489.379 248.782 489.324C247.539 489.269 246.322 488.953 245.209 488.396L238.296 484.426C237.148 483.677 236.193 482.67 235.506 481.485C234.82 480.299 234.421 478.969 234.343 477.601V409.821C234.397 408.437 234.799 407.09 235.513 405.903L250.314 414.447C249.594 415.618 249.191 416.955 249.144 418.329V486.127C249.144 488.378 250.562 489.424 252.423 488.715Z" fill="#263238"/>
<path d="M253.097 411.505L489.496 275.021C491.676 273.763 493.449 274.773 493.449 277.29V345.089C493.374 346.459 492.977 347.793 492.29 348.982C491.603 350.171 490.646 351.181 489.496 351.93L253.132 488.414C250.952 489.672 249.179 488.644 249.179 486.127V418.346C249.25 416.979 249.642 415.647 250.322 414.459C251.003 413.27 251.953 412.258 253.097 411.505V411.505Z" fill="#BA68C8"/>
<path d="M412.02 302.69L238.314 402.996C237.163 403.718 236.212 404.718 235.549 405.903L250.349 414.447C251.008 413.243 251.966 412.229 253.132 411.505L426.838 311.216L412.02 302.69Z" fill="#455A64"/>
<path d="M426.802 311.216L253.097 411.505C251.947 412.254 250.989 413.265 250.303 414.453C249.616 415.642 249.219 416.976 249.144 418.346V486.109C249.144 488.626 250.916 489.654 253.097 488.396L426.802 388.107V311.216Z" fill="#37474F"/>
<path d="M293.155 403.245L382.791 351.505C386.496 349.36 389.509 350.885 389.509 354.908C389.343 357.168 388.647 359.357 387.477 361.297C386.306 363.237 384.695 364.874 382.773 366.075L293.155 417.832C289.451 419.977 286.42 418.453 286.42 414.429C286.587 412.167 287.284 409.977 288.454 408.034C289.624 406.091 291.234 404.45 293.155 403.245V403.245Z" fill="#BA68C8"/>
<path d="M311.518 420.385C311.535 420.366 311.556 420.351 311.578 420.34C311.601 420.33 311.626 420.325 311.651 420.325C311.677 420.325 311.701 420.33 311.724 420.34C311.747 420.351 311.768 420.366 311.784 420.385C311.864 420.505 311.901 420.649 311.891 420.792V430.878C311.892 431.852 311.809 432.825 311.642 433.785C311.496 434.662 311.246 435.519 310.898 436.337C310.58 437.087 310.163 437.791 309.657 438.429C309.159 439.021 308.558 439.519 307.885 439.9C307.357 440.244 306.742 440.428 306.112 440.432C305.872 440.413 305.638 440.345 305.424 440.232C305.211 440.119 305.023 439.964 304.872 439.776C304.483 439.255 304.227 438.646 304.127 438.004C303.957 437.146 303.88 436.272 303.897 435.398V425.295C303.896 425.118 303.932 424.943 304.003 424.781C304.046 424.634 304.141 424.509 304.269 424.426L305.386 423.77C305.422 423.737 305.469 423.718 305.518 423.718C305.568 423.718 305.615 423.737 305.651 423.77C305.733 423.89 305.771 424.034 305.758 424.178V434.139C305.744 434.688 305.798 435.235 305.917 435.77C305.966 436.112 306.114 436.433 306.343 436.692C306.422 436.787 306.523 436.862 306.637 436.911C306.751 436.96 306.875 436.982 306.999 436.975C307.302 436.955 307.595 436.858 307.849 436.692C308.165 436.503 308.451 436.271 308.7 436.001C308.977 435.682 309.204 435.323 309.374 434.937C309.574 434.482 309.722 434.007 309.817 433.519C309.92 432.934 309.968 432.341 309.959 431.747V421.767C309.964 421.589 310.006 421.414 310.083 421.253C310.126 421.107 310.22 420.981 310.349 420.899L311.518 420.385Z" fill="#FAFAFA"/>
<path d="M318.467 429.921C318.476 429.791 318.445 429.661 318.378 429.549C318.336 429.502 318.283 429.467 318.225 429.446C318.166 429.424 318.103 429.417 318.041 429.425C317.824 429.395 317.603 429.395 317.385 429.425L316.357 429.62C316.026 429.702 315.679 429.702 315.347 429.62C315.087 429.536 314.862 429.367 314.709 429.141C314.536 428.853 314.421 428.534 314.372 428.202C314.199 427.252 314.199 426.279 314.372 425.33C314.505 424.786 314.695 424.257 314.939 423.753C315.182 423.249 315.479 422.773 315.826 422.335C316.161 421.916 316.569 421.562 317.031 421.289C317.404 421.061 317.821 420.916 318.254 420.863C318.568 420.831 318.885 420.899 319.158 421.058C319.418 421.217 319.622 421.452 319.743 421.732C319.886 422.063 319.964 422.418 319.973 422.778C319.992 422.956 319.955 423.135 319.867 423.292C319.824 423.438 319.729 423.564 319.601 423.646L318.538 424.267C318.489 424.295 318.434 424.309 318.378 424.309C318.322 424.309 318.267 424.295 318.219 424.267L317.988 424.089C317.897 424.017 317.785 423.974 317.669 423.965C317.441 423.991 317.223 424.07 317.031 424.196C316.753 424.363 316.507 424.579 316.304 424.834C316.09 425.113 315.977 425.457 315.985 425.809C315.96 425.943 315.96 426.082 315.985 426.216C316.019 426.266 316.064 426.308 316.116 426.339C316.168 426.37 316.226 426.388 316.287 426.394C316.48 426.426 316.678 426.426 316.871 426.394L317.864 426.216C318.697 426.057 319.264 426.216 319.637 426.677C320.028 427.334 320.207 428.095 320.151 428.857C320.146 429.384 320.075 429.908 319.938 430.417C319.798 430.97 319.596 431.505 319.335 432.012C319.075 432.537 318.747 433.026 318.36 433.466C317.993 433.897 317.556 434.262 317.066 434.547C316.677 434.796 316.233 434.948 315.772 434.99C315.439 435.002 315.111 434.909 314.833 434.724C314.559 434.537 314.349 434.272 314.23 433.962C314.087 433.626 314.015 433.264 314.018 432.899C314.001 432.715 314.038 432.53 314.124 432.367C314.167 432.221 314.262 432.095 314.39 432.012L315.453 431.392C315.595 431.392 315.702 431.303 315.772 431.392L316.003 431.64C316.05 431.693 316.107 431.736 316.171 431.766C316.235 431.797 316.304 431.814 316.375 431.817C316.625 431.819 316.868 431.738 317.066 431.587C317.386 431.405 317.674 431.172 317.917 430.896C318.038 430.75 318.139 430.589 318.219 430.417C318.344 430.277 318.429 430.105 318.467 429.921V429.921Z" fill="#FAFAFA"/>
<path d="M322.083 425.117C322.079 424.197 322.156 423.277 322.313 422.37C322.461 421.516 322.693 420.679 323.004 419.871C323.265 419.146 323.623 418.461 324.068 417.832C324.439 417.292 324.923 416.839 325.486 416.503C325.897 416.227 326.398 416.119 326.886 416.202C327.319 416.302 327.699 416.561 327.95 416.928C328.283 417.409 328.518 417.951 328.641 418.524C328.811 419.268 328.894 420.029 328.889 420.792V421.891C328.895 422.076 328.852 422.26 328.765 422.423C328.722 422.569 328.627 422.695 328.499 422.778L323.891 425.454C323.88 425.766 323.922 426.078 324.015 426.376C324.083 426.577 324.206 426.754 324.369 426.89C324.515 427.005 324.698 427.062 324.883 427.049C325.097 427.024 325.303 426.951 325.486 426.837C325.754 426.691 325.994 426.499 326.195 426.27C326.376 426.065 326.531 425.839 326.656 425.596C326.731 425.456 326.814 425.32 326.904 425.188C326.98 425.098 327.07 425.02 327.17 424.958L328.269 424.32C328.306 424.29 328.353 424.273 328.402 424.273C328.45 424.273 328.497 424.29 328.535 424.32C328.581 424.376 328.615 424.441 328.633 424.512C328.651 424.582 328.654 424.656 328.641 424.727C328.622 425.073 328.55 425.414 328.428 425.738C328.275 426.229 328.073 426.704 327.826 427.156C327.548 427.675 327.215 428.162 326.833 428.609C326.452 429.066 325.996 429.455 325.486 429.761C325.067 430.036 324.565 430.155 324.068 430.098C323.632 429.993 323.252 429.727 323.004 429.354C322.655 428.816 322.42 428.213 322.313 427.581C322.152 426.77 322.075 425.944 322.083 425.117V425.117ZM325.486 419.463C325.213 419.61 324.977 419.816 324.795 420.066C324.598 420.314 324.437 420.588 324.316 420.881C324.192 421.174 324.091 421.476 324.015 421.785C323.952 422.065 323.911 422.35 323.891 422.636L327.01 420.863C326.992 420.619 326.957 420.376 326.904 420.137C326.877 419.923 326.791 419.72 326.656 419.552C326.603 419.475 326.534 419.41 326.455 419.362C326.376 419.313 326.287 419.281 326.195 419.268C325.943 419.247 325.691 419.316 325.486 419.463V419.463Z" fill="#FAFAFA"/>
<path d="M334.455 414.518C333.918 414.824 333.495 415.297 333.249 415.865C332.974 416.613 332.847 417.408 332.877 418.205V424.603C332.88 424.786 332.843 424.967 332.771 425.135C332.727 425.281 332.633 425.407 332.505 425.49L331.459 426.092C331.443 426.111 331.422 426.126 331.399 426.137C331.376 426.147 331.351 426.152 331.326 426.152C331.301 426.152 331.276 426.147 331.253 426.137C331.23 426.126 331.21 426.111 331.193 426.092C331.114 425.972 331.077 425.828 331.087 425.685V414.216C331.088 414.034 331.124 413.853 331.193 413.685C331.243 413.542 331.336 413.418 331.459 413.33L332.505 412.728C332.541 412.694 332.589 412.675 332.638 412.675C332.687 412.675 332.735 412.694 332.771 412.728C332.853 412.84 332.891 412.979 332.877 413.118V413.685C333.088 413.209 333.35 412.758 333.657 412.338C333.937 411.949 334.301 411.629 334.721 411.398L335.359 411.026C335.392 410.993 335.436 410.975 335.483 410.975C335.529 410.975 335.574 410.993 335.607 411.026C335.692 411.144 335.736 411.288 335.731 411.434V413.047C335.728 413.231 335.686 413.412 335.607 413.578C335.562 413.719 335.475 413.843 335.359 413.933L334.455 414.518Z" fill="#FAFAFA"/>
<path d="M347.678 413.667C347.694 413.648 347.715 413.633 347.738 413.623C347.761 413.612 347.785 413.607 347.811 413.607C347.836 413.607 347.861 413.612 347.883 413.623C347.906 413.633 347.927 413.648 347.943 413.667C348.023 413.788 348.06 413.931 348.05 414.075V415.847C348.049 416.03 348.013 416.21 347.943 416.379C347.883 416.511 347.791 416.626 347.678 416.716L341.616 420.261C341.58 420.294 341.532 420.313 341.483 420.313C341.433 420.313 341.386 420.294 341.35 420.261C341.27 420.147 341.233 420.009 341.243 419.871V403.918C341.244 403.736 341.28 403.555 341.35 403.386C341.399 403.248 341.493 403.13 341.616 403.05L342.732 402.394C342.768 402.36 342.816 402.341 342.865 402.341C342.915 402.341 342.962 402.36 342.998 402.394C343.077 402.508 343.115 402.645 343.105 402.784V416.273L347.678 413.667Z" fill="#FAFAFA"/>
<path d="M353.119 400.55C353.518 400.274 354 400.143 354.484 400.178C354.899 400.211 355.286 400.401 355.565 400.71C355.896 401.089 356.138 401.537 356.274 402.022C356.464 402.649 356.571 403.299 356.593 403.954C356.593 404.095 356.593 404.29 356.593 404.521V405.886C356.593 406.098 356.593 406.293 356.593 406.453C356.558 407.223 356.451 407.989 356.274 408.739C356.11 409.471 355.873 410.183 355.565 410.866C355.284 411.502 354.921 412.098 354.484 412.639C354.11 413.129 353.647 413.544 353.119 413.862C352.709 414.129 352.225 414.259 351.737 414.234C351.327 414.199 350.947 414.009 350.673 413.702C350.333 413.337 350.09 412.892 349.964 412.408C349.775 411.781 349.668 411.132 349.645 410.476C349.645 410.335 349.645 410.157 349.645 409.927V408.562C349.645 408.332 349.645 408.137 349.645 407.995C349.666 407.219 349.767 406.446 349.946 405.691C350.119 404.954 350.362 404.236 350.673 403.546C350.955 402.914 351.312 402.319 351.737 401.773C352.112 401.279 352.582 400.863 353.119 400.55V400.55ZM354.785 405.123C354.785 404.731 354.719 404.342 354.59 403.971C354.525 403.745 354.388 403.547 354.2 403.404C354.049 403.303 353.867 403.259 353.686 403.28C353.484 403.318 353.291 403.397 353.119 403.511C352.911 403.625 352.72 403.768 352.552 403.936C352.349 404.147 352.176 404.386 352.038 404.645C351.86 404.967 351.729 405.314 351.648 405.673C351.532 406.126 351.46 406.589 351.435 407.056C351.435 407.197 351.435 407.357 351.435 407.552V408.81C351.435 409.005 351.435 409.165 351.435 409.271C351.452 409.663 351.523 410.051 351.648 410.423C351.713 410.65 351.85 410.849 352.038 410.99C352.112 411.043 352.195 411.079 352.284 411.097C352.372 411.116 352.464 411.115 352.552 411.097C352.753 411.063 352.945 410.991 353.119 410.884C353.325 410.766 353.515 410.623 353.686 410.459C353.884 410.243 354.057 410.005 354.2 409.75C354.371 409.424 354.502 409.079 354.59 408.722C354.706 408.269 354.772 407.806 354.785 407.339C354.796 407.174 354.796 407.008 354.785 406.843V405.602C354.796 405.443 354.796 405.283 354.785 405.123Z" fill="#FAFAFA"/>
<path d="M362.017 410.92C362.244 410.781 362.447 410.608 362.62 410.406C362.833 410.155 363.018 409.882 363.169 409.59C363.345 409.234 363.482 408.859 363.577 408.474C363.686 408.039 363.74 407.592 363.737 407.144V406.24C363.737 406.417 363.559 406.63 363.435 406.878C363.314 407.137 363.171 407.386 363.01 407.623C362.825 407.872 362.623 408.109 362.407 408.332C362.185 408.565 361.928 408.762 361.645 408.917C361.463 409.041 361.257 409.127 361.041 409.17C360.825 409.212 360.602 409.211 360.386 409.165C359.993 409.041 359.654 408.784 359.429 408.438C359.14 407.98 358.931 407.477 358.809 406.949C358.658 406.28 358.575 405.597 358.561 404.911C358.561 404.68 358.561 404.397 358.561 404.06C358.561 403.723 358.561 403.44 358.561 403.191C358.583 402.412 358.666 401.636 358.809 400.869C358.955 400.115 359.162 399.374 359.429 398.654C359.68 398.029 360.001 397.434 360.386 396.881C360.713 396.393 361.143 395.982 361.645 395.676C361.881 395.534 362.138 395.433 362.407 395.375C362.606 395.338 362.811 395.338 363.01 395.375C363.167 395.419 363.312 395.498 363.435 395.605C363.549 395.692 363.65 395.793 363.737 395.906V395.339C363.737 395.157 363.774 394.976 363.843 394.808C363.892 394.669 363.986 394.551 364.109 394.471L365.155 393.85C365.191 393.817 365.238 393.798 365.287 393.798C365.337 393.798 365.384 393.817 365.42 393.85C365.506 393.969 365.55 394.112 365.544 394.258V405.779C365.592 407.505 365.272 409.221 364.605 410.813C364.082 412.065 363.176 413.12 362.017 413.827C361.622 414.072 361.17 414.212 360.706 414.234C360.338 414.256 359.972 414.163 359.66 413.968C359.36 413.744 359.117 413.453 358.951 413.118C358.778 412.713 358.682 412.281 358.667 411.841C358.651 411.658 358.688 411.473 358.774 411.31C358.817 411.163 358.911 411.038 359.039 410.955L359.979 410.423C360 410.4 360.026 410.382 360.055 410.369C360.084 410.357 360.116 410.35 360.147 410.35C360.179 410.35 360.21 410.357 360.239 410.369C360.268 410.382 360.294 410.4 360.316 410.423C360.403 410.515 360.48 410.616 360.546 410.725C360.654 410.915 360.832 411.055 361.042 411.115C361.255 411.274 361.574 411.097 362.017 410.92ZM360.351 402.323C360.351 402.796 360.351 403.256 360.351 403.705C360.3 404.413 360.501 405.116 360.918 405.691C361.076 405.827 361.277 405.901 361.485 405.901C361.694 405.901 361.895 405.827 362.053 405.691C362.567 405.356 362.969 404.874 363.205 404.308C363.528 403.569 363.708 402.775 363.737 401.968C363.737 401.703 363.737 401.384 363.737 401.011C363.737 400.639 363.737 400.32 363.737 400.09C363.773 399.455 363.584 398.827 363.205 398.317C363.048 398.173 362.842 398.092 362.629 398.092C362.415 398.092 362.21 398.173 362.053 398.317C361.548 398.65 361.154 399.125 360.918 399.682C360.554 400.515 360.361 401.413 360.351 402.323V402.323Z" fill="#FAFAFA"/>
<path d="M369.674 386.583C369.709 386.554 369.753 386.538 369.799 386.538C369.844 386.538 369.888 386.554 369.923 386.583C370.015 386.698 370.06 386.844 370.047 386.991V388.923C370.048 389.107 370.005 389.289 369.923 389.454C369.873 389.588 369.787 389.704 369.674 389.791L368.487 390.483C368.47 390.501 368.45 390.517 368.427 390.527C368.404 390.537 368.379 390.543 368.354 390.543C368.329 390.543 368.304 390.537 368.281 390.527C368.258 390.517 368.238 390.501 368.221 390.483C368.175 390.429 368.14 390.368 368.118 390.3C368.097 390.233 368.09 390.163 368.097 390.093V388.161C368.096 387.976 368.138 387.794 368.221 387.629C368.271 387.491 368.364 387.372 368.487 387.292L369.674 386.583ZM369.976 403.227C369.976 403.404 369.94 403.579 369.869 403.741C369.813 403.88 369.721 404.002 369.604 404.095L368.54 404.698C368.525 404.717 368.506 404.731 368.485 404.742C368.463 404.752 368.44 404.757 368.416 404.757C368.392 404.757 368.369 404.752 368.347 404.742C368.326 404.731 368.307 404.717 368.292 404.698C368.199 404.583 368.155 404.437 368.168 404.29V392.822C368.167 392.638 368.209 392.455 368.292 392.291C368.342 392.153 368.428 392.03 368.54 391.936L369.604 391.333C369.64 391.3 369.687 391.281 369.736 391.281C369.786 391.281 369.833 391.3 369.869 391.333C369.949 391.447 369.986 391.585 369.976 391.723V403.227Z" fill="#FAFAFA"/>
<path d="M379.299 397.821C379.298 398.003 379.262 398.184 379.193 398.353C379.143 398.491 379.05 398.609 378.927 398.689L377.863 399.31C377.83 399.342 377.786 399.36 377.739 399.36C377.693 399.36 377.648 399.342 377.615 399.31C377.523 399.195 377.478 399.049 377.491 398.902V392.663C377.546 391.926 377.412 391.188 377.101 390.518C376.853 390.075 376.463 390.004 375.914 390.323C375.366 390.691 374.959 391.235 374.762 391.865C374.466 392.701 374.322 393.584 374.336 394.471V400.728C374.335 400.91 374.299 401.091 374.23 401.259C374.186 401.406 374.092 401.531 373.964 401.614L372.918 402.217C372.902 402.235 372.881 402.251 372.858 402.261C372.835 402.271 372.81 402.277 372.785 402.277C372.76 402.277 372.735 402.271 372.712 402.261C372.689 402.251 372.669 402.235 372.652 402.217C372.57 402.104 372.532 401.965 372.546 401.827V390.359C372.543 390.176 372.58 389.995 372.652 389.827C372.696 389.681 372.79 389.555 372.918 389.472L373.964 388.87C373.981 388.851 374.001 388.836 374.024 388.825C374.047 388.815 374.072 388.81 374.097 388.81C374.122 388.81 374.147 388.815 374.17 388.825C374.193 388.836 374.213 388.851 374.23 388.87C374.309 388.99 374.347 389.133 374.336 389.277V389.827C374.569 389.287 374.854 388.77 375.187 388.285C375.479 387.837 375.874 387.466 376.339 387.203C376.742 386.909 377.244 386.782 377.739 386.849C377.936 386.898 378.119 386.989 378.278 387.114C378.437 387.239 378.567 387.396 378.661 387.576C378.918 388.055 379.087 388.578 379.157 389.118C379.252 389.823 379.299 390.533 379.299 391.245V397.821Z" fill="#FAFAFA"/>
<path d="M468.705 346.223L451.493 356.149L454.17 332.007C452.096 330.909 450.784 328.232 450.784 324.386C450.784 317.526 454.968 309.568 460.108 306.661C465.248 303.754 469.414 306.838 469.414 313.751C469.307 317.818 468.147 321.788 466.046 325.272L468.705 346.223Z" fill="#455A64"/>
<path d="M468.722 346.223L453.567 337.485L451.493 356.167L468.722 346.223Z" fill="#37474F"/>
<path d="M460.072 306.607C456.324 309.14 453.529 312.852 452.132 317.154L466.01 325.166C468.111 321.681 469.272 317.712 469.378 313.644C469.414 306.785 465.248 303.647 460.072 306.607Z" fill="#37474F"/>
<path d="M376.41 226.224C370.508 222.821 362.372 223.3 353.367 228.493C335.394 238.88 320.824 264.103 320.824 284.859C320.824 295.281 324.511 302.584 330.431 305.952L341.899 312.616C347.784 316.019 355.92 315.523 364.942 310.33C382.915 299.961 397.485 274.72 397.485 253.964C397.485 243.595 393.834 236.239 387.949 232.924" fill="#BA68C8"/>
<path d="M364.924 235.175C346.951 245.562 332.381 270.803 332.381 291.541C332.381 312.279 346.951 320.717 364.924 310.33C382.897 299.943 397.485 274.72 397.467 253.964C397.45 233.208 382.88 224.806 364.924 235.175Z" fill="#BA68C8"/>
<path d="M382.88 281.225V283.6C378.574 291.286 372.398 297.761 364.924 302.424C357.923 306.448 351.595 306.891 346.951 304.321V299.429C347.189 294.339 348.642 289.38 351.189 284.967C353.736 280.554 357.303 276.816 361.592 274.064L366.324 271.335C370.508 268.924 374.584 268.605 377.775 270.466C380.965 272.327 382.88 276.244 382.88 281.225Z" fill="#BA68C8"/>
<path opacity="0.4" d="M376.41 226.224L387.931 232.924C382.047 229.503 373.911 229.982 364.889 235.175C353.119 241.982 342.803 255.152 337.096 269.261L325.557 262.578C331.282 248.398 341.509 235.299 353.35 228.493C362.389 223.317 370.525 222.821 376.41 226.224Z" fill="white"/>
<path opacity="0.2" d="M341.492 312.35L330.449 305.952C324.529 302.584 320.842 295.317 320.842 284.859L332.381 291.559C332.452 301.662 335.855 308.858 341.492 312.35Z" fill="black"/>
<path opacity="0.1" d="M325.592 262.578L337.131 269.261C334.175 276.324 332.587 283.885 332.452 291.541V291.541L320.913 284.841C321.055 277.191 322.643 269.638 325.592 262.578Z" fill="black"/>
<path d="M360.812 270.218C359.712 270.23 358.629 269.948 357.675 269.402C356.524 268.635 355.602 267.572 355.006 266.324C354.41 265.076 354.162 263.69 354.289 262.312C354.439 259.083 355.361 255.937 356.977 253.137C358.593 250.336 360.856 247.964 363.577 246.218V246.218C364.67 245.346 366.001 244.823 367.396 244.719C368.79 244.615 370.184 244.935 371.394 245.635C372.604 246.336 373.575 247.386 374.179 248.648C374.783 249.909 374.992 251.323 374.779 252.705C374.626 255.934 373.703 259.08 372.087 261.879C370.472 264.679 368.21 267.052 365.491 268.8C364.084 269.678 362.47 270.167 360.812 270.218V270.218Z" fill="white"/>
<path d="M377.775 270.448C374.584 268.587 370.508 268.906 366.324 271.317L361.592 274.046C357.301 276.8 353.732 280.541 351.185 284.957C348.638 289.374 347.186 294.336 346.951 299.429V304.339C351.595 306.909 357.923 306.466 364.924 302.442C372.398 297.778 378.574 291.304 382.88 283.618V281.243C382.88 276.244 381.036 272.327 377.775 270.448Z" fill="white"/>
<path d="M742.167 577.092C742.167 577.092 744.525 556.389 754.823 540.313C765.121 524.236 779.266 514.221 792.471 513.176C805.676 512.13 816.347 524.289 802.22 532.673C788.093 541.057 762.994 549.53 751.437 580.726L742.167 577.092Z" fill="#BA68C8"/>
<path opacity="0.1" d="M742.167 577.092C742.167 577.092 744.525 556.389 754.823 540.313C765.121 524.236 779.266 514.221 792.471 513.176C805.676 512.13 816.347 524.289 802.22 532.673C788.093 541.057 762.994 549.53 751.437 580.726L742.167 577.092Z" fill="black"/>
<path d="M746.049 571.704H745.907C745.734 571.633 745.595 571.496 745.522 571.324C745.449 571.151 745.447 570.956 745.517 570.782C759.449 536.484 785.966 522.145 798.054 519.379C798.145 519.359 798.239 519.356 798.331 519.371C798.423 519.386 798.511 519.42 798.59 519.469C798.669 519.519 798.737 519.583 798.792 519.659C798.846 519.735 798.884 519.82 798.905 519.911C798.926 520.002 798.929 520.096 798.914 520.188C798.898 520.28 798.865 520.368 798.816 520.447C798.766 520.526 798.702 520.594 798.626 520.648C798.55 520.702 798.464 520.741 798.373 520.762C786.533 523.492 760.53 537.565 746.829 571.332C746.761 571.473 746.646 571.587 746.504 571.655C746.363 571.722 746.202 571.74 746.049 571.704V571.704Z" fill="white"/>
<path d="M816.559 572.112C815.372 574.806 812.429 576.224 809.7 577.323C806.97 578.422 803.992 579.609 802.503 582.162C799.526 587.302 804.418 594.569 801.227 599.55C800.476 600.553 799.53 601.393 798.445 602.021C797.361 602.648 796.161 603.05 794.917 603.201C792.879 603.574 790.805 603.574 788.749 603.751C787.764 603.738 786.781 603.661 785.806 603.52C782.942 602.881 779.947 603.199 777.281 604.424C773.186 606.729 771.963 611.887 769.446 615.875C767.908 618.223 765.882 620.211 763.505 621.704C761.128 623.197 758.457 624.159 755.674 624.525C753.901 624.755 750.356 625.092 748.584 624.046C748.445 623.978 748.314 623.895 748.194 623.798V623.798C747.928 623.514 747.609 623.142 747.467 622.947C747.458 622.906 747.458 622.864 747.467 622.823C746.74 620.147 747.928 617.381 747.981 614.616V614.12C747.857 610.912 747.768 607.721 747.697 604.531C747.544 598.622 747.485 592.714 747.52 586.806C747.52 582.977 747.095 578.794 748.726 575.196C750.498 571.225 754.965 571.137 756.649 567.255C757.322 565.695 757.677 564.047 758.333 562.469C759.346 560.176 760.969 558.204 763.026 556.77C765.082 555.335 767.493 554.492 769.996 554.333C777.777 553.943 784.743 560.236 792.524 559.651C794.527 559.491 796.495 558.871 798.48 558.516C804.772 557.329 812.057 559.119 815.602 564.454C816.38 565.553 816.875 566.827 817.042 568.163C817.209 569.499 817.043 570.855 816.559 572.112V572.112Z" fill="#BA68C8"/>
<path d="M746.687 610.54C746.52 610.49 746.378 610.377 746.292 610.225C746.206 610.073 746.182 609.893 746.226 609.724C756.968 569.417 799.402 563.639 809.381 564.313C809.469 564.317 809.555 564.339 809.634 564.377C809.713 564.416 809.783 564.47 809.841 564.536C809.899 564.602 809.943 564.679 809.97 564.762C809.998 564.846 810.008 564.934 810.001 565.022C809.983 565.194 809.899 565.353 809.767 565.465C809.635 565.577 809.465 565.634 809.292 565.624C799.561 564.933 758.013 570.623 747.502 610.079C747.453 610.246 747.34 610.388 747.188 610.474C747.036 610.56 746.856 610.584 746.687 610.54V610.54Z" fill="white"/>
<path d="M793.889 590.12C793.755 590.102 793.63 590.039 793.535 589.943C789.611 586.543 784.986 584.051 779.989 582.645C774.992 581.238 769.745 580.952 764.625 581.807C764.452 581.823 764.28 581.774 764.142 581.669C764.004 581.564 763.911 581.411 763.88 581.24C763.855 581.066 763.898 580.89 764 580.747C764.103 580.605 764.257 580.508 764.43 580.478C769.77 579.589 775.242 579.892 780.451 581.366C785.661 582.84 790.479 585.448 794.563 589.004C794.625 589.065 794.675 589.138 794.709 589.218C794.743 589.299 794.761 589.386 794.761 589.473C794.761 589.561 794.743 589.648 794.709 589.728C794.675 589.809 794.625 589.882 794.563 589.943C794.482 590.039 794.375 590.107 794.254 590.139C794.133 590.171 794.006 590.164 793.889 590.12Z" fill="white"/>
<path d="M644.626 90.2727L650.263 92.4352V80.0276C650.263 70.1725 658.115 67.815 666.641 72.7426C675.184 77.6702 682.097 89.6346 682.097 99.4898V101.262C683.285 100.899 684.54 100.81 685.768 101C686.996 101.19 688.164 101.656 689.187 102.361C692.424 104.472 695.118 107.317 697.049 110.665C698.98 114.013 700.094 117.769 700.301 121.628V122.444L708.17 126.981C710.3 128.371 712.072 130.243 713.343 132.444C714.615 134.646 715.351 137.116 715.491 139.655C715.491 144.334 712.212 146.231 708.17 143.891L644.626 107.182C642.495 105.796 640.723 103.925 639.454 101.722C638.184 99.5195 637.454 97.0478 637.323 94.509C637.323 89.8473 640.567 87.9508 644.626 90.2727Z" fill="#E6E6E6"/>
<path d="M720.117 80.453L730.345 86.3555C730.289 85.9086 730.259 85.4588 730.256 85.0084V82.0483C730.256 76.7308 733.943 74.6392 738.516 77.2802C740.481 78.4834 742.162 80.098 743.443 82.0128C744.188 75.3837 749.399 72.9199 755.709 76.5535C759.315 78.8998 762.318 82.0627 764.473 85.7858C766.629 89.509 767.877 93.6876 768.117 97.9832V102.414C768.162 104.185 767.805 105.943 767.071 107.555L775.579 112.447C776.905 113.326 778.006 114.504 778.794 115.886C779.582 117.269 780.035 118.816 780.117 120.405C780.117 123.33 778.06 124.518 775.526 123.064L720.117 91.159C718.777 90.2858 717.662 89.108 716.865 87.7217C716.067 86.3355 715.608 84.7801 715.526 83.1827C715.526 80.1872 717.582 78.9996 720.117 80.453Z" fill="#E6E6E6"/>
<path d="M680.519 349.467C673.075 362.052 665.914 372.988 660.88 378.235C651.326 382.666 628.886 389.508 620.112 390.642C618.571 390.838 617.011 390.473 615.716 389.614C612.26 387.345 609.584 386.973 605.95 385.715C603.096 384.74 601.891 383.375 601.359 383.942C600.81 384.586 600.534 385.419 600.59 386.263C600.646 387.108 601.03 387.897 601.66 388.462C603.024 389.757 604.535 390.888 606.163 391.83C602.271 392.795 598.211 392.868 594.287 392.042C586.683 390.04 583.102 393.691 588.243 401.951C590.015 404.893 597.318 409.626 611.994 408.35C617.23 408.067 622.444 407.475 627.61 406.577C641.684 403.564 657.335 400.657 666.96 397.714C670.54 396.307 673.744 394.086 676.318 391.227C692.502 372.775 697.872 359.623 704.962 347.677L704.36 328.179C692.874 327.789 686.741 338.938 680.519 349.467Z" fill="#FFA8A7"/>
<path d="M706.327 327.789C702.997 327.321 699.601 327.772 696.509 329.093C693.416 330.415 690.743 332.556 688.779 335.287C680.909 345.372 666.977 369.585 666.977 369.585C666.977 369.585 671.533 381.726 683.834 383.765L703.597 357.071C703.597 357.071 712.956 338.53 706.327 327.789Z" fill="#455A64"/>
<path d="M749.062 599.94H736.176V622.912H749.062V599.94Z" fill="#FFA8A7"/>
<path d="M704.395 598.717L691.527 599.178L690.871 574.859L704.395 574.398V598.717Z" fill="#FFA8A7"/>
<path d="M750.87 401.082C750.87 413.88 748.991 516.987 748.991 516.987C749.275 520.673 752.536 527.48 751.881 541.642C750.906 560.874 749.612 611.426 749.612 611.426C747.4 612.558 744.959 613.172 742.475 613.221C739.99 613.27 737.527 612.753 735.272 611.709C735.272 611.709 724.814 540.809 722.51 521.826C720.489 505.182 715.314 450.092 715.314 450.092L708.348 515.214C709.824 522.201 710.361 529.355 709.943 536.484C709.34 545.347 705.193 591.219 705.193 591.219C702.966 592.533 700.47 593.322 697.894 593.528C695.317 593.733 692.728 593.35 690.321 592.407C690.321 592.407 682.983 523.279 682.841 515.161C682.664 505.944 687.131 400.976 687.131 400.976L750.87 401.082Z" fill="#37474F"/>
<path d="M736.176 616.282V614.368C734.935 614.918 732.082 626.297 726.959 631.154C722.9 635.018 717.37 639.467 715.952 643.774C714.534 648.081 723.662 650.722 727.473 650.031C731.869 649.216 739.526 645.972 741.44 642.941C743.355 639.91 744.259 635.514 745.818 633.316C747.378 631.118 750.976 628.672 751.81 626.12C752.069 623.732 751.822 621.316 751.083 619.03C750.48 616.655 749.842 614.049 749.062 614.28V615.733C747.245 617.224 744.961 618.028 742.61 618.002C740.731 618.161 736.158 617.771 736.176 616.282Z" fill="#263238"/>
<path d="M691.385 595.03C690.711 595.03 690.162 596.041 688.691 597.707C686.503 600.008 683.945 601.925 681.122 603.379C676.301 605.896 666.942 609.76 662.67 611.763C660.011 613.003 660.136 616.336 662.883 618.232C665.63 620.129 672.242 621.494 680.183 619.65C684.507 618.64 690.144 614.475 693.725 614.705C697.305 614.935 703.952 614.865 706.593 612.933C709.234 611 708.17 606.995 707.426 603.538C706.611 599.745 705.654 593.843 704.395 594.108V595.438C702.853 597.884 694.859 598.877 691.456 597.086L691.385 595.03Z" fill="#263238"/>
<path d="M715.314 450.092C708.61 447.898 702.482 444.234 697.376 439.368C697.376 439.368 700.921 446.122 711.131 452.414L708.933 510.57L715.314 450.092Z" fill="#263238"/>
<path d="M743.674 329.668C743.674 329.668 754.309 332.114 753.547 351.328L751.331 381.904V427.812C741.866 438.553 699.928 437.773 685.482 426.961C685.482 426.961 687.113 372.633 688.088 351.718C688.779 336.864 692.2 329.384 706.806 327.754L724.761 328.533L743.674 329.668Z" fill="#BA68C8"/>
<path d="M730.132 289.751C730.193 292.323 729.744 294.882 728.812 297.28C727.879 299.679 726.481 301.868 724.699 303.724C722.916 305.579 720.783 307.063 718.424 308.091C716.065 309.118 713.526 309.668 710.953 309.709C700.318 309.709 694.079 300.528 691.775 289.751C687.521 270.023 700.354 269.775 710.953 269.775C716.145 269.882 721.082 272.046 724.678 275.792C728.275 279.538 730.236 284.559 730.132 289.751V289.751Z" fill="#263238"/>
<path d="M739.916 297.816C739.916 297.816 736.974 312.209 735.786 314.584C735.039 316.013 733.769 317.099 732.241 317.615L732.454 307.494L739.916 297.816Z" fill="#263238"/>
<path d="M736.212 277.202C736.212 277.202 738.321 276.67 740.572 280.179C742.486 283.175 742.929 289.91 739.916 297.904L734.368 298.578L736.212 277.202Z" fill="#263238"/>
<path d="M738.25 280.126L745.056 280.25C745.103 279.81 745.058 279.366 744.924 278.944C744.791 278.522 744.572 278.133 744.28 277.8C743.989 277.467 743.632 277.198 743.232 277.009C742.832 276.821 742.397 276.717 741.954 276.705C741.024 276.719 740.131 277.075 739.447 277.707C738.764 278.338 738.337 279.2 738.25 280.126Z" fill="#263238"/>
<path d="M739.083 278.513L744.117 273.674C743.827 273.332 743.469 273.054 743.066 272.857C742.663 272.661 742.224 272.55 741.776 272.531C741.328 272.513 740.881 272.588 740.463 272.751C740.045 272.914 739.666 273.162 739.349 273.479C738.681 274.132 738.283 275.012 738.234 275.944C738.185 276.877 738.488 277.794 739.083 278.513V278.513Z" fill="#263238"/>
<path d="M732.702 298.489C733.819 299.181 735.396 296.965 736.779 295.458C738.161 293.952 742.451 292.569 744.684 297.461C746.918 302.353 743.107 307.192 739.916 308.788C734.191 311.624 732.383 307.494 732.383 307.494L731.904 330.288C723.857 342.696 705.6 342.306 712.176 329.686V322.755C709.471 323.205 706.724 323.347 703.987 323.18C699.521 322.471 696.72 318.802 695.355 313.768C693.193 305.686 692.36 299.163 694.203 283.264C696.224 265.858 715.686 265.663 726.108 272.629C736.531 279.594 732.702 298.489 732.702 298.489Z" fill="#FFA8A7"/>
<path d="M708.454 280.552C713.098 280.091 717.689 279.134 722.351 278.779C723.356 278.657 724.374 278.705 725.364 278.921C728.909 279.896 728.483 284.043 729.051 286.933C730.025 291.931 730.823 300.386 732.702 300.421C733.269 300.421 735.396 296.752 736.779 295.441C737.539 294.311 737.968 292.991 738.019 291.63C738.374 289.574 738.551 287.464 738.711 285.373C738.853 283.6 739.03 281.828 739.03 280.055C739.111 278.052 738.95 276.047 738.551 274.082C738.107 272.411 737.254 270.876 736.07 269.615L735.715 269.225C733.379 266.783 730.543 264.872 727.402 263.624C722.883 261.931 718.143 260.898 713.328 260.558C708.521 260.217 703.735 259.626 698.989 258.785C698.717 258.706 698.428 258.706 698.156 258.785C697.963 258.892 697.801 259.045 697.683 259.231C697.565 259.417 697.496 259.629 697.482 259.849C697.288 260.95 697.409 262.084 697.833 263.119C698.256 264.155 698.964 265.049 699.875 265.698C696.667 265.946 692.98 264.28 689.896 263.429C689.646 263.323 689.378 263.269 689.107 263.269C688.836 263.269 688.568 263.323 688.318 263.429C688.009 263.646 687.789 263.967 687.698 264.333C687.474 265.166 687.443 266.039 687.609 266.886C687.892 269.451 688.845 271.897 690.374 273.976C692.763 277.086 696.138 279.292 699.946 280.233C702.749 280.773 705.618 280.881 708.454 280.552V280.552Z" fill="#263238"/>
<path d="M712.194 322.755C712.194 322.755 722.156 320.663 725.63 318.731C727.699 317.599 729.379 315.87 730.451 313.768C729.928 315.88 728.994 317.867 727.703 319.618C725.169 323.021 712.194 325.502 712.194 325.502V322.755Z" fill="#F28F8F"/>
<path d="M714.587 295.884C714.568 296.431 714.766 296.964 715.137 297.365C715.509 297.767 716.025 298.006 716.572 298.029C717.006 298.064 717.441 297.968 717.82 297.752C718.198 297.537 718.503 297.212 718.694 296.82C718.884 296.428 718.952 295.988 718.888 295.557C718.825 295.126 718.632 294.724 718.336 294.404C718.04 294.085 717.655 293.862 717.23 293.765C716.805 293.668 716.361 293.702 715.956 293.862C715.55 294.022 715.203 294.3 714.959 294.661C714.714 295.022 714.585 295.448 714.587 295.884V295.884Z" fill="#263238"/>
<path d="M717.777 287.287L722.049 289.751C722.36 289.144 722.431 288.441 722.247 287.784C722.063 287.127 721.638 286.564 721.057 286.206C720.773 286.047 720.46 285.949 720.137 285.917C719.814 285.886 719.487 285.923 719.179 286.024C718.87 286.126 718.586 286.291 718.345 286.508C718.104 286.726 717.911 286.991 717.777 287.287V287.287Z" fill="#263238"/>
<path d="M713.08 310.259L708.525 312.031C708.617 312.344 708.771 312.634 708.98 312.884C709.188 313.134 709.446 313.339 709.737 313.485C710.028 313.631 710.346 313.716 710.671 313.734C710.996 313.753 711.321 313.704 711.627 313.591C712.247 313.324 712.742 312.831 713.012 312.212C713.282 311.593 713.306 310.895 713.08 310.259V310.259Z" fill="#F28F8F"/>
<path d="M696.259 289.113L700.159 285.993C699.984 285.721 699.754 285.488 699.483 285.311C699.213 285.134 698.908 285.015 698.589 284.963C698.269 284.911 697.943 284.927 697.63 285.01C697.317 285.093 697.025 285.241 696.773 285.444C696.252 285.886 695.912 286.504 695.817 287.18C695.722 287.857 695.88 288.545 696.259 289.113V289.113Z" fill="#263238"/>
<path d="M697.978 295.299C698.009 295.687 698.153 296.057 698.391 296.365C698.629 296.673 698.951 296.904 699.319 297.032C699.687 297.159 700.083 297.177 700.461 297.082C700.838 296.988 701.18 296.786 701.445 296.5C701.709 296.215 701.884 295.859 701.95 295.475C702.015 295.092 701.967 294.697 701.812 294.34C701.657 293.984 701.401 293.68 701.076 293.466C700.751 293.252 700.37 293.138 699.981 293.136C699.707 293.146 699.438 293.209 699.189 293.323C698.939 293.437 698.715 293.599 698.529 293.8C698.343 294.001 698.198 294.237 698.104 294.494C698.009 294.752 697.967 295.025 697.978 295.299V295.299Z" fill="#263238"/>
<path d="M708.667 293.633L708.436 306.235L701.275 304.605L708.667 293.633Z" fill="#F28F8F"/>
<path d="M538.612 399.186L549.726 392.769L554.122 387.434L543.026 393.85L538.612 399.186Z" fill="#BA68C8"/>
<path opacity="0.4" d="M538.612 399.186L549.726 392.769L554.122 387.434L543.026 393.85L538.612 399.186Z" fill="black"/>
<path d="M568.834 416.627L579.947 410.211L589.217 402.004L578.122 408.403L568.834 416.627Z" fill="#BA68C8"/>
<path opacity="0.4" d="M568.834 416.627L579.947 410.211L589.217 402.004L578.122 408.403L568.834 416.627Z" fill="black"/>
<path d="M663.237 438.766C665.865 442.288 667.455 446.475 667.828 450.854C665.212 447.326 663.623 443.142 663.237 438.766V438.766ZM689.063 439.103C685.323 413.667 671.657 388.515 655.385 379.103C647.568 374.583 640.337 374.424 634.54 377.809L624.083 383.836L623.498 384.19C623.032 384.447 622.582 384.731 622.151 385.041C621.292 385.632 620.485 386.296 619.74 387.026L619.386 387.363C619.066 387.682 618.73 388.054 618.428 388.409C618.127 388.763 617.666 389.313 617.312 389.791C616.559 390.782 615.878 391.824 615.273 392.911C614.954 393.46 614.653 394.045 614.369 394.683L523.032 341.969L511.936 348.368V355.458L512.875 355.99L513.762 356.504V357.922L511.989 358.967V363.08L525.407 391.44L538.665 399.115L543.079 393.797L554.778 400.799L561.495 412.302L568.904 416.574L578.175 408.35L589.554 414.926L593.383 430.719L612.508 441.779C613.453 445.799 614.637 449.758 616.053 453.637C616.177 454.027 616.337 454.435 616.496 454.878C622.842 471.539 632.927 485.808 644.307 492.384C645.671 493.193 647.1 493.887 648.579 494.458C649.361 494.769 650.16 495.035 650.972 495.256C651.681 495.445 652.39 495.604 653.099 495.734C655.337 496.142 657.631 496.142 659.87 495.734L660.791 495.504C661.232 495.415 661.665 495.29 662.085 495.132L663.078 494.742C663.429 494.615 663.768 494.455 664.088 494.263C664.416 494.121 664.735 493.962 665.045 493.784L665.506 493.501C665.59 493.473 665.668 493.431 665.737 493.377C668.271 491.923 674.511 488.307 676.212 487.35C684.649 482.458 690.109 470.086 690.109 452.591C690.094 448.075 689.745 443.567 689.063 439.103V439.103Z" fill="#BA68C8"/>
<path d="M659.994 460.231C655.598 457.696 652.053 450.181 652.053 443.445C652.053 436.71 655.598 433.289 659.994 435.806C664.389 438.323 667.917 445.856 667.917 452.609C667.917 459.362 664.372 462.766 659.994 460.231ZM677.949 445.501C674.227 420.084 660.561 394.914 644.272 385.52C636.721 381.159 629.737 380.84 624.065 383.836L623.48 384.19C623.014 384.447 622.564 384.731 622.133 385.041C621.274 385.632 620.467 386.296 619.722 387.026L619.368 387.363C619.049 387.682 618.712 388.054 618.411 388.409C618.109 388.763 617.648 389.313 617.294 389.791C616.542 390.782 615.86 391.824 615.255 392.911C614.936 393.46 614.635 394.045 614.352 394.683C612.699 398.11 611.507 401.739 610.807 405.478L511.918 348.368V355.458L512.858 355.99L513.744 356.504V357.922L511.971 358.967V363.08L525.389 391.44L538.648 399.115L543.061 393.797L554.76 400.799L561.478 412.302L568.887 416.574L578.157 408.35L589.536 414.926L593.365 430.719L612.508 441.779C613.453 445.799 614.637 449.758 616.053 453.637C616.177 454.027 616.337 454.435 616.496 454.878C622.842 471.539 632.927 485.808 644.307 492.384C645.671 493.193 647.1 493.887 648.579 494.458C649.361 494.769 650.16 495.035 650.972 495.256C651.681 495.445 652.39 495.604 653.099 495.734C655.337 496.142 657.631 496.142 659.87 495.734L660.791 495.504C661.232 495.415 661.665 495.291 662.085 495.132L663.078 494.742C663.429 494.615 663.767 494.455 664.088 494.263C664.416 494.121 664.735 493.962 665.045 493.784L665.506 493.501C665.59 493.473 665.668 493.431 665.737 493.377C673.819 488.272 679.013 476.077 679.013 459.008C678.983 454.486 678.627 449.972 677.949 445.501V445.501Z" fill="#BA68C8"/>
<path opacity="0.4" d="M667.917 452.591C667.917 459.345 664.372 462.765 659.994 460.231C655.616 457.696 652.053 450.198 652.053 443.445C652.053 436.692 655.598 433.271 659.994 435.806C661.26 436.576 662.362 437.588 663.237 438.783C663.618 443.16 665.208 447.345 667.828 450.872C667.893 451.443 667.923 452.017 667.917 452.591V452.591Z" fill="black"/>
<path opacity="0.4" d="M690.073 452.574C690.073 470.068 684.614 482.44 676.177 487.333C674.404 488.29 668.236 491.906 665.701 493.359C673.784 488.254 678.977 476.059 678.977 458.99C678.958 454.475 678.615 449.967 677.949 445.501C674.227 420.084 660.561 394.914 644.272 385.52C636.721 381.159 629.737 380.84 624.065 383.836L634.523 377.809C640.319 374.424 647.551 374.583 655.367 379.103C671.657 388.515 685.323 413.667 689.045 439.103C689.72 443.561 690.064 448.064 690.073 452.574V452.574Z" fill="white"/>
<path d="M678.977 458.955C678.977 476.024 673.784 488.219 665.701 493.324C668.236 491.87 674.475 488.254 676.177 487.297C684.614 482.405 690.073 470.033 690.073 452.538C690.073 451.9 690.073 451.244 690.073 450.588L678.977 457.005C678.96 457.696 678.977 458.334 678.977 458.955Z" fill="#BA68C8"/>
<path opacity="0.1" d="M678.977 458.955C678.977 476.024 673.784 488.219 665.701 493.324C668.236 491.87 674.475 488.254 676.177 487.297C684.614 482.405 690.073 470.033 690.073 452.538C690.073 451.9 690.073 451.244 690.073 450.588L678.977 457.005C678.96 457.696 678.977 458.334 678.977 458.955Z" fill="black"/>
<path opacity="0.15" d="M611.232 412.728V416.326L511.936 359.003L513.762 357.939V356.45L611.232 412.728Z" fill="black"/>
<path opacity="0.15" d="M611.232 414.217V416.326L511.936 359.003L513.762 357.939V357.922L611.232 414.217Z" fill="black"/>
<path opacity="0.15" d="M654.41 487.315C650.647 487.217 646.977 486.122 643.775 484.142C627.592 474.801 614.422 447.008 614.422 422.193C614.422 407.711 618.801 396.899 626.44 392.486C631.758 389.401 638.05 389.791 644.662 393.602C660.827 402.943 673.997 430.825 673.997 455.64C673.997 470.104 669.618 480.934 661.979 485.33C659.675 486.646 657.064 487.33 654.41 487.315ZM634.115 392.22C631.753 392.207 629.429 392.818 627.38 393.992C620.414 398.016 616.248 408.562 616.248 422.175C616.248 446.423 629.01 473.578 644.715 482.582C650.723 486.127 656.413 486.446 661.146 483.717C668.112 479.693 672.277 469.164 672.277 455.551C672.277 431.286 659.515 404.149 643.828 395.127C640.897 393.343 637.546 392.365 634.115 392.291V392.22Z" fill="black"/>
<path opacity="0.4" d="M614.281 394.648C612.628 398.074 611.436 401.704 610.736 405.443L511.847 348.332L522.943 341.934L614.281 394.648Z" fill="white"/>
<path d="M742.805 400.196C747.981 390.394 753.901 368.379 756.844 357.266C761.027 341.49 754.256 331.564 746.563 331.157C741.76 331.901 725.931 389.455 725.931 389.455C724.159 390.855 700.106 403.067 692.377 406.134C690.995 406.657 689.47 406.657 688.088 406.134C684.383 404.787 681.849 405.035 678.215 404.68C675.361 404.397 673.926 403.386 673.553 403.989C673.215 404.737 673.172 405.585 673.431 406.364C673.691 407.142 674.235 407.794 674.954 408.19C676.518 409.101 678.184 409.827 679.917 410.352C676.81 411.295 673.573 411.732 670.327 411.646C662.883 411.487 660.206 414.713 665.985 422.281C669.53 426.996 675.397 428.485 688.496 423.965C692.253 422.654 697.358 420.119 702.126 418.4C711.946 414.855 714.534 414.429 722.014 411.895C732.915 408.208 740.501 404.556 742.805 400.196Z" fill="#FFA8A7"/>
<path d="M743.674 329.668C748.194 330.288 752.536 331.299 755.213 334.985C757.889 338.672 760.034 343.848 757.411 357.939C755.402 367.849 752.713 377.61 749.364 387.15C749.364 387.15 738.835 391.652 727.65 380.238L735.343 350.495C735.343 350.495 736.584 331.157 743.674 329.668Z" fill="#455A64"/>
</svg>
